<ttFont>
    <TTGlyph name="A" xMin="-37" yMin="-4" xMax="635" yMax="660">
      <contour>
        <pt x="549" y="126" on="1"/>
        <pt x="560" y="82" on="0"/>
        <pt x="602" y="30" on="0"/>
        <pt x="635" y="26" on="1"/>
        <pt x="631" y="1" on="1"/>
        <pt x="623" y="-1" on="0"/>
        <pt x="593" y="-4" on="0"/>
        <pt x="582" y="-4" on="1"/>
        <pt x="558" y="-4" on="0"/>
        <pt x="505" y="5" on="0"/>
        <pt x="457" y="32" on="0"/>
        <pt x="418" y="83" on="0"/>
        <pt x="408" y="126" on="1"/>
        <pt x="395" y="182" on="1"/>
        <pt x="129" y="182" on="1"/>
        <pt x="15" y="0" on="1"/>
        <pt x="-37" y="0" on="1"/>
        <pt x="374" y="660" on="1"/>
        <pt x="419" y="660" on="1"/>
      </contour>
      <contour>
        <pt x="158" y="227" on="1"/>
        <pt x="384" y="227" on="1"/>
        <pt x="320" y="488" on="1"/>
      </contour>
    </TTGlyph>
    <TTGlyph name="AE" xMin="-66" yMin="0" xMax="869" yMax="660">
      <contour>
        <pt x="796" y="660" on="1"/>
        <pt x="839" y="660" on="0"/>
        <pt x="869" y="626" on="0"/>
        <pt x="869" y="602" on="1"/>
        <pt x="869" y="599" on="0"/>
        <pt x="868" y="591" on="0"/>
        <pt x="865" y="570" on="0"/>
        <pt x="858" y="529" on="0"/>
        <pt x="852" y="495" on="1"/>
        <pt x="822" y="495" on="1"/>
        <pt x="825" y="513" on="0"/>
        <pt x="825" y="528" on="1"/>
        <pt x="825" y="574" on="0"/>
        <pt x="770" y="615" on="0"/>
        <pt x="718" y="615" on="1"/>
        <pt x="557" y="615" on="1"/>
        <pt x="513" y="365" on="1"/>
        <pt x="773" y="365" on="1"/>
        <pt x="765" y="320" on="1"/>
        <pt x="505" y="320" on="1"/>
        <pt x="456" y="45" on="1"/>
        <pt x="627" y="45" on="1"/>
        <pt x="682" y="45" on="0"/>
        <pt x="768" y="94" on="0"/>
        <pt x="806" y="159" on="1"/>
        <pt x="831" y="149" on="1"/>
        <pt x="788" y="70" on="1"/>
        <pt x="771" y="38" on="0"/>
        <pt x="730" y="0" on="0"/>
        <pt x="689" y="0" on="1"/>
        <pt x="449" y="0" on="1"/>
        <pt x="319" y="0" on="1"/>
        <pt x="352" y="190" on="1"/>
        <pt x="134" y="190" on="1"/>
        <pt x="-6" y="0" on="1"/>
        <pt x="-66" y="0" on="1"/>
        <pt x="420" y="660" on="1"/>
      </contour>
      <contour>
        <pt x="360" y="235" on="1"/>
        <pt x="421" y="579" on="1"/>
        <pt x="167" y="235" on="1"/>
      </contour>
    </TTGlyph>
    <TTGlyph name="Aacute" xMin="-37" yMin="-4" xMax="635" yMax="840">
      <component glyphName="A" x="0" y="0" flags="0x204"/>
      <component glyphName="acute" x="286" y="0" flags="0x4"/>
    </TTGlyph>
    <TTGlyph name="Acircumflex" xMin="-37" yMin="-4" xMax="635" yMax="810">
      <component glyphName="A" x="0" y="0" flags="0x204"/>
      <component glyphName="circumflex" x="167" y="25" flags="0x4"/>
    </TTGlyph>
    <TTGlyph name="Adieresis" xMin="-37" yMin="-4" xMax="635" yMax="802">
      <component glyphName="A" x="0" y="0" flags="0x204"/>
      <component glyphName="dieresis" x="188" y="0" flags="0x4"/>
    </TTGlyph>
    <TTGlyph name="Agrave" xMin="-37" yMin="-4" xMax="635" yMax="840">
      <component glyphName="A" x="0" y="0" flags="0x204"/>
      <component glyphName="grave.alt1" x="246" y="175" flags="0x4"/>
    </TTGlyph>
    <TTGlyph name="Aring" xMin="-37" yMin="-4" xMax="635" yMax="800">
      <contour>
        <pt x="501" y="724" on="1"/>
        <pt x="501" y="691" on="0"/>
        <pt x="461" y="635" on="0"/>
        <pt x="429" y="619" on="1"/>
        <pt x="549" y="126" on="1"/>
        <pt x="560" y="82" on="0"/>
        <pt x="602" y="30" on="0"/>
        <pt x="635" y="26" on="1"/>
        <pt x="631" y="1" on="1"/>
        <pt x="623" y="-1" on="0"/>
        <pt x="593" y="-4" on="0"/>
        <pt x="582" y="-4" on="1"/>
        <pt x="558" y="-4" on="0"/>
        <pt x="505" y="5" on="0"/>
        <pt x="457" y="32" on="0"/>
        <pt x="418" y="83" on="0"/>
        <pt x="408" y="126" on="1"/>
        <pt x="395" y="182" on="1"/>
        <pt x="129" y="182" on="1"/>
        <pt x="15" y="0" on="1"/>
        <pt x="-37" y="0" on="1"/>
        <pt x="348" y="619" on="1"/>
        <pt x="334" y="627" on="0"/>
        <pt x="307" y="662" on="0"/>
        <pt x="307" y="688" on="1"/>
        <pt x="307" y="710" on="0"/>
        <pt x="325" y="750" on="0"/>
        <pt x="356" y="781" on="0"/>
        <pt x="398" y="800" on="0"/>
        <pt x="421" y="800" on="1"/>
        <pt x="457" y="800" on="0"/>
        <pt x="501" y="758" on="0"/>
      </contour>
      <contour>
        <pt x="158" y="227" on="1"/>
        <pt x="384" y="227" on="1"/>
        <pt x="320" y="488" on="1"/>
      </contour>
      <contour>
        <pt x="419" y="660" on="1"/>
        <pt x="433" y="668" on="0"/>
        <pt x="450" y="697" on="0"/>
        <pt x="450" y="716" on="1"/>
        <pt x="450" y="734" on="0"/>
        <pt x="430" y="755" on="0"/>
        <pt x="413" y="755" on="1"/>
        <pt x="390" y="755" on="0"/>
        <pt x="358" y="718" on="0"/>
        <pt x="358" y="693" on="1"/>
        <pt x="358" y="673" on="0"/>
        <pt x="374" y="660" on="1"/>
      </contour>
    </TTGlyph>
    <TTGlyph name="Atilde" xMin="-37" yMin="-4" xMax="635" yMax="800">
      <component glyphName="A" x="0" y="0" flags="0x204"/>
      <component glyphName="tilde" x="199" y="20" flags="0x4"/>
    </TTGlyph>
    <TTGlyph name="B" xMin="48" yMin="0" xMax="621" yMax="660">
      <contour>
        <pt x="347" y="620" on="1"/>
        <pt x="335" y="620" on="0"/>
        <pt x="312" y="618" on="0"/>
        <pt x="304" y="616" on="1"/>
        <pt x="294" y="614" on="0"/>
        <pt x="286" y="613" on="1"/>
        <pt x="241" y="361" on="1"/>
        <pt x="316" y="361" on="1"/>
        <pt x="350" y="361" on="0"/>
        <pt x="410" y="382" on="0"/>
        <pt x="455" y="423" on="0"/>
        <pt x="482" y="481" on="0"/>
        <pt x="482" y="518" on="1"/>
        <pt x="482" y="547" on="0"/>
        <pt x="459" y="586" on="0"/>
        <pt x="422" y="610" on="0"/>
        <pt x="373" y="620" on="0"/>
      </contour>
      <contour>
        <pt x="48" y="0" on="1"/>
        <pt x="72" y="137" on="0"/>
        <pt x="105" y="326" on="0"/>
        <pt x="127" y="452" on="0"/>
        <pt x="139" y="523" on="0"/>
        <pt x="145" y="560" on="0"/>
        <pt x="146" y="572" on="0"/>
        <pt x="146" y="575" on="1"/>
        <pt x="146" y="601" on="0"/>
        <pt x="121" y="630" on="0"/>
        <pt x="89" y="630" on="1"/>
        <pt x="79" y="630" on="1"/>
        <pt x="84" y="660" on="1"/>
        <pt x="354" y="660" on="1"/>
        <pt x="397" y="660" on="0"/>
        <pt x="492" y="651" on="0"/>
        <pt x="570" y="622" on="0"/>
        <pt x="621" y="566" on="0"/>
        <pt x="621" y="518" on="1"/>
        <pt x="621" y="483" on="0"/>
        <pt x="594" y="427" on="0"/>
        <pt x="548" y="382" on="0"/>
        <pt x="488" y="350" on="0"/>
        <pt x="454" y="341" on="1"/>
        <pt x="494" y="337" on="0"/>
        <pt x="550" y="315" on="0"/>
        <pt x="583" y="282" on="0"/>
        <pt x="598" y="241" on="0"/>
        <pt x="598" y="217" on="1"/>
        <pt x="598" y="154" on="0"/>
        <pt x="540" y="71" on="0"/>
        <pt x="446" y="21" on="0"/>
        <pt x="328" y="0" on="0"/>
        <pt x="268" y="0" on="1"/>
        <pt x="177" y="0" on="1"/>
      </contour>
      <contour>
        <pt x="260" y="40" on="1"/>
        <pt x="297" y="40" on="0"/>
        <pt x="368" y="61" on="0"/>
        <pt x="424" y="103" on="0"/>
        <pt x="457" y="167" on="0"/>
        <pt x="457" y="210" on="1"/>
        <pt x="457" y="316" on="0"/>
        <pt x="308" y="316" on="1"/>
        <pt x="233" y="316" on="1"/>
        <pt x="186" y="50" on="1"/>
        <pt x="194" y="47" on="0"/>
        <pt x="205" y="45" on="1"/>
        <pt x="225" y="40" on="0"/>
        <pt x="255" y="40" on="1"/>
      </contour>
    </TTGlyph>
    <TTGlyph name="Breve" xMin="68" yMin="510" xMax="350" yMax="625">
      <contour>
        <pt x="204" y="575" on="1"/>
        <pt x="246" y="575" on="0"/>
        <pt x="307" y="606" on="0"/>
        <pt x="326" y="625" on="1"/>
        <pt x="350" y="604" on="1"/>
        <pt x="324" y="562" on="0"/>
        <pt x="241" y="510" on="0"/>
        <pt x="192" y="510" on="1"/>
        <pt x="143" y="510" on="0"/>
        <pt x="79" y="562" on="0"/>
        <pt x="68" y="604" on="1"/>
        <pt x="100" y="625" on="1"/>
        <pt x="111" y="606" on="0"/>
        <pt x="162" y="575" on="0"/>
      </contour>
    </TTGlyph>
    <TTGlyph name="C" xMin="38" yMin="-20" xMax="672" yMax="680">
      <contour>
        <pt x="630" y="447" on="1"/>
        <pt x="628" y="538" on="0"/>
        <pt x="543" y="635" on="0"/>
        <pt x="460" y="635" on="1"/>
        <pt x="385" y="635" on="0"/>
        <pt x="277" y="559" on="0"/>
        <pt x="209" y="440" on="0"/>
        <pt x="177" y="298" on="0"/>
        <pt x="177" y="232" on="1"/>
        <pt x="177" y="188" on="0"/>
        <pt x="196" y="113" on="0"/>
        <pt x="238" y="57" on="0"/>
        <pt x="305" y="25" on="0"/>
        <pt x="353" y="25" on="1"/>
        <pt x="422" y="25" on="0"/>
        <pt x="553" y="98" on="0"/>
        <pt x="601" y="168" on="1"/>
        <pt x="631" y="141" on="1"/>
        <pt x="600" y="99" on="0"/>
        <pt x="533" y="39" on="0"/>
        <pt x="456" y="-1" on="0"/>
        <pt x="367" y="-20" on="0"/>
        <pt x="315" y="-20" on="1"/>
        <pt x="247" y="-20" on="0"/>
        <pt x="143" y="20" on="0"/>
        <pt x="73" y="90" on="0"/>
        <pt x="38" y="188" on="0"/>
        <pt x="38" y="246" on="1"/>
        <pt x="38" y="323" on="0"/>
        <pt x="97" y="478" on="0"/>
        <pt x="204" y="602" on="0"/>
        <pt x="351" y="680" on="0"/>
        <pt x="438" y="680" on="1"/>
        <pt x="469" y="680" on="0"/>
        <pt x="550" y="670" on="0"/>
        <pt x="622" y="641" on="0"/>
        <pt x="672" y="588" on="0"/>
        <pt x="672" y="545" on="1"/>
        <pt x="672" y="522" on="0"/>
        <pt x="665" y="473" on="0"/>
        <pt x="660" y="447" on="1"/>
      </contour>
    </TTGlyph>
    <TTGlyph name="Ccedilla" xMin="38" yMin="-206" xMax="672" yMax="680">
      <contour>
        <pt x="630" y="447" on="1"/>
        <pt x="628" y="538" on="0"/>
        <pt x="543" y="635" on="0"/>
        <pt x="460" y="635" on="1"/>
        <pt x="385" y="635" on="0"/>
        <pt x="277" y="559" on="0"/>
        <pt x="209" y="440" on="0"/>
        <pt x="177" y="298" on="0"/>
        <pt x="177" y="232" on="1"/>
        <pt x="177" y="188" on="0"/>
        <pt x="196" y="113" on="0"/>
        <pt x="238" y="57" on="0"/>
        <pt x="305" y="25" on="0"/>
        <pt x="353" y="25" on="1"/>
        <pt x="422" y="25" on="0"/>
        <pt x="553" y="98" on="0"/>
        <pt x="601" y="168" on="1"/>
        <pt x="631" y="141" on="1"/>
        <pt x="572" y="61" on="0"/>
        <pt x="432" y="-16" on="0"/>
        <pt x="335" y="-19" on="1"/>
        <pt x="330" y="-50" on="1"/>
        <pt x="367" y="-50" on="0"/>
        <pt x="407" y="-84" on="0"/>
        <pt x="407" y="-113" on="1"/>
        <pt x="407" y="-155" on="0"/>
        <pt x="345" y="-206" on="0"/>
        <pt x="302" y="-206" on="1"/>
        <pt x="232" y="-206" on="1"/>
        <pt x="240" y="-160" on="1"/>
        <pt x="290" y="-160" on="1"/>
        <pt x="309" y="-160" on="0"/>
        <pt x="334" y="-140" on="0"/>
        <pt x="336" y="-123" on="1"/>
        <pt x="336" y="-111" on="0"/>
        <pt x="319" y="-95" on="0"/>
        <pt x="302" y="-95" on="1"/>
        <pt x="257" y="-95" on="1"/>
        <pt x="271" y="-17" on="1"/>
        <pt x="214" y="-11" on="0"/>
        <pt x="126" y="33" on="0"/>
        <pt x="68" y="102" on="0"/>
        <pt x="38" y="193" on="0"/>
        <pt x="38" y="246" on="1"/>
        <pt x="38" y="323" on="0"/>
        <pt x="97" y="478" on="0"/>
        <pt x="204" y="602" on="0"/>
        <pt x="351" y="680" on="0"/>
        <pt x="438" y="680" on="1"/>
        <pt x="469" y="680" on="0"/>
        <pt x="550" y="670" on="0"/>
        <pt x="622" y="641" on="0"/>
        <pt x="672" y="588" on="0"/>
        <pt x="672" y="545" on="1"/>
        <pt x="672" y="522" on="0"/>
        <pt x="665" y="473" on="0"/>
        <pt x="660" y="447" on="1"/>
      </contour>
    </TTGlyph>
    <TTGlyph name="D" xMin="48" yMin="0" xMax="717" yMax="660">
      <contour>
        <pt x="362" y="620" on="1"/>
        <pt x="347" y="620" on="0"/>
        <pt x="320" y="618" on="0"/>
        <pt x="309" y="616" on="1"/>
        <pt x="297" y="614" on="0"/>
        <pt x="286" y="613" on="1"/>
        <pt x="186" y="47" on="1"/>
        <pt x="196" y="45" on="0"/>
        <pt x="208" y="43" on="1"/>
        <pt x="218" y="41" on="0"/>
        <pt x="245" y="40" on="0"/>
        <pt x="260" y="40" on="1"/>
        <pt x="270" y="40" on="1"/>
        <pt x="339" y="40" on="0"/>
        <pt x="449" y="105" on="0"/>
        <pt x="527" y="208" on="0"/>
        <pt x="568" y="338" on="0"/>
        <pt x="568" y="403" on="1"/>
        <pt x="568" y="503" on="0"/>
        <pt x="463" y="620" on="0"/>
        <pt x="370" y="620" on="1"/>
      </contour>
      <contour>
        <pt x="356" y="660" on="1"/>
        <pt x="537" y="660" on="0"/>
        <pt x="717" y="523" on="0"/>
        <pt x="717" y="402" on="1"/>
        <pt x="717" y="312" on="0"/>
        <pt x="647" y="163" on="0"/>
        <pt x="525" y="58" on="0"/>
        <pt x="360" y="0" on="0"/>
        <pt x="266" y="0" on="1"/>
        <pt x="178" y="0" on="1"/>
        <pt x="48" y="0" on="1"/>
        <pt x="141" y="530" on="1"/>
        <pt x="146" y="558" on="0"/>
        <pt x="146" y="575" on="1"/>
        <pt x="146" y="601" on="0"/>
        <pt x="121" y="630" on="0"/>
        <pt x="89" y="630" on="1"/>
        <pt x="79" y="630" on="1"/>
        <pt x="84" y="660" on="1"/>
      </contour>
    </TTGlyph>
    <TTGlyph name="E" xMin="48" yMin="0" xMax="598" yMax="660">
      <contour>
        <pt x="525" y="660" on="1"/>
        <pt x="568" y="660" on="0"/>
        <pt x="598" y="626" on="0"/>
        <pt x="598" y="602" on="1"/>
        <pt x="598" y="599" on="0"/>
        <pt x="597" y="591" on="0"/>
        <pt x="594" y="570" on="0"/>
        <pt x="587" y="529" on="0"/>
        <pt x="581" y="495" on="1"/>
        <pt x="551" y="495" on="1"/>
        <pt x="554" y="513" on="0"/>
        <pt x="554" y="528" on="1"/>
        <pt x="554" y="574" on="0"/>
        <pt x="499" y="615" on="0"/>
        <pt x="447" y="615" on="1"/>
        <pt x="286" y="615" on="1"/>
        <pt x="242" y="365" on="1"/>
        <pt x="502" y="365" on="1"/>
        <pt x="494" y="320" on="1"/>
        <pt x="234" y="320" on="1"/>
        <pt x="185" y="45" on="1"/>
        <pt x="356" y="45" on="1"/>
        <pt x="411" y="45" on="0"/>
        <pt x="497" y="94" on="0"/>
        <pt x="535" y="159" on="1"/>
        <pt x="560" y="149" on="1"/>
        <pt x="517" y="70" on="1"/>
        <pt x="500" y="38" on="0"/>
        <pt x="459" y="0" on="0"/>
        <pt x="418" y="0" on="1"/>
        <pt x="178" y="0" on="1"/>
        <pt x="48" y="0" on="1"/>
        <pt x="72" y="137" on="0"/>
        <pt x="105" y="326" on="0"/>
        <pt x="127" y="452" on="0"/>
        <pt x="139" y="523" on="0"/>
        <pt x="145" y="560" on="0"/>
        <pt x="146" y="572" on="0"/>
        <pt x="146" y="575" on="1"/>
        <pt x="146" y="601" on="0"/>
        <pt x="121" y="630" on="0"/>
        <pt x="89" y="630" on="1"/>
        <pt x="79" y="630" on="1"/>
        <pt x="84" y="660" on="1"/>
      </contour>
    </TTGlyph>
    <TTGlyph name="Eacute" xMin="48" yMin="0" xMax="598" yMax="840">
      <component glyphName="E" x="0" y="0" flags="0x204"/>
      <component glyphName="acute" x="264" y="0" flags="0x4"/>
    </TTGlyph>
    <TTGlyph name="Ecircumflex" xMin="48" yMin="0" xMax="598" yMax="847">
      <component glyphName="E" x="0" y="0" flags="0x204"/>
      <component glyphName="circumflex" x="155" y="62" flags="0x4"/>
    </TTGlyph>
    <TTGlyph name="Edieresis" xMin="48" yMin="0" xMax="598" yMax="842">
      <component glyphName="E" x="0" y="0" flags="0x204"/>
      <component glyphName="dieresis.alt1" x="185" y="195" flags="0x4"/>
    </TTGlyph>
    <TTGlyph name="Egrave" xMin="48" yMin="0" xMax="598" yMax="840">
      <component glyphName="E" x="0" y="0" flags="0x204"/>
      <component glyphName="grave.alt1" x="246" y="175" flags="0x4"/>
    </TTGlyph>
    <TTGlyph name="Eth" xMin="31" yMin="0" xMax="717" yMax="660">
      <contour>
        <pt x="356" y="660" on="1"/>
        <pt x="537" y="660" on="0"/>
        <pt x="717" y="523" on="0"/>
        <pt x="717" y="402" on="1"/>
        <pt x="717" y="312" on="0"/>
        <pt x="647" y="163" on="0"/>
        <pt x="525" y="58" on="0"/>
        <pt x="360" y="0" on="0"/>
        <pt x="266" y="0" on="1"/>
        <pt x="178" y="0" on="1"/>
        <pt x="48" y="0" on="1"/>
        <pt x="101" y="305" on="1"/>
        <pt x="31" y="305" on="1"/>
        <pt x="40" y="355" on="1"/>
        <pt x="110" y="355" on="1"/>
        <pt x="123" y="427" on="0"/>
        <pt x="137" y="510" on="0"/>
        <pt x="144" y="554" on="0"/>
        <pt x="146" y="570" on="0"/>
        <pt x="146" y="575" on="1"/>
        <pt x="146" y="601" on="0"/>
        <pt x="121" y="630" on="0"/>
        <pt x="89" y="630" on="1"/>
        <pt x="79" y="630" on="1"/>
        <pt x="84" y="660" on="1"/>
      </contour>
      <contour>
        <pt x="362" y="620" on="1"/>
        <pt x="347" y="620" on="0"/>
        <pt x="320" y="618" on="0"/>
        <pt x="309" y="616" on="1"/>
        <pt x="297" y="614" on="0"/>
        <pt x="286" y="613" on="1"/>
        <pt x="240" y="355" on="1"/>
        <pt x="315" y="355" on="1"/>
        <pt x="306" y="305" on="1"/>
        <pt x="231" y="305" on="1"/>
        <pt x="186" y="47" on="1"/>
        <pt x="196" y="45" on="0"/>
        <pt x="208" y="43" on="1"/>
        <pt x="218" y="41" on="0"/>
        <pt x="245" y="40" on="0"/>
        <pt x="260" y="40" on="1"/>
        <pt x="270" y="40" on="1"/>
        <pt x="339" y="40" on="0"/>
        <pt x="449" y="105" on="0"/>
        <pt x="527" y="208" on="0"/>
        <pt x="568" y="338" on="0"/>
        <pt x="568" y="403" on="1"/>
        <pt x="568" y="503" on="0"/>
        <pt x="463" y="620" on="0"/>
        <pt x="370" y="620" on="1"/>
      </contour>
    </TTGlyph>
    <TTGlyph name="Euro" xMin="22" yMin="-20" xMax="721" yMax="680">
      <contour>
        <pt x="679" y="447" on="1"/>
        <pt x="677" y="538" on="0"/>
        <pt x="592" y="635" on="0"/>
        <pt x="509" y="635" on="1"/>
        <pt x="468" y="635" on="0"/>
        <pt x="392" y="612" on="0"/>
        <pt x="326" y="557" on="0"/>
        <pt x="271" y="467" on="0"/>
        <pt x="252" y="400" on="1"/>
        <pt x="447" y="400" on="1"/>
        <pt x="427" y="355" on="1"/>
        <pt x="240" y="355" on="1"/>
        <pt x="230" y="295" on="1"/>
        <pt x="414" y="295" on="1"/>
        <pt x="394" y="250" on="1"/>
        <pt x="226" y="250" on="1"/>
        <pt x="226" y="233" on="1"/>
        <pt x="226" y="189" on="0"/>
        <pt x="245" y="114" on="0"/>
        <pt x="287" y="57" on="0"/>
        <pt x="354" y="25" on="0"/>
        <pt x="402" y="25" on="1"/>
        <pt x="471" y="25" on="0"/>
        <pt x="602" y="98" on="0"/>
        <pt x="650" y="168" on="1"/>
        <pt x="680" y="141" on="1"/>
        <pt x="649" y="99" on="0"/>
        <pt x="582" y="39" on="0"/>
        <pt x="505" y="-1" on="0"/>
        <pt x="416" y="-20" on="0"/>
        <pt x="364" y="-20" on="1"/>
        <pt x="296" y="-20" on="0"/>
        <pt x="192" y="19" on="0"/>
        <pt x="122" y="90" on="0"/>
        <pt x="87" y="187" on="0"/>
        <pt x="87" y="245" on="1"/>
        <pt x="87" y="250" on="1"/>
        <pt x="22" y="250" on="1"/>
        <pt x="42" y="295" on="1"/>
        <pt x="90" y="295" on="1"/>
        <pt x="95" y="323" on="0"/>
        <pt x="99" y="346" on="0"/>
        <pt x="101" y="355" on="1"/>
        <pt x="55" y="355" on="1"/>
        <pt x="75" y="400" on="1"/>
        <pt x="115" y="400" on="1"/>
        <pt x="138" y="461" on="0"/>
        <pt x="214" y="563" on="0"/>
        <pt x="311" y="638" on="0"/>
        <pt x="426" y="680" on="0"/>
        <pt x="487" y="680" on="1"/>
        <pt x="581" y="680" on="0"/>
        <pt x="688" y="631" on="0"/>
        <pt x="710" y="599" on="1"/>
        <pt x="716" y="588" on="0"/>
        <pt x="721" y="561" on="0"/>
        <pt x="721" y="545" on="1"/>
        <pt x="721" y="522" on="0"/>
        <pt x="714" y="473" on="0"/>
        <pt x="709" y="447" on="1"/>
      </contour>
    </TTGlyph>
    <TTGlyph name="F" xMin="48" yMin="0" xMax="576" yMax="660">
      <contour>
        <pt x="503" y="660" on="1"/>
        <pt x="546" y="660" on="0"/>
        <pt x="576" y="626" on="0"/>
        <pt x="576" y="602" on="1"/>
        <pt x="576" y="599" on="0"/>
        <pt x="575" y="591" on="0"/>
        <pt x="572" y="570" on="0"/>
        <pt x="565" y="529" on="0"/>
        <pt x="559" y="495" on="1"/>
        <pt x="529" y="495" on="1"/>
        <pt x="532" y="513" on="0"/>
        <pt x="532" y="528" on="1"/>
        <pt x="532" y="575" on="0"/>
        <pt x="477" y="615" on="0"/>
        <pt x="425" y="615" on="1"/>
        <pt x="286" y="615" on="1"/>
        <pt x="241" y="360" on="1"/>
        <pt x="461" y="360" on="1"/>
        <pt x="453" y="315" on="1"/>
        <pt x="233" y="315" on="1"/>
        <pt x="178" y="0" on="1"/>
        <pt x="48" y="0" on="1"/>
        <pt x="141" y="530" on="1"/>
        <pt x="146" y="558" on="0"/>
        <pt x="146" y="575" on="1"/>
        <pt x="146" y="601" on="0"/>
        <pt x="121" y="630" on="0"/>
        <pt x="89" y="630" on="1"/>
        <pt x="79" y="630" on="1"/>
        <pt x="84" y="660" on="1"/>
      </contour>
    </TTGlyph>
    <TTGlyph name="G" xMin="40" yMin="-20" xMax="737" yMax="680">
      <contour>
        <pt x="620" y="47" on="1"/>
        <pt x="556" y="12" on="0"/>
        <pt x="420" y="-20" on="0"/>
        <pt x="343" y="-20" on="1"/>
        <pt x="274" y="-20" on="0"/>
        <pt x="162" y="24" on="0"/>
        <pt x="83" y="102" on="0"/>
        <pt x="40" y="210" on="0"/>
        <pt x="40" y="273" on="1"/>
        <pt x="40" y="350" on="0"/>
        <pt x="100" y="496" on="0"/>
        <pt x="205" y="610" on="0"/>
        <pt x="350" y="680" on="0"/>
        <pt x="436" y="680" on="1"/>
        <pt x="468" y="680" on="0"/>
        <pt x="551" y="670" on="0"/>
        <pt x="625" y="640" on="0"/>
        <pt x="676" y="586" on="0"/>
        <pt x="676" y="543" on="1"/>
        <pt x="676" y="522" on="0"/>
        <pt x="670" y="479" on="0"/>
        <pt x="666" y="460" on="1"/>
        <pt x="636" y="460" on="1"/>
        <pt x="633" y="552" on="0"/>
        <pt x="545" y="635" on="0"/>
        <pt x="458" y="635" on="1"/>
        <pt x="407" y="635" on="0"/>
        <pt x="326" y="599" on="0"/>
        <pt x="263" y="537" on="0"/>
        <pt x="218" y="455" on="0"/>
        <pt x="189" y="364" on="0"/>
        <pt x="175" y="270" on="0"/>
        <pt x="175" y="226" on="1"/>
        <pt x="175" y="168" on="0"/>
        <pt x="202" y="89" on="0"/>
        <pt x="248" y="41" on="0"/>
        <pt x="312" y="20" on="0"/>
        <pt x="350" y="20" on="1"/>
        <pt x="395" y="20" on="0"/>
        <pt x="462" y="34" on="0"/>
        <pt x="490" y="46" on="1"/>
        <pt x="521" y="224" on="1"/>
        <pt x="525" y="245" on="0"/>
        <pt x="545" y="288" on="0"/>
        <pt x="593" y="323" on="0"/>
        <pt x="673" y="346" on="0"/>
        <pt x="737" y="346" on="1"/>
        <pt x="732" y="321" on="1"/>
        <pt x="698" y="321" on="0"/>
        <pt x="659" y="271" on="0"/>
        <pt x="651" y="226" on="1"/>
      </contour>
    </TTGlyph>
    <TTGlyph name="Gbreve" xMin="40" yMin="-20" xMax="737" yMax="845">
      <component glyphName="G" x="0" y="0" flags="0x204"/>
      <component glyphName="breve" x="264" y="220" flags="0x4"/>
    </TTGlyph>
    <TTGlyph name="H" xMin="48" yMin="0" xMax="694" yMax="660">
      <contour>
        <pt x="564" y="660" on="1"/>
        <pt x="694" y="660" on="1"/>
        <pt x="600" y="130" on="1"/>
        <pt x="598" y="118" on="0"/>
        <pt x="596" y="97" on="0"/>
        <pt x="596" y="87" on="1"/>
        <pt x="596" y="61" on="0"/>
        <pt x="620" y="30" on="0"/>
        <pt x="653" y="30" on="1"/>
        <pt x="663" y="30" on="1"/>
        <pt x="658" y="0" on="1"/>
        <pt x="538" y="0" on="1"/>
        <pt x="498" y="0" on="0"/>
        <pt x="464" y="30" on="0"/>
        <pt x="464" y="69" on="1"/>
        <pt x="464" y="94" on="0"/>
        <pt x="470" y="130" on="1"/>
        <pt x="504" y="320" on="1"/>
        <pt x="234" y="320" on="1"/>
        <pt x="178" y="0" on="1"/>
        <pt x="48" y="0" on="1"/>
        <pt x="141" y="530" on="1"/>
        <pt x="146" y="558" on="0"/>
        <pt x="146" y="575" on="1"/>
        <pt x="146" y="601" on="0"/>
        <pt x="121" y="630" on="0"/>
        <pt x="89" y="630" on="1"/>
        <pt x="79" y="630" on="1"/>
        <pt x="84" y="660" on="1"/>
        <pt x="204" y="660" on="1"/>
        <pt x="243" y="660" on="0"/>
        <pt x="278" y="631" on="0"/>
        <pt x="278" y="593" on="1"/>
        <pt x="278" y="565" on="0"/>
        <pt x="271" y="530" on="1"/>
        <pt x="242" y="365" on="1"/>
        <pt x="512" y="365" on="1"/>
      </contour>
    </TTGlyph>
    <TTGlyph name="I" xMin="48" yMin="0" xMax="278" yMax="660">
      <contour>
        <pt x="148" y="660" on="1"/>
        <pt x="278" y="660" on="1"/>
        <pt x="184" y="130" on="1"/>
        <pt x="182" y="118" on="0"/>
        <pt x="180" y="97" on="0"/>
        <pt x="180" y="87" on="1"/>
        <pt x="180" y="61" on="0"/>
        <pt x="204" y="30" on="0"/>
        <pt x="237" y="30" on="1"/>
        <pt x="247" y="30" on="1"/>
        <pt x="242" y="0" on="1"/>
        <pt x="122" y="0" on="1"/>
        <pt x="82" y="0" on="0"/>
        <pt x="48" y="30" on="0"/>
        <pt x="48" y="69" on="1"/>
        <pt x="48" y="94" on="0"/>
        <pt x="54" y="130" on="1"/>
      </contour>
    </TTGlyph>
    <TTGlyph name="Iacute" xMin="48" yMin="0" xMax="374" yMax="840">
      <component glyphName="I" x="0" y="0" flags="0x204"/>
      <component glyphName="acute" x="95" y="0" flags="0x4"/>
    </TTGlyph>
    <TTGlyph name="Icircumflex" xMin="48" yMin="0" xMax="363" yMax="810">
      <component glyphName="I" x="0" y="0" flags="0x204"/>
      <component glyphName="circumflex" x="-13" y="25" flags="0x4"/>
    </TTGlyph>
    <TTGlyph name="Idieresis" xMin="48" yMin="0" xMax="374" yMax="827">
      <component glyphName="I" x="0" y="0" flags="0x204"/>
      <component glyphName="dieresis" x="10" y="25" flags="0x4"/>
    </TTGlyph>
    <TTGlyph name="Idotaccent" xMin="48" yMin="0" xMax="293" yMax="846">
      <contour>
        <pt x="278" y="660" on="1"/>
        <pt x="254" y="524" on="0"/>
        <pt x="220" y="334" on="0"/>
        <pt x="199" y="209" on="0"/>
        <pt x="187" y="138" on="0"/>
        <pt x="181" y="102" on="0"/>
        <pt x="180" y="90" on="0"/>
        <pt x="180" y="87" on="1"/>
        <pt x="180" y="61" on="0"/>
        <pt x="204" y="30" on="0"/>
        <pt x="237" y="30" on="1"/>
        <pt x="247" y="30" on="1"/>
        <pt x="242" y="0" on="1"/>
        <pt x="122" y="0" on="1"/>
        <pt x="82" y="0" on="0"/>
        <pt x="48" y="30" on="0"/>
        <pt x="48" y="69" on="1"/>
        <pt x="48" y="73" on="0"/>
        <pt x="49" y="87" on="0"/>
        <pt x="55" y="126" on="0"/>
        <pt x="67" y="200" on="0"/>
        <pt x="90" y="329" on="0"/>
        <pt x="123" y="521" on="0"/>
        <pt x="148" y="660" on="1"/>
      </contour>
      <contour>
        <pt x="293" y="786" on="1"/>
        <pt x="293" y="759" on="0"/>
        <pt x="258" y="714" on="0"/>
        <pt x="227" y="714" on="1"/>
        <pt x="195" y="714" on="0"/>
        <pt x="165" y="749" on="0"/>
        <pt x="165" y="774" on="1"/>
        <pt x="165" y="801" on="0"/>
        <pt x="200" y="846" on="0"/>
        <pt x="231" y="846" on="1"/>
        <pt x="263" y="846" on="0"/>
        <pt x="293" y="811" on="0"/>
      </contour>
    </TTGlyph>
    <TTGlyph name="Igrave" xMin="48" yMin="0" xMax="278" yMax="840">
      <component glyphName="I" x="0" y="0" flags="0x204"/>
      <component glyphName="grave.alt1" x="76" y="175" flags="0x4"/>
    </TTGlyph>
    <TTGlyph name="J" xMin="-90" yMin="-137" xMax="273" yMax="660">
      <contour>
        <pt x="171" y="83" on="1"/>
        <pt x="160" y="18" on="0"/>
        <pt x="126" y="-66" on="0"/>
        <pt x="67" y="-117" on="0"/>
        <pt x="-23" y="-137" on="0"/>
        <pt x="-90" y="-137" on="1"/>
        <pt x="-84" y="-107" on="1"/>
        <pt x="-62" y="-104" on="0"/>
        <pt x="-24" y="-84" on="0"/>
        <pt x="7" y="-41" on="0"/>
        <pt x="32" y="30" on="0"/>
        <pt x="41" y="83" on="1"/>
        <pt x="143" y="660" on="1"/>
        <pt x="273" y="660" on="1"/>
      </contour>
    </TTGlyph>
    <TTGlyph name="K" xMin="49" yMin="-10" xMax="715" yMax="660">
      <contour>
        <pt x="49" y="0" on="1"/>
        <pt x="73" y="137" on="0"/>
        <pt x="106" y="326" on="0"/>
        <pt x="127" y="452" on="0"/>
        <pt x="139" y="523" on="0"/>
        <pt x="145" y="560" on="0"/>
        <pt x="146" y="572" on="0"/>
        <pt x="146" y="575" on="1"/>
        <pt x="146" y="601" on="0"/>
        <pt x="121" y="630" on="0"/>
        <pt x="89" y="630" on="1"/>
        <pt x="79" y="630" on="1"/>
        <pt x="84" y="660" on="1"/>
        <pt x="204" y="660" on="1"/>
        <pt x="244" y="660" on="0"/>
        <pt x="279" y="630" on="0"/>
        <pt x="279" y="592" on="1"/>
        <pt x="279" y="586" on="0"/>
        <pt x="277" y="566" on="0"/>
        <pt x="269" y="515" on="0"/>
        <pt x="252" y="421" on="0"/>
        <pt x="238" y="340" on="1"/>
        <pt x="449" y="555" on="1"/>
        <pt x="469" y="576" on="0"/>
        <pt x="513" y="614" on="0"/>
        <pt x="561" y="643" on="0"/>
        <pt x="615" y="660" on="0"/>
        <pt x="645" y="660" on="1"/>
        <pt x="715" y="660" on="1"/>
        <pt x="709" y="625" on="1"/>
        <pt x="652" y="625" on="0"/>
        <pt x="555" y="596" on="0"/>
        <pt x="513" y="554" on="1"/>
        <pt x="332" y="370" on="1"/>
        <pt x="520" y="130" on="1"/>
        <pt x="536" y="109" on="0"/>
        <pt x="573" y="73" on="0"/>
        <pt x="611" y="44" on="0"/>
        <pt x="646" y="26" on="0"/>
        <pt x="661" y="24" on="1"/>
        <pt x="657" y="0" on="1"/>
        <pt x="645" y="-4" on="0"/>
        <pt x="605" y="-10" on="0"/>
        <pt x="582" y="-10" on="1"/>
        <pt x="554" y="-10" on="0"/>
        <pt x="499" y="-1" on="0"/>
        <pt x="444" y="26" on="0"/>
        <pt x="388" y="72" on="0"/>
        <pt x="359" y="110" on="1"/>
        <pt x="228" y="278" on="1"/>
        <pt x="179" y="0" on="1"/>
      </contour>
    </TTGlyph>
    <TTGlyph name="L" xMin="48" yMin="0" xMax="530" yMax="660">
      <contour>
        <pt x="530" y="45" on="1"/>
        <pt x="523" y="0" on="1"/>
        <pt x="48" y="0" on="1"/>
        <pt x="141" y="530" on="1"/>
        <pt x="146" y="558" on="0"/>
        <pt x="146" y="575" on="1"/>
        <pt x="146" y="601" on="0"/>
        <pt x="121" y="630" on="0"/>
        <pt x="89" y="630" on="1"/>
        <pt x="79" y="630" on="1"/>
        <pt x="84" y="660" on="1"/>
        <pt x="204" y="660" on="1"/>
        <pt x="243" y="660" on="0"/>
        <pt x="278" y="631" on="0"/>
        <pt x="278" y="593" on="1"/>
        <pt x="278" y="565" on="0"/>
        <pt x="271" y="530" on="1"/>
        <pt x="185" y="45" on="1"/>
      </contour>
    </TTGlyph>
    <TTGlyph name="M" xMin="26" yMin="-45" xMax="842" yMax="660">
      <contour>
        <pt x="755" y="170" on="1"/>
        <pt x="750" y="140" on="0"/>
        <pt x="744" y="90" on="0"/>
        <pt x="744" y="70" on="1"/>
        <pt x="744" y="-10" on="0"/>
        <pt x="795" y="-20" on="1"/>
        <pt x="791" y="-45" on="1"/>
        <pt x="700" y="-45" on="0"/>
        <pt x="618" y="25" on="0"/>
        <pt x="618" y="100" on="1"/>
        <pt x="618" y="116" on="0"/>
        <pt x="622" y="150" on="0"/>
        <pt x="625" y="170" on="1"/>
        <pt x="688" y="524" on="1"/>
        <pt x="377" y="0" on="1"/>
        <pt x="344" y="0" on="1"/>
        <pt x="171" y="544" on="1"/>
        <pt x="76" y="0" on="1"/>
        <pt x="26" y="0" on="1"/>
        <pt x="142" y="660" on="1"/>
        <pt x="264" y="660" on="1"/>
        <pt x="419" y="169" on="1"/>
        <pt x="711" y="660" on="1"/>
        <pt x="842" y="660" on="1"/>
      </contour>
    </TTGlyph>
    <TTGlyph name="N" xMin="51" yMin="-3" xMax="687" yMax="660">
      <contour>
        <pt x="556" y="200" on="1"/>
        <pt x="637" y="660" on="1"/>
        <pt x="687" y="660" on="1"/>
        <pt x="570" y="-3" on="1"/>
        <pt x="524" y="-3" on="1"/>
        <pt x="188" y="495" on="1"/>
        <pt x="101" y="0" on="1"/>
        <pt x="51" y="0" on="1"/>
        <pt x="75" y="137" on="0"/>
        <pt x="109" y="327" on="0"/>
        <pt x="130" y="451" on="0"/>
        <pt x="142" y="521" on="0"/>
        <pt x="148" y="555" on="0"/>
        <pt x="149" y="564" on="0"/>
        <pt x="149" y="566" on="1"/>
        <pt x="149" y="594" on="0"/>
        <pt x="115" y="630" on="0"/>
        <pt x="72" y="630" on="1"/>
        <pt x="67" y="630" on="1"/>
        <pt x="72" y="660" on="1"/>
        <pt x="142" y="660" on="1"/>
        <pt x="199" y="660" on="0"/>
        <pt x="264" y="630" on="0"/>
        <pt x="282" y="600" on="1"/>
      </contour>
    </TTGlyph>
    <TTGlyph name="Ntilde" xMin="51" yMin="-3" xMax="687" yMax="794">
      <component glyphName="N" x="0" y="0" flags="0x204"/>
      <component glyphName="tilde" x="222" y="14" flags="0x4"/>
    </TTGlyph>
    <TTGlyph name="O" xMin="40" yMin="-20" xMax="713" yMax="680">
      <contour>
        <pt x="323" y="25" on="1"/>
        <pt x="370" y="25" on="0"/>
        <pt x="444" y="65" on="0"/>
        <pt x="501" y="131" on="0"/>
        <pt x="541" y="216" on="0"/>
        <pt x="566" y="308" on="0"/>
        <pt x="578" y="399" on="0"/>
        <pt x="578" y="438" on="1"/>
        <pt x="578" y="533" on="0"/>
        <pt x="502" y="635" on="0"/>
        <pt x="430" y="635" on="1"/>
        <pt x="384" y="635" on="0"/>
        <pt x="310" y="595" on="0"/>
        <pt x="253" y="528" on="0"/>
        <pt x="213" y="442" on="0"/>
        <pt x="188" y="350" on="0"/>
        <pt x="176" y="259" on="0"/>
        <pt x="176" y="221" on="1"/>
        <pt x="176" y="127" on="0"/>
        <pt x="251" y="25" on="0"/>
      </contour>
      <contour>
        <pt x="40" y="256" on="1"/>
        <pt x="40" y="334" on="0"/>
        <pt x="98" y="486" on="0"/>
        <pt x="203" y="606" on="0"/>
        <pt x="350" y="680" on="0"/>
        <pt x="438" y="680" on="1"/>
        <pt x="503" y="680" on="0"/>
        <pt x="605" y="639" on="0"/>
        <pt x="676" y="566" on="0"/>
        <pt x="713" y="464" on="0"/>
        <pt x="713" y="404" on="1"/>
        <pt x="713" y="326" on="0"/>
        <pt x="655" y="174" on="0"/>
        <pt x="550" y="54" on="0"/>
        <pt x="403" y="-20" on="0"/>
        <pt x="315" y="-20" on="1"/>
        <pt x="250" y="-20" on="0"/>
        <pt x="148" y="21" on="0"/>
        <pt x="77" y="94" on="0"/>
        <pt x="40" y="196" on="0"/>
      </contour>
    </TTGlyph>
    <TTGlyph name="OE" xMin="40" yMin="-20" xMax="954" yMax="680">
      <contour>
        <pt x="40" y="256" on="1"/>
        <pt x="40" y="334" on="0"/>
        <pt x="98" y="486" on="0"/>
        <pt x="203" y="606" on="0"/>
        <pt x="350" y="680" on="0"/>
        <pt x="438" y="680" on="1"/>
        <pt x="480" y="680" on="0"/>
        <pt x="529" y="668" on="0"/>
        <pt x="550" y="660" on="1"/>
        <pt x="881" y="660" on="1"/>
        <pt x="924" y="660" on="0"/>
        <pt x="954" y="626" on="0"/>
        <pt x="954" y="602" on="1"/>
        <pt x="954" y="599" on="0"/>
        <pt x="953" y="591" on="0"/>
        <pt x="950" y="570" on="0"/>
        <pt x="943" y="529" on="0"/>
        <pt x="937" y="495" on="1"/>
        <pt x="907" y="495" on="1"/>
        <pt x="910" y="513" on="0"/>
        <pt x="910" y="528" on="1"/>
        <pt x="910" y="574" on="0"/>
        <pt x="855" y="615" on="0"/>
        <pt x="803" y="615" on="1"/>
        <pt x="642" y="615" on="1"/>
        <pt x="598" y="365" on="1"/>
        <pt x="858" y="365" on="1"/>
        <pt x="850" y="320" on="1"/>
        <pt x="590" y="320" on="1"/>
        <pt x="541" y="45" on="1"/>
        <pt x="712" y="45" on="1"/>
        <pt x="767" y="45" on="0"/>
        <pt x="853" y="94" on="0"/>
        <pt x="891" y="159" on="1"/>
        <pt x="916" y="149" on="1"/>
        <pt x="873" y="70" on="1"/>
        <pt x="856" y="38" on="0"/>
        <pt x="815" y="0" on="0"/>
        <pt x="774" y="0" on="1"/>
        <pt x="434" y="0" on="1"/>
        <pt x="406" y="-11" on="0"/>
        <pt x="349" y="-20" on="0"/>
        <pt x="315" y="-20" on="1"/>
        <pt x="250" y="-20" on="0"/>
        <pt x="148" y="21" on="0"/>
        <pt x="77" y="94" on="0"/>
        <pt x="40" y="196" on="0"/>
      </contour>
      <contour>
        <pt x="323" y="25" on="1"/>
        <pt x="369" y="25" on="0"/>
        <pt x="412" y="48" on="1"/>
        <pt x="511" y="611" on="1"/>
        <pt x="478" y="635" on="0"/>
        <pt x="430" y="635" on="1"/>
        <pt x="384" y="635" on="0"/>
        <pt x="310" y="595" on="0"/>
        <pt x="253" y="528" on="0"/>
        <pt x="213" y="442" on="0"/>
        <pt x="188" y="350" on="0"/>
        <pt x="176" y="259" on="0"/>
        <pt x="176" y="221" on="1"/>
        <pt x="176" y="127" on="0"/>
        <pt x="251" y="25" on="0"/>
      </contour>
    </TTGlyph>
    <TTGlyph name="Oacute" xMin="40" yMin="-20" xMax="713" yMax="864">
      <component glyphName="O" x="0" y="0" flags="0x204"/>
      <component glyphName="acute" x="324" y="24" flags="0x4"/>
    </TTGlyph>
    <TTGlyph name="Ocircumflex" xMin="40" yMin="-20" xMax="713" yMax="855">
      <component glyphName="O" x="0" y="0" flags="0x204"/>
      <component glyphName="circumflex" x="221" y="70" flags="0x4"/>
    </TTGlyph>
    <TTGlyph name="Odieresis" xMin="40" yMin="-20" xMax="713" yMax="847">
      <component glyphName="O" x="0" y="0" flags="0x204"/>
      <component glyphName="dieresis.alt1" x="250" y="200" flags="0x4"/>
    </TTGlyph>
    <TTGlyph name="Ograve" xMin="40" yMin="-20" xMax="713" yMax="864">
      <component glyphName="O" x="0" y="0" flags="0x204"/>
      <component glyphName="grave.alt1" x="296" y="199" flags="0x4"/>
    </TTGlyph>
    <TTGlyph name="Oslash" xMin="40" yMin="-20" xMax="712" yMax="680">
      <contour>
        <pt x="55" y="-20" on="1"/>
        <pt x="113" y="56" on="1"/>
        <pt x="77" y="92" on="0"/>
        <pt x="40" y="193" on="0"/>
        <pt x="40" y="254" on="1"/>
        <pt x="40" y="332" on="0"/>
        <pt x="98" y="485" on="0"/>
        <pt x="203" y="605" on="0"/>
        <pt x="349" y="680" on="0"/>
        <pt x="438" y="680" on="1"/>
        <pt x="516" y="680" on="0"/>
        <pt x="576" y="649" on="1"/>
        <pt x="599" y="680" on="1"/>
        <pt x="691" y="680" on="1"/>
        <pt x="635" y="607" on="1"/>
        <pt x="673" y="570" on="0"/>
        <pt x="712" y="466" on="0"/>
        <pt x="712" y="403" on="1"/>
        <pt x="712" y="325" on="0"/>
        <pt x="654" y="174" on="0"/>
        <pt x="549" y="54" on="0"/>
        <pt x="403" y="-20" on="0"/>
        <pt x="315" y="-20" on="1"/>
        <pt x="273" y="-20" on="0"/>
        <pt x="202" y="-3" on="0"/>
        <pt x="173" y="13" on="1"/>
        <pt x="147" y="-20" on="1"/>
      </contour>
      <contour>
        <pt x="323" y="25" on="1"/>
        <pt x="370" y="25" on="0"/>
        <pt x="444" y="65" on="0"/>
        <pt x="501" y="131" on="0"/>
        <pt x="541" y="217" on="0"/>
        <pt x="566" y="308" on="0"/>
        <pt x="578" y="399" on="0"/>
        <pt x="578" y="438" on="1"/>
        <pt x="578" y="486" on="0"/>
        <pt x="569" y="522" on="1"/>
        <pt x="217" y="70" on="1"/>
        <pt x="254" y="25" on="0"/>
      </contour>
      <contour>
        <pt x="430" y="635" on="1"/>
        <pt x="383" y="635" on="0"/>
        <pt x="309" y="595" on="0"/>
        <pt x="253" y="528" on="0"/>
        <pt x="213" y="441" on="0"/>
        <pt x="188" y="348" on="0"/>
        <pt x="176" y="256" on="0"/>
        <pt x="176" y="218" on="1"/>
        <pt x="176" y="198" on="0"/>
        <pt x="180" y="162" on="0"/>
        <pt x="183" y="145" on="1"/>
        <pt x="532" y="593" on="1"/>
        <pt x="493" y="635" on="0"/>
      </contour>
    </TTGlyph>
    <TTGlyph name="Otilde" xMin="40" yMin="-20" xMax="713" yMax="838">
      <component glyphName="O" x="0" y="0" flags="0x204"/>
      <component glyphName="tilde" x="242" y="58" flags="0x4"/>
    </TTGlyph>
    <TTGlyph name="P" xMin="48" yMin="0" xMax="598" yMax="660">
      <contour>
        <pt x="352" y="620" on="1"/>
        <pt x="340" y="620" on="0"/>
        <pt x="316" y="618" on="0"/>
        <pt x="307" y="616" on="1"/>
        <pt x="296" y="614" on="0"/>
        <pt x="286" y="613" on="1"/>
        <pt x="232" y="307" on="1"/>
        <pt x="292" y="307" on="1"/>
        <pt x="333" y="307" on="0"/>
        <pt x="395" y="341" on="0"/>
        <pt x="437" y="398" on="0"/>
        <pt x="459" y="472" on="0"/>
        <pt x="459" y="511" on="1"/>
        <pt x="459" y="542" on="0"/>
        <pt x="441" y="584" on="0"/>
        <pt x="411" y="610" on="0"/>
        <pt x="372" y="620" on="0"/>
      </contour>
      <contour>
        <pt x="359" y="660" on="1"/>
        <pt x="390" y="660" on="0"/>
        <pt x="473" y="650" on="0"/>
        <pt x="547" y="617" on="0"/>
        <pt x="598" y="554" on="0"/>
        <pt x="598" y="500" on="1"/>
        <pt x="598" y="444" on="0"/>
        <pt x="551" y="357" on="0"/>
        <pt x="473" y="298" on="0"/>
        <pt x="373" y="267" on="0"/>
        <pt x="320" y="267" on="1"/>
        <pt x="225" y="267" on="1"/>
        <pt x="178" y="0" on="1"/>
        <pt x="48" y="0" on="1"/>
        <pt x="72" y="137" on="0"/>
        <pt x="105" y="326" on="0"/>
        <pt x="127" y="452" on="0"/>
        <pt x="139" y="523" on="0"/>
        <pt x="145" y="560" on="0"/>
        <pt x="146" y="572" on="0"/>
        <pt x="146" y="575" on="1"/>
        <pt x="146" y="601" on="0"/>
        <pt x="121" y="630" on="0"/>
        <pt x="89" y="630" on="1"/>
        <pt x="79" y="630" on="1"/>
        <pt x="84" y="660" on="1"/>
      </contour>
    </TTGlyph>
    <TTGlyph name="Q" xMin="41" yMin="-205" xMax="714" yMax="680">
      <contour>
        <pt x="41" y="256" on="1"/>
        <pt x="41" y="334" on="0"/>
        <pt x="99" y="486" on="0"/>
        <pt x="204" y="606" on="0"/>
        <pt x="351" y="680" on="0"/>
        <pt x="439" y="680" on="1"/>
        <pt x="504" y="680" on="0"/>
        <pt x="606" y="639" on="0"/>
        <pt x="677" y="566" on="0"/>
        <pt x="714" y="464" on="0"/>
        <pt x="714" y="404" on="1"/>
        <pt x="714" y="336" on="0"/>
        <pt x="672" y="207" on="0"/>
        <pt x="594" y="98" on="0"/>
        <pt x="483" y="14" on="0"/>
        <pt x="413" y="-7" on="1"/>
        <pt x="419" y="-43" on="0"/>
        <pt x="460" y="-106" on="0"/>
        <pt x="516" y="-153" on="0"/>
        <pt x="582" y="-179" on="0"/>
        <pt x="613" y="-179" on="1"/>
        <pt x="608" y="-205" on="1"/>
        <pt x="551" y="-205" on="0"/>
        <pt x="440" y="-184" on="0"/>
        <pt x="340" y="-136" on="0"/>
        <pt x="251" y="-60" on="0"/>
        <pt x="215" y="-4" on="1"/>
        <pt x="173" y="9" on="0"/>
        <pt x="109" y="58" on="0"/>
        <pt x="64" y="126" on="0"/>
        <pt x="41" y="209" on="0"/>
      </contour>
      <contour>
        <pt x="324" y="25" on="1"/>
        <pt x="371" y="25" on="0"/>
        <pt x="445" y="65" on="0"/>
        <pt x="502" y="131" on="0"/>
        <pt x="542" y="216" on="0"/>
        <pt x="567" y="308" on="0"/>
        <pt x="579" y="399" on="0"/>
        <pt x="579" y="438" on="1"/>
        <pt x="579" y="533" on="0"/>
        <pt x="503" y="635" on="0"/>
        <pt x="431" y="635" on="1"/>
        <pt x="385" y="635" on="0"/>
        <pt x="311" y="595" on="0"/>
        <pt x="254" y="528" on="0"/>
        <pt x="214" y="442" on="0"/>
        <pt x="189" y="350" on="0"/>
        <pt x="177" y="259" on="0"/>
        <pt x="177" y="221" on="1"/>
        <pt x="177" y="127" on="0"/>
        <pt x="252" y="25" on="0"/>
      </contour>
    </TTGlyph>
    <TTGlyph name="R" xMin="48" yMin="-10" xMax="600" yMax="660">
      <contour>
        <pt x="353" y="620" on="1"/>
        <pt x="341" y="620" on="0"/>
        <pt x="317" y="618" on="0"/>
        <pt x="308" y="616" on="1"/>
        <pt x="297" y="614" on="0"/>
        <pt x="287" y="613" on="1"/>
        <pt x="239" y="342" on="1"/>
        <pt x="299" y="342" on="1"/>
        <pt x="334" y="342" on="0"/>
        <pt x="394" y="369" on="0"/>
        <pt x="437" y="416" on="0"/>
        <pt x="461" y="480" on="0"/>
        <pt x="461" y="516" on="1"/>
        <pt x="461" y="545" on="0"/>
        <pt x="442" y="585" on="0"/>
        <pt x="411" y="609" on="0"/>
        <pt x="372" y="620" on="0"/>
      </contour>
      <contour>
        <pt x="272" y="302" on="1"/>
        <pt x="232" y="302" on="1"/>
        <pt x="179" y="0" on="1"/>
        <pt x="48" y="0" on="1"/>
        <pt x="72" y="137" on="0"/>
        <pt x="105" y="326" on="0"/>
        <pt x="127" y="452" on="0"/>
        <pt x="139" y="523" on="0"/>
        <pt x="145" y="560" on="0"/>
        <pt x="146" y="572" on="0"/>
        <pt x="146" y="575" on="1"/>
        <pt x="146" y="601" on="0"/>
        <pt x="121" y="630" on="0"/>
        <pt x="89" y="630" on="1"/>
        <pt x="79" y="630" on="1"/>
        <pt x="84" y="660" on="1"/>
        <pt x="360" y="660" on="1"/>
        <pt x="393" y="660" on="0"/>
        <pt x="476" y="651" on="0"/>
        <pt x="550" y="619" on="0"/>
        <pt x="600" y="560" on="0"/>
        <pt x="600" y="511" on="1"/>
        <pt x="600" y="469" on="0"/>
        <pt x="569" y="403" on="0"/>
        <pt x="516" y="354" on="0"/>
        <pt x="445" y="320" on="0"/>
        <pt x="406" y="310" on="1"/>
        <pt x="480" y="135" on="1"/>
        <pt x="493" y="103" on="0"/>
        <pt x="522" y="62" on="0"/>
        <pt x="549" y="38" on="0"/>
        <pt x="574" y="27" on="0"/>
        <pt x="585" y="25" on="1"/>
        <pt x="581" y="0" on="1"/>
        <pt x="573" y="-4" on="0"/>
        <pt x="530" y="-10" on="0"/>
        <pt x="511" y="-10" on="1"/>
        <pt x="485" y="-10" on="0"/>
        <pt x="439" y="4" on="0"/>
        <pt x="397" y="38" on="0"/>
        <pt x="360" y="94" on="0"/>
        <pt x="342" y="135" on="1"/>
      </contour>
    </TTGlyph>
    <TTGlyph name="S" xMin="16" yMin="-17" xMax="549" yMax="678">
      <contour>
        <pt x="222" y="-17" on="1"/>
        <pt x="183" y="-17" on="0"/>
        <pt x="109" y="-2" on="0"/>
        <pt x="51" y="25" on="0"/>
        <pt x="16" y="65" on="0"/>
        <pt x="16" y="91" on="1"/>
        <pt x="16" y="92" on="0"/>
        <pt x="17" y="99" on="0"/>
        <pt x="21" y="124" on="0"/>
        <pt x="29" y="175" on="0"/>
        <pt x="37" y="220" on="1"/>
        <pt x="65" y="220" on="1"/>
        <pt x="65" y="213" on="1"/>
        <pt x="65" y="113" on="0"/>
        <pt x="145" y="28" on="0"/>
        <pt x="228" y="28" on="1"/>
        <pt x="253" y="28" on="0"/>
        <pt x="305" y="42" on="0"/>
        <pt x="347" y="70" on="0"/>
        <pt x="374" y="114" on="0"/>
        <pt x="374" y="144" on="1"/>
        <pt x="374" y="179" on="0"/>
        <pt x="329" y="228" on="0"/>
        <pt x="291" y="254" on="1"/>
        <pt x="181" y="328" on="1"/>
        <pt x="130" y="361" on="0"/>
        <pt x="86" y="430" on="0"/>
        <pt x="86" y="472" on="1"/>
        <pt x="86" y="521" on="0"/>
        <pt x="129" y="598" on="0"/>
        <pt x="201" y="651" on="0"/>
        <pt x="294" y="678" on="0"/>
        <pt x="343" y="678" on="1"/>
        <pt x="382" y="678" on="0"/>
        <pt x="456" y="663" on="0"/>
        <pt x="514" y="636" on="0"/>
        <pt x="549" y="595" on="0"/>
        <pt x="549" y="570" on="1"/>
        <pt x="549" y="568" on="0"/>
        <pt x="548" y="562" on="0"/>
        <pt x="544" y="537" on="0"/>
        <pt x="535" y="486" on="0"/>
        <pt x="527" y="441" on="1"/>
        <pt x="499" y="441" on="1"/>
        <pt x="499" y="452" on="1"/>
        <pt x="499" y="550" on="0"/>
        <pt x="420" y="633" on="0"/>
        <pt x="346" y="633" on="1"/>
        <pt x="322" y="633" on="0"/>
        <pt x="273" y="618" on="0"/>
        <pt x="234" y="589" on="0"/>
        <pt x="210" y="546" on="0"/>
        <pt x="210" y="518" on="1"/>
        <pt x="210" y="484" on="0"/>
        <pt x="256" y="440" on="0"/>
        <pt x="294" y="414" on="1"/>
        <pt x="405" y="341" on="1"/>
        <pt x="457" y="306" on="0"/>
        <pt x="508" y="241" on="0"/>
        <pt x="508" y="198" on="1"/>
        <pt x="508" y="144" on="0"/>
        <pt x="457" y="63" on="0"/>
        <pt x="376" y="10" on="0"/>
        <pt x="274" y="-17" on="0"/>
      </contour>
    </TTGlyph>
    <TTGlyph name="Scaron" xMin="16" yMin="-17" xMax="549" yMax="845">
      <component glyphName="S" x="0" y="0" flags="0x204"/>
      <component glyphName="caron" x="181" y="200" flags="0x4"/>
    </TTGlyph>
    <TTGlyph name="Scedilla" xMin="16" yMin="-206" xMax="549" yMax="678">
      <contour>
        <pt x="189" y="-15" on="1"/>
        <pt x="154" y="-12" on="0"/>
        <pt x="92" y="4" on="0"/>
        <pt x="44" y="31" on="0"/>
        <pt x="16" y="67" on="0"/>
        <pt x="16" y="90" on="1"/>
        <pt x="16" y="91" on="0"/>
        <pt x="17" y="98" on="0"/>
        <pt x="21" y="124" on="0"/>
        <pt x="29" y="175" on="0"/>
        <pt x="37" y="220" on="1"/>
        <pt x="65" y="220" on="1"/>
        <pt x="65" y="213" on="1"/>
        <pt x="65" y="113" on="0"/>
        <pt x="145" y="28" on="0"/>
        <pt x="228" y="28" on="1"/>
        <pt x="253" y="28" on="0"/>
        <pt x="305" y="42" on="0"/>
        <pt x="347" y="70" on="0"/>
        <pt x="374" y="114" on="0"/>
        <pt x="374" y="144" on="1"/>
        <pt x="374" y="179" on="0"/>
        <pt x="329" y="228" on="0"/>
        <pt x="291" y="254" on="1"/>
        <pt x="181" y="328" on="1"/>
        <pt x="130" y="361" on="0"/>
        <pt x="86" y="430" on="0"/>
        <pt x="86" y="472" on="1"/>
        <pt x="86" y="521" on="0"/>
        <pt x="129" y="598" on="0"/>
        <pt x="201" y="651" on="0"/>
        <pt x="294" y="678" on="0"/>
        <pt x="343" y="678" on="1"/>
        <pt x="382" y="678" on="0"/>
        <pt x="456" y="663" on="0"/>
        <pt x="514" y="636" on="0"/>
        <pt x="549" y="595" on="0"/>
        <pt x="549" y="570" on="1"/>
        <pt x="549" y="568" on="0"/>
        <pt x="548" y="562" on="0"/>
        <pt x="544" y="537" on="0"/>
        <pt x="535" y="486" on="0"/>
        <pt x="527" y="441" on="1"/>
        <pt x="499" y="441" on="1"/>
        <pt x="499" y="452" on="1"/>
        <pt x="499" y="550" on="0"/>
        <pt x="420" y="633" on="0"/>
        <pt x="346" y="633" on="1"/>
        <pt x="322" y="633" on="0"/>
        <pt x="273" y="618" on="0"/>
        <pt x="234" y="589" on="0"/>
        <pt x="210" y="546" on="0"/>
        <pt x="210" y="518" on="1"/>
        <pt x="210" y="484" on="0"/>
        <pt x="256" y="440" on="0"/>
        <pt x="294" y="414" on="1"/>
        <pt x="405" y="341" on="1"/>
        <pt x="457" y="306" on="0"/>
        <pt x="508" y="241" on="0"/>
        <pt x="508" y="198" on="1"/>
        <pt x="508" y="148" on="0"/>
        <pt x="465" y="72" on="0"/>
        <pt x="393" y="19" on="0"/>
        <pt x="302" y="-12" on="0"/>
        <pt x="254" y="-16" on="1"/>
        <pt x="248" y="-50" on="1"/>
        <pt x="285" y="-50" on="0"/>
        <pt x="325" y="-84" on="0"/>
        <pt x="325" y="-113" on="1"/>
        <pt x="325" y="-155" on="0"/>
        <pt x="263" y="-206" on="0"/>
        <pt x="220" y="-206" on="1"/>
        <pt x="150" y="-206" on="1"/>
        <pt x="158" y="-160" on="1"/>
        <pt x="208" y="-160" on="1"/>
        <pt x="227" y="-160" on="0"/>
        <pt x="252" y="-140" on="0"/>
        <pt x="254" y="-123" on="1"/>
        <pt x="254" y="-111" on="0"/>
        <pt x="237" y="-95" on="0"/>
        <pt x="220" y="-95" on="1"/>
        <pt x="175" y="-95" on="1"/>
      </contour>
    </TTGlyph>
    <TTGlyph name="T" xMin="53" yMin="0" xMax="637" yMax="660">
      <contour>
        <pt x="637" y="660" on="1"/>
        <pt x="629" y="615" on="1"/>
        <pt x="420" y="615" on="1"/>
        <pt x="312" y="0" on="1"/>
        <pt x="182" y="0" on="1"/>
        <pt x="290" y="615" on="1"/>
        <pt x="219" y="615" on="1"/>
        <pt x="166" y="615" on="0"/>
        <pt x="95" y="562" on="0"/>
        <pt x="83" y="495" on="1"/>
        <pt x="53" y="495" on="1"/>
        <pt x="68" y="580" on="1"/>
        <pt x="71" y="595" on="0"/>
        <pt x="83" y="624" on="0"/>
        <pt x="105" y="646" on="0"/>
        <pt x="141" y="660" on="0"/>
        <pt x="167" y="660" on="1"/>
      </contour>
    </TTGlyph>
    <TTGlyph name="Thorn" xMin="45" yMin="-30" xMax="550" yMax="690">
      <contour>
        <pt x="277" y="550" on="1"/>
        <pt x="550" y="544" on="0"/>
        <pt x="550" y="363" on="1"/>
        <pt x="550" y="288" on="0"/>
        <pt x="492" y="184" on="0"/>
        <pt x="395" y="117" on="0"/>
        <pt x="266" y="84" on="0"/>
        <pt x="195" y="80" on="1"/>
        <pt x="175" y="-30" on="1"/>
        <pt x="45" y="-30" on="1"/>
        <pt x="72" y="122" on="0"/>
        <pt x="109" y="332" on="0"/>
        <pt x="133" y="471" on="0"/>
        <pt x="146" y="550" on="0"/>
        <pt x="153" y="589" on="0"/>
        <pt x="154" y="602" on="0"/>
        <pt x="154" y="605" on="1"/>
        <pt x="154" y="631" on="0"/>
        <pt x="129" y="660" on="0"/>
        <pt x="97" y="660" on="1"/>
        <pt x="87" y="660" on="1"/>
        <pt x="92" y="690" on="1"/>
        <pt x="212" y="690" on="1"/>
        <pt x="251" y="690" on="0"/>
        <pt x="286" y="661" on="0"/>
        <pt x="286" y="623" on="1"/>
        <pt x="286" y="610" on="0"/>
        <pt x="282" y="576" on="0"/>
      </contour>
      <contour>
        <pt x="203" y="125" on="1"/>
        <pt x="251" y="129" on="0"/>
        <pt x="327" y="167" on="0"/>
        <pt x="381" y="230" on="0"/>
        <pt x="410" y="313" on="0"/>
        <pt x="410" y="363" on="1"/>
        <pt x="410" y="425" on="0"/>
        <pt x="342" y="499" on="0"/>
        <pt x="269" y="504" on="1"/>
      </contour>
    </TTGlyph>
    <TTGlyph name="U" xMin="86" yMin="-10" xMax="696" yMax="660">
      <contour>
        <pt x="268" y="530" on="1"/>
        <pt x="255" y="454" on="0"/>
        <pt x="237" y="346" on="0"/>
        <pt x="225" y="271" on="0"/>
        <pt x="217" y="224" on="0"/>
        <pt x="214" y="196" on="0"/>
        <pt x="213" y="180" on="0"/>
        <pt x="213" y="174" on="1"/>
        <pt x="213" y="105" on="0"/>
        <pt x="269" y="30" on="0"/>
        <pt x="332" y="30" on="1"/>
        <pt x="387" y="30" on="0"/>
        <pt x="470" y="61" on="0"/>
        <pt x="530" y="124" on="0"/>
        <pt x="568" y="221" on="0"/>
        <pt x="580" y="288" on="1"/>
        <pt x="646" y="660" on="1"/>
        <pt x="696" y="660" on="1"/>
        <pt x="630" y="288" on="1"/>
        <pt x="618" y="217" on="0"/>
        <pt x="572" y="107" on="0"/>
        <pt x="497" y="30" on="0"/>
        <pt x="388" y="-10" on="0"/>
        <pt x="313" y="-10" on="1"/>
        <pt x="195" y="-10" on="0"/>
        <pt x="86" y="92" on="0"/>
        <pt x="86" y="195" on="1"/>
        <pt x="86" y="205" on="0"/>
        <pt x="88" y="235" on="0"/>
        <pt x="99" y="304" on="0"/>
        <pt x="120" y="426" on="0"/>
        <pt x="138" y="530" on="1"/>
        <pt x="143" y="558" on="0"/>
        <pt x="143" y="575" on="1"/>
        <pt x="143" y="601" on="0"/>
        <pt x="118" y="630" on="0"/>
        <pt x="86" y="630" on="1"/>
        <pt x="91" y="660" on="1"/>
        <pt x="201" y="660" on="1"/>
        <pt x="240" y="660" on="0"/>
        <pt x="275" y="631" on="0"/>
        <pt x="275" y="593" on="1"/>
        <pt x="275" y="565" on="0"/>
      </contour>
    </TTGlyph>
    <TTGlyph name="Uacute" xMin="86" yMin="-10" xMax="696" yMax="821">
      <component glyphName="U" x="0" y="0" flags="0x204"/>
      <component glyphName="acute" x="316" y="-19" flags="0x4"/>
    </TTGlyph>
    <TTGlyph name="Ucircumflex" xMin="86" yMin="-10" xMax="696" yMax="806">
      <component glyphName="U" x="0" y="0" flags="0x204"/>
      <component glyphName="circumflex" x="229" y="21" flags="0x4"/>
    </TTGlyph>
    <TTGlyph name="Udieresis" xMin="86" yMin="-10" xMax="696" yMax="792">
      <component glyphName="U" x="0" y="0" flags="0x204"/>
      <component glyphName="dieresis.alt1" x="255" y="145" flags="0x4"/>
    </TTGlyph>
    <TTGlyph name="Ugrave" xMin="86" yMin="-10" xMax="696" yMax="820">
      <component glyphName="U" x="0" y="0" flags="0x204"/>
      <component glyphName="grave.alt1" x="313" y="155" flags="0x4"/>
    </TTGlyph>
    <TTGlyph name="V" xMin="29" yMin="-10" xMax="691" yMax="670">
      <contour>
        <pt x="109" y="543" on="1"/>
        <pt x="95" y="599" on="0"/>
        <pt x="58" y="644" on="0"/>
        <pt x="29" y="648" on="1"/>
        <pt x="32" y="668" on="1"/>
        <pt x="36" y="668" on="0"/>
        <pt x="68" y="670" on="0"/>
        <pt x="75" y="670" on="1"/>
        <pt x="101" y="670" on="0"/>
        <pt x="154" y="662" on="0"/>
        <pt x="202" y="636" on="0"/>
        <pt x="239" y="586" on="0"/>
        <pt x="250" y="543" on="1"/>
        <pt x="342" y="169" on="1"/>
        <pt x="640" y="660" on="1"/>
        <pt x="691" y="660" on="1"/>
        <pt x="285" y="-10" on="1"/>
        <pt x="245" y="-10" on="1"/>
      </contour>
    </TTGlyph>
    <TTGlyph name="W" xMin="23" yMin="-9" xMax="948" yMax="670">
      <contour>
        <pt x="644" y="179" on="1"/>
        <pt x="900" y="660" on="1"/>
        <pt x="948" y="660" on="1"/>
        <pt x="593" y="-9" on="1"/>
        <pt x="553" y="-9" on="1"/>
        <pt x="468" y="383" on="1"/>
        <pt x="262" y="-9" on="1"/>
        <pt x="222" y="-9" on="1"/>
        <pt x="103" y="543" on="1"/>
        <pt x="91" y="600" on="0"/>
        <pt x="52" y="644" on="0"/>
        <pt x="23" y="648" on="1"/>
        <pt x="26" y="668" on="1"/>
        <pt x="30" y="668" on="0"/>
        <pt x="62" y="670" on="0"/>
        <pt x="69" y="670" on="1"/>
        <pt x="95" y="670" on="0"/>
        <pt x="149" y="663" on="0"/>
        <pt x="197" y="637" on="0"/>
        <pt x="235" y="586" on="0"/>
        <pt x="244" y="543" on="1"/>
        <pt x="318" y="198" on="1"/>
        <pt x="454" y="454" on="1"/>
        <pt x="434" y="543" on="1"/>
        <pt x="422" y="600" on="0"/>
        <pt x="376" y="644" on="0"/>
        <pt x="347" y="648" on="1"/>
        <pt x="350" y="668" on="1"/>
        <pt x="354" y="668" on="0"/>
        <pt x="383" y="670" on="0"/>
        <pt x="390" y="670" on="1"/>
        <pt x="416" y="670" on="0"/>
        <pt x="471" y="663" on="0"/>
        <pt x="519" y="637" on="0"/>
        <pt x="556" y="586" on="0"/>
        <pt x="565" y="543" on="1"/>
      </contour>
    </TTGlyph>
    <TTGlyph name="X" xMin="-32" yMin="0" xMax="672" yMax="660">
      <contour>
        <pt x="371" y="416" on="1"/>
        <pt x="607" y="660" on="1"/>
        <pt x="672" y="660" on="1"/>
        <pt x="392" y="371" on="1"/>
        <pt x="506" y="130" on="1"/>
        <pt x="515" y="111" on="0"/>
        <pt x="541" y="73" on="0"/>
        <pt x="571" y="42" on="0"/>
        <pt x="604" y="22" on="0"/>
        <pt x="621" y="20" on="1"/>
        <pt x="618" y="0" on="1"/>
        <pt x="508" y="0" on="1"/>
        <pt x="480" y="0" on="0"/>
        <pt x="435" y="20" on="0"/>
        <pt x="399" y="52" on="0"/>
        <pt x="373" y="91" on="0"/>
        <pt x="364" y="110" on="1"/>
        <pt x="290" y="266" on="1"/>
        <pt x="33" y="0" on="1"/>
        <pt x="-32" y="0" on="1"/>
        <pt x="268" y="311" on="1"/>
        <pt x="165" y="530" on="1"/>
        <pt x="156" y="549" on="0"/>
        <pt x="130" y="587" on="0"/>
        <pt x="100" y="618" on="0"/>
        <pt x="66" y="638" on="0"/>
        <pt x="50" y="640" on="1"/>
        <pt x="54" y="660" on="1"/>
        <pt x="164" y="660" on="1"/>
        <pt x="192" y="660" on="0"/>
        <pt x="237" y="640" on="0"/>
        <pt x="272" y="608" on="0"/>
        <pt x="298" y="569" on="0"/>
        <pt x="307" y="550" on="1"/>
      </contour>
    </TTGlyph>
    <TTGlyph name="Y" xMin="29" yMin="0" xMax="700" yMax="660">
      <contour>
        <pt x="385" y="345" on="1"/>
        <pt x="635" y="660" on="1"/>
        <pt x="700" y="660" on="1"/>
        <pt x="408" y="291" on="1"/>
        <pt x="357" y="0" on="1"/>
        <pt x="227" y="0" on="1"/>
        <pt x="273" y="264" on="1"/>
        <pt x="143" y="530" on="1"/>
        <pt x="134" y="549" on="0"/>
        <pt x="108" y="587" on="0"/>
        <pt x="78" y="618" on="0"/>
        <pt x="45" y="638" on="0"/>
        <pt x="29" y="640" on="1"/>
        <pt x="33" y="660" on="1"/>
        <pt x="142" y="660" on="1"/>
        <pt x="170" y="660" on="0"/>
        <pt x="215" y="640" on="0"/>
        <pt x="250" y="608" on="0"/>
        <pt x="276" y="569" on="0"/>
        <pt x="285" y="550" on="1"/>
      </contour>
    </TTGlyph>
    <TTGlyph name="Yacute" xMin="29" yMin="0" xMax="700" yMax="811">
      <component glyphName="Y" x="0" y="0" flags="0x204"/>
      <component glyphName="acute" x="290" y="-29" flags="0x4"/>
    </TTGlyph>
    <TTGlyph name="Ydieresis" xMin="29" yMin="0" xMax="700" yMax="802">
      <component glyphName="Y" x="0" y="0" flags="0x204"/>
      <component glyphName="dieresis" x="214" y="0" flags="0x4"/>
    </TTGlyph>
    <TTGlyph name="Z" xMin="-17" yMin="0" xMax="649" yMax="660">
      <contour>
        <pt x="649" y="660" on="1"/>
        <pt x="148" y="45" on="1"/>
        <pt x="535" y="45" on="1"/>
        <pt x="528" y="0" on="1"/>
        <pt x="-17" y="0" on="1"/>
        <pt x="-12" y="32" on="1"/>
        <pt x="463" y="616" on="1"/>
        <pt x="246" y="616" on="1"/>
        <pt x="193" y="616" on="0"/>
        <pt x="122" y="563" on="0"/>
        <pt x="110" y="495" on="1"/>
        <pt x="80" y="495" on="1"/>
        <pt x="95" y="580" on="1"/>
        <pt x="98" y="595" on="0"/>
        <pt x="110" y="624" on="0"/>
        <pt x="132" y="646" on="0"/>
        <pt x="168" y="660" on="0"/>
        <pt x="194" y="660" on="1"/>
      </contour>
    </TTGlyph>
    <TTGlyph name="Zcaron" xMin="-17" yMin="0" xMax="649" yMax="835">
      <component glyphName="Z" x="0" y="0" flags="0x204"/>
      <component glyphName="caron" x="227" y="190" flags="0x4"/>
    </TTGlyph>
    <TTGlyph name="a" xMin="24" yMin="-10" xMax="522" yMax="480">
      <contour>
        <pt x="296" y="435" on="1"/>
        <pt x="270" y="435" on="0"/>
        <pt x="229" y="403" on="0"/>
        <pt x="198" y="353" on="0"/>
        <pt x="176" y="289" on="0"/>
        <pt x="162" y="224" on="0"/>
        <pt x="156" y="165" on="0"/>
        <pt x="156" y="144" on="1"/>
        <pt x="156" y="96" on="0"/>
        <pt x="188" y="35" on="0"/>
        <pt x="226" y="35" on="1"/>
        <pt x="249" y="35" on="0"/>
        <pt x="285" y="55" on="0"/>
        <pt x="299" y="67" on="1"/>
        <pt x="315" y="81" on="0"/>
        <pt x="327" y="100" on="1"/>
        <pt x="375" y="370" on="1"/>
        <pt x="369" y="388" on="0"/>
        <pt x="358" y="402" on="1"/>
        <pt x="349" y="414" on="0"/>
        <pt x="319" y="435" on="0"/>
      </contour>
      <contour>
        <pt x="284" y="480" on="1"/>
        <pt x="314" y="480" on="0"/>
        <pt x="354" y="463" on="0"/>
        <pt x="366" y="452" on="1"/>
        <pt x="380" y="440" on="0"/>
        <pt x="389" y="425" on="1"/>
        <pt x="394" y="425" on="1"/>
        <pt x="437" y="470" on="1"/>
        <pt x="522" y="470" on="1"/>
        <pt x="457" y="100" on="1"/>
        <pt x="440" y="0" on="1"/>
        <pt x="355" y="0" on="1"/>
        <pt x="327" y="45" on="1"/>
        <pt x="322" y="45" on="1"/>
        <pt x="308" y="29" on="0"/>
        <pt x="290" y="17" on="1"/>
        <pt x="274" y="6" on="0"/>
        <pt x="228" y="-10" on="0"/>
        <pt x="198" y="-10" on="1"/>
        <pt x="153" y="-10" on="0"/>
        <pt x="88" y="18" on="0"/>
        <pt x="45" y="66" on="0"/>
        <pt x="24" y="132" on="0"/>
        <pt x="24" y="170" on="1"/>
        <pt x="24" y="222" on="0"/>
        <pt x="59" y="332" on="0"/>
        <pt x="125" y="422" on="0"/>
        <pt x="222" y="480" on="0"/>
      </contour>
    </TTGlyph>
    <TTGlyph name="aacute" xMin="24" yMin="-10" xMax="522" yMax="666">
      <component glyphName="a" x="0" y="0" flags="0x204"/>
      <component glyphName="acute" x="197" y="-174" flags="0x4"/>
    </TTGlyph>
    <TTGlyph name="acircumflex" xMin="24" yMin="-10" xMax="522" yMax="656">
      <component glyphName="a" x="0" y="0" flags="0x204"/>
      <component glyphName="circumflex" x="88" y="-129" flags="0x4"/>
    </TTGlyph>
    <TTGlyph name="acute" xMin="93" yMin="700" xMax="279" yMax="840">
      <contour>
        <pt x="148" y="700" on="1"/>
        <pt x="93" y="700" on="1"/>
        <pt x="160" y="840" on="1"/>
        <pt x="279" y="840" on="1"/>
      </contour>
    </TTGlyph>
    <TTGlyph name="acute.alt1" xMin="93" yMin="700" xMax="279" yMax="840">
      <contour>
        <pt x="148" y="700" on="1"/>
        <pt x="93" y="700" on="1"/>
        <pt x="160" y="840" on="1"/>
        <pt x="279" y="840" on="1"/>
      </contour>
    </TTGlyph>
    <TTGlyph name="adieresis" xMin="24" yMin="-10" xMax="522" yMax="647">
      <component glyphName="a" x="0" y="0" flags="0x204"/>
      <component glyphName="dieresis.alt1" x="121" y="0" flags="0x4"/>
    </TTGlyph>
    <TTGlyph name="ae" xMin="0" yMin="-10" xMax="771" yMax="480">
      <contour>
        <pt x="560" y="255" on="1"/>
        <pt x="600" y="255" on="0"/>
        <pt x="641" y="315" on="0"/>
        <pt x="641" y="357" on="1"/>
        <pt x="641" y="396" on="0"/>
        <pt x="605" y="435" on="0"/>
        <pt x="582" y="435" on="1"/>
        <pt x="563" y="435" on="0"/>
        <pt x="525" y="415" on="0"/>
        <pt x="491" y="372" on="0"/>
        <pt x="464" y="304" on="0"/>
        <pt x="455" y="255" on="1"/>
      </contour>
      <contour>
        <pt x="309" y="217" on="1"/>
        <pt x="294" y="217" on="1"/>
        <pt x="264" y="217" on="0"/>
        <pt x="207" y="208" on="0"/>
        <pt x="162" y="182" on="0"/>
        <pt x="135" y="136" on="0"/>
        <pt x="135" y="100" on="1"/>
        <pt x="135" y="74" on="0"/>
        <pt x="162" y="40" on="0"/>
        <pt x="188" y="40" on="1"/>
        <pt x="212" y="40" on="0"/>
        <pt x="250" y="60" on="0"/>
        <pt x="263" y="72" on="1"/>
        <pt x="278" y="86" on="0"/>
        <pt x="289" y="105" on="1"/>
      </contour>
      <contour>
        <pt x="448" y="210" on="1"/>
        <pt x="447" y="207" on="1"/>
        <pt x="441" y="172" on="0"/>
        <pt x="441" y="145" on="1"/>
        <pt x="441" y="86" on="0"/>
        <pt x="488" y="35" on="0"/>
        <pt x="527" y="35" on="1"/>
        <pt x="579" y="35" on="0"/>
        <pt x="652" y="83" on="0"/>
        <pt x="684" y="118" on="1"/>
        <pt x="711" y="95" on="1"/>
        <pt x="697" y="78" on="0"/>
        <pt x="660" y="41" on="0"/>
        <pt x="610" y="10" on="0"/>
        <pt x="545" y="-10" on="0"/>
        <pt x="504" y="-10" on="1"/>
        <pt x="393" y="-10" on="0"/>
        <pt x="350" y="80" on="1"/>
        <pt x="338" y="63" on="0"/>
        <pt x="302" y="31" on="0"/>
        <pt x="254" y="5" on="0"/>
        <pt x="195" y="-10" on="0"/>
        <pt x="159" y="-10" on="1"/>
        <pt x="78" y="-10" on="0"/>
        <pt x="0" y="49" on="0"/>
        <pt x="0" y="97" on="1"/>
        <pt x="0" y="151" on="0"/>
        <pt x="59" y="216" on="0"/>
        <pt x="149" y="251" on="0"/>
        <pt x="255" y="262" on="0"/>
        <pt x="302" y="262" on="1"/>
        <pt x="317" y="262" on="1"/>
        <pt x="324" y="300" on="0"/>
        <pt x="324" y="334" on="1"/>
        <pt x="324" y="387" on="0"/>
        <pt x="285" y="435" on="0"/>
        <pt x="247" y="435" on="1"/>
        <pt x="230" y="435" on="0"/>
        <pt x="198" y="428" on="0"/>
        <pt x="168" y="408" on="0"/>
        <pt x="142" y="373" on="0"/>
        <pt x="131" y="345" on="1"/>
        <pt x="76" y="345" on="1"/>
        <pt x="81" y="371" on="0"/>
        <pt x="97" y="425" on="0"/>
        <pt x="119" y="445" on="1"/>
        <pt x="130" y="455" on="0"/>
        <pt x="162" y="468" on="0"/>
        <pt x="200" y="476" on="0"/>
        <pt x="238" y="480" on="0"/>
        <pt x="255" y="480" on="1"/>
        <pt x="319" y="480" on="0"/>
        <pt x="399" y="431" on="0"/>
        <pt x="414" y="389" on="1"/>
        <pt x="451" y="435" on="0"/>
        <pt x="542" y="480" on="0"/>
        <pt x="590" y="480" on="1"/>
        <pt x="678" y="480" on="0"/>
        <pt x="771" y="413" on="0"/>
        <pt x="771" y="356" on="1"/>
        <pt x="771" y="311" on="0"/>
        <pt x="734" y="255" on="0"/>
        <pt x="673" y="222" on="0"/>
        <pt x="595" y="210" on="0"/>
        <pt x="553" y="210" on="1"/>
      </contour>
    </TTGlyph>
    <TTGlyph name="afii10017" xMin="-37" yMin="-4" xMax="635" yMax="660">
      <component glyphName="A" x="0" y="0" flags="0x200"/>
    </TTGlyph>
    <TTGlyph name="afii10018" xMin="48" yMin="0" xMax="599" yMax="660">
      <contour>
        <pt x="48" y="0" on="1"/>
        <pt x="72" y="136" on="0"/>
        <pt x="105" y="326" on="0"/>
        <pt x="127" y="452" on="0"/>
        <pt x="139" y="523" on="0"/>
        <pt x="145" y="560" on="0"/>
        <pt x="146" y="572" on="0"/>
        <pt x="146" y="575" on="1"/>
        <pt x="146" y="601" on="0"/>
        <pt x="121" y="630" on="0"/>
        <pt x="89" y="630" on="1"/>
        <pt x="79" y="630" on="1"/>
        <pt x="84" y="660" on="1"/>
        <pt x="523" y="660" on="1"/>
        <pt x="566" y="660" on="0"/>
        <pt x="596" y="625" on="0"/>
        <pt x="596" y="601" on="1"/>
        <pt x="596" y="598" on="0"/>
        <pt x="595" y="590" on="0"/>
        <pt x="592" y="569" on="0"/>
        <pt x="585" y="529" on="0"/>
        <pt x="579" y="495" on="1"/>
        <pt x="549" y="495" on="1"/>
        <pt x="552" y="513" on="0"/>
        <pt x="552" y="528" on="1"/>
        <pt x="552" y="575" on="0"/>
        <pt x="497" y="615" on="0"/>
        <pt x="445" y="615" on="1"/>
        <pt x="286" y="615" on="1"/>
        <pt x="245" y="380" on="1"/>
        <pt x="335" y="380" on="1"/>
        <pt x="384" y="380" on="0"/>
        <pt x="479" y="368" on="0"/>
        <pt x="554" y="335" on="0"/>
        <pt x="599" y="276" on="0"/>
        <pt x="599" y="228" on="1"/>
        <pt x="599" y="156" on="0"/>
        <pt x="537" y="66" on="0"/>
        <pt x="441" y="17" on="0"/>
        <pt x="323" y="0" on="0"/>
        <pt x="268" y="0" on="1"/>
        <pt x="176" y="0" on="1"/>
      </contour>
      <contour>
        <pt x="307" y="340" on="1"/>
        <pt x="292" y="340" on="0"/>
        <pt x="266" y="337" on="0"/>
        <pt x="256" y="335" on="1"/>
        <pt x="245" y="332" on="0"/>
        <pt x="236" y="330" on="1"/>
        <pt x="186" y="50" on="1"/>
        <pt x="194" y="47" on="0"/>
        <pt x="205" y="45" on="1"/>
        <pt x="225" y="40" on="0"/>
        <pt x="255" y="40" on="1"/>
        <pt x="260" y="40" on="1"/>
        <pt x="356" y="40" on="0"/>
        <pt x="460" y="131" on="0"/>
        <pt x="460" y="233" on="1"/>
        <pt x="460" y="289" on="0"/>
        <pt x="388" y="340" on="0"/>
        <pt x="312" y="340" on="1"/>
      </contour>
    </TTGlyph>
    <TTGlyph name="afii10019" xMin="48" yMin="0" xMax="621" yMax="660">
      <component glyphName="B" x="0" y="0" flags="0x200"/>
    </TTGlyph>
    <TTGlyph name="afii10020" xMin="48" yMin="0" xMax="586" yMax="660">
      <contour>
        <pt x="513" y="660" on="1"/>
        <pt x="556" y="660" on="0"/>
        <pt x="586" y="625" on="0"/>
        <pt x="586" y="601" on="1"/>
        <pt x="586" y="598" on="0"/>
        <pt x="585" y="590" on="0"/>
        <pt x="582" y="569" on="0"/>
        <pt x="575" y="529" on="0"/>
        <pt x="569" y="495" on="1"/>
        <pt x="539" y="495" on="1"/>
        <pt x="542" y="513" on="0"/>
        <pt x="542" y="528" on="1"/>
        <pt x="542" y="575" on="0"/>
        <pt x="487" y="615" on="0"/>
        <pt x="435" y="615" on="1"/>
        <pt x="286" y="615" on="1"/>
        <pt x="178" y="0" on="1"/>
        <pt x="48" y="0" on="1"/>
        <pt x="72" y="136" on="0"/>
        <pt x="105" y="326" on="0"/>
        <pt x="127" y="452" on="0"/>
        <pt x="139" y="523" on="0"/>
        <pt x="145" y="560" on="0"/>
        <pt x="146" y="572" on="0"/>
        <pt x="146" y="575" on="1"/>
        <pt x="146" y="601" on="0"/>
        <pt x="121" y="630" on="0"/>
        <pt x="89" y="630" on="1"/>
        <pt x="79" y="630" on="1"/>
        <pt x="84" y="660" on="1"/>
      </contour>
    </TTGlyph>
    <TTGlyph name="afii10021" xMin="-80" yMin="-184" xMax="672" yMax="660">
      <contour>
        <pt x="433" y="45" on="1"/>
        <pt x="534" y="615" on="1"/>
        <pt x="314" y="615" on="1"/>
        <pt x="296" y="513" on="0"/>
        <pt x="259" y="348" on="0"/>
        <pt x="215" y="211" on="0"/>
        <pt x="164" y="96" on="0"/>
        <pt x="133" y="45" on="1"/>
      </contour>
      <contour>
        <pt x="29" y="45" on="1"/>
        <pt x="97" y="151" on="0"/>
        <pt x="176" y="394" on="0"/>
        <pt x="200" y="530" on="1"/>
        <pt x="202" y="542" on="0"/>
        <pt x="205" y="565" on="0"/>
        <pt x="205" y="575" on="1"/>
        <pt x="205" y="601" on="0"/>
        <pt x="180" y="630" on="0"/>
        <pt x="148" y="630" on="1"/>
        <pt x="138" y="630" on="1"/>
        <pt x="143" y="660" on="1"/>
        <pt x="672" y="660" on="1"/>
        <pt x="563" y="45" on="1"/>
        <pt x="598" y="45" on="1"/>
        <pt x="611" y="45" on="0"/>
        <pt x="628" y="29" on="0"/>
        <pt x="628" y="17" on="1"/>
        <pt x="628" y="16" on="0"/>
        <pt x="627" y="8" on="0"/>
        <pt x="620" y="-30" on="0"/>
        <pt x="606" y="-111" on="0"/>
        <pt x="593" y="-184" on="1"/>
        <pt x="543" y="-184" on="1"/>
        <pt x="544" y="-170" on="0"/>
        <pt x="545" y="-145" on="0"/>
        <pt x="545" y="-133" on="1"/>
        <pt x="545" y="-94" on="0"/>
        <pt x="533" y="-43" on="0"/>
        <pt x="509" y="-13" on="0"/>
        <pt x="474" y="0" on="0"/>
        <pt x="451" y="0" on="1"/>
        <pt x="127" y="0" on="1"/>
        <pt x="100" y="0" on="0"/>
        <pt x="56" y="-17" on="0"/>
        <pt x="18" y="-59" on="0"/>
        <pt x="-16" y="-130" on="0"/>
        <pt x="-31" y="-184" on="1"/>
        <pt x="-80" y="-184" on="1"/>
        <pt x="-46" y="10" on="1"/>
        <pt x="-44" y="25" on="0"/>
        <pt x="-21" y="45" on="0"/>
        <pt x="-6" y="45" on="1"/>
      </contour>
    </TTGlyph>
    <TTGlyph name="afii10022" xMin="48" yMin="0" xMax="598" yMax="660">
      <component glyphName="E" x="0" y="0" flags="0x200"/>
    </TTGlyph>
    <TTGlyph name="afii10023" xMin="48" yMin="0" xMax="598" yMax="842">
      <component glyphName="E" x="0" y="0" flags="0x204"/>
      <component glyphName="dieresis.alt1" x="185" y="195" flags="0x4"/>
    </TTGlyph>
    <TTGlyph name="afii10024" xMin="-58" yMin="-10" xMax="1028" yMax="660">
      <contour>
        <pt x="497" y="660" on="1"/>
        <pt x="628" y="660" on="1"/>
        <pt x="571" y="340" on="1"/>
        <pt x="772" y="555" on="1"/>
        <pt x="812" y="597" on="0"/>
        <pt x="908" y="660" on="0"/>
        <pt x="968" y="660" on="1"/>
        <pt x="1028" y="660" on="1"/>
        <pt x="1022" y="625" on="1"/>
        <pt x="990" y="625" on="0"/>
        <pt x="938" y="619" on="0"/>
        <pt x="895" y="603" on="0"/>
        <pt x="856" y="575" on="0"/>
        <pt x="836" y="554" on="1"/>
        <pt x="665" y="370" on="1"/>
        <pt x="823" y="130" on="1"/>
        <pt x="852" y="85" on="0"/>
        <pt x="926" y="29" on="0"/>
        <pt x="955" y="24" on="1"/>
        <pt x="951" y="0" on="1"/>
        <pt x="939" y="-4" on="0"/>
        <pt x="907" y="-10" on="0"/>
        <pt x="885" y="-10" on="1"/>
        <pt x="853" y="-10" on="0"/>
        <pt x="794" y="0" on="0"/>
        <pt x="740" y="28" on="0"/>
        <pt x="689" y="79" on="0"/>
        <pt x="664" y="120" on="1"/>
        <pt x="562" y="285" on="1"/>
        <pt x="512" y="0" on="1"/>
        <pt x="381" y="0" on="1"/>
        <pt x="431" y="285" on="1"/>
        <pt x="271" y="120" on="1"/>
        <pt x="231" y="79" on="0"/>
        <pt x="162" y="28" on="0"/>
        <pt x="97" y="0" on="0"/>
        <pt x="36" y="-10" on="0"/>
        <pt x="4" y="-10" on="1"/>
        <pt x="-18" y="-10" on="0"/>
        <pt x="-47" y="-4" on="0"/>
        <pt x="-58" y="0" on="1"/>
        <pt x="-53" y="24" on="1"/>
        <pt x="-23" y="29" on="0"/>
        <pt x="69" y="86" on="0"/>
        <pt x="114" y="130" on="1"/>
        <pt x="358" y="370" on="1"/>
        <pt x="251" y="554" on="1"/>
        <pt x="239" y="575" on="0"/>
        <pt x="210" y="602" on="0"/>
        <pt x="172" y="619" on="0"/>
        <pt x="123" y="625" on="0"/>
        <pt x="91" y="625" on="1"/>
        <pt x="97" y="660" on="1"/>
        <pt x="157" y="660" on="1"/>
        <pt x="187" y="660" on="0"/>
        <pt x="235" y="643" on="0"/>
        <pt x="273" y="614" on="0"/>
        <pt x="303" y="576" on="0"/>
        <pt x="315" y="555" on="1"/>
        <pt x="440" y="340" on="1"/>
      </contour>
    </TTGlyph>
    <TTGlyph name="afii10025" xMin="-11" yMin="-20" xMax="566" yMax="680">
      <contour>
        <pt x="167" y="360" on="1"/>
        <pt x="252" y="360" on="1"/>
        <pt x="280" y="360" on="0"/>
        <pt x="342" y="380" on="0"/>
        <pt x="395" y="422" on="0"/>
        <pt x="429" y="485" on="0"/>
        <pt x="429" y="527" on="1"/>
        <pt x="429" y="555" on="0"/>
        <pt x="409" y="596" on="0"/>
        <pt x="378" y="623" on="0"/>
        <pt x="339" y="635" on="0"/>
        <pt x="321" y="635" on="1"/>
        <pt x="253" y="635" on="0"/>
        <pt x="144" y="545" on="0"/>
        <pt x="112" y="470" on="1"/>
        <pt x="81" y="470" on="1"/>
        <pt x="89" y="515" on="0"/>
        <pt x="108" y="587" on="0"/>
        <pt x="131" y="610" on="1"/>
        <pt x="147" y="626" on="0"/>
        <pt x="194" y="652" on="0"/>
        <pt x="250" y="670" on="0"/>
        <pt x="308" y="680" on="0"/>
        <pt x="334" y="680" on="1"/>
        <pt x="375" y="680" on="0"/>
        <pt x="458" y="670" on="0"/>
        <pt x="524" y="640" on="0"/>
        <pt x="566" y="585" on="0"/>
        <pt x="566" y="540" on="1"/>
        <pt x="566" y="512" on="0"/>
        <pt x="544" y="453" on="0"/>
        <pt x="499" y="399" on="0"/>
        <pt x="428" y="357" on="0"/>
        <pt x="380" y="345" on="1"/>
        <pt x="421" y="340" on="0"/>
        <pt x="479" y="312" on="0"/>
        <pt x="515" y="273" on="0"/>
        <pt x="531" y="226" on="0"/>
        <pt x="531" y="201" on="1"/>
        <pt x="531" y="137" on="0"/>
        <pt x="470" y="52" on="0"/>
        <pt x="379" y="1" on="0"/>
        <pt x="272" y="-20" on="0"/>
        <pt x="226" y="-20" on="1"/>
        <pt x="135" y="-20" on="0"/>
        <pt x="22" y="47" on="0"/>
        <pt x="-11" y="115" on="1"/>
        <pt x="23" y="140" on="1"/>
        <pt x="36" y="117" on="0"/>
        <pt x="69" y="76" on="0"/>
        <pt x="114" y="44" on="0"/>
        <pt x="171" y="25" on="0"/>
        <pt x="209" y="25" on="1"/>
        <pt x="244" y="25" on="0"/>
        <pt x="309" y="48" on="0"/>
        <pt x="360" y="91" on="0"/>
        <pt x="391" y="155" on="0"/>
        <pt x="391" y="197" on="1"/>
        <pt x="391" y="254" on="0"/>
        <pt x="313" y="315" on="0"/>
        <pt x="244" y="315" on="1"/>
        <pt x="159" y="315" on="1"/>
      </contour>
    </TTGlyph>
    <TTGlyph name="afii10026" xMin="48" yMin="0" xMax="704" yMax="660">
      <contour>
        <pt x="48" y="0" on="1"/>
        <pt x="72" y="136" on="0"/>
        <pt x="105" y="326" on="0"/>
        <pt x="127" y="452" on="0"/>
        <pt x="139" y="523" on="0"/>
        <pt x="145" y="560" on="0"/>
        <pt x="146" y="572" on="0"/>
        <pt x="146" y="575" on="1"/>
        <pt x="146" y="601" on="0"/>
        <pt x="121" y="630" on="0"/>
        <pt x="89" y="630" on="1"/>
        <pt x="79" y="630" on="1"/>
        <pt x="84" y="660" on="1"/>
        <pt x="204" y="660" on="1"/>
        <pt x="243" y="660" on="0"/>
        <pt x="278" y="631" on="0"/>
        <pt x="278" y="593" on="1"/>
        <pt x="278" y="589" on="0"/>
        <pt x="277" y="576" on="0"/>
        <pt x="272" y="544" on="0"/>
        <pt x="262" y="485" on="0"/>
        <pt x="245" y="385" on="0"/>
        <pt x="219" y="236" on="0"/>
        <pt x="200" y="130" on="1"/>
        <pt x="584" y="660" on="1"/>
        <pt x="704" y="660" on="1"/>
        <pt x="588" y="0" on="1"/>
        <pt x="458" y="0" on="1"/>
        <pt x="551" y="530" on="1"/>
        <pt x="168" y="0" on="1"/>
      </contour>
    </TTGlyph>
    <TTGlyph name="afii10027" xMin="48" yMin="0" xMax="704" yMax="820">
      <component glyphName="afii10026" x="0" y="0" flags="0x204"/>
      <component glyphName="breve" x="249" y="195" flags="0x4"/>
    </TTGlyph>
    <TTGlyph name="afii10028" xMin="49" yMin="-10" xMax="715" yMax="660">
      <component glyphName="K" x="0" y="0" flags="0x200"/>
    </TTGlyph>
    <TTGlyph name="afii10029" xMin="-56" yMin="-15" xMax="674" yMax="660">
      <contour>
        <pt x="196" y="530" on="1"/>
        <pt x="198" y="542" on="0"/>
        <pt x="201" y="565" on="0"/>
        <pt x="201" y="575" on="1"/>
        <pt x="201" y="601" on="0"/>
        <pt x="176" y="630" on="0"/>
        <pt x="144" y="630" on="1"/>
        <pt x="134" y="630" on="1"/>
        <pt x="139" y="660" on="1"/>
        <pt x="674" y="660" on="1"/>
        <pt x="558" y="0" on="1"/>
        <pt x="428" y="0" on="1"/>
        <pt x="536" y="615" on="1"/>
        <pt x="320" y="615" on="1"/>
        <pt x="305" y="530" on="1"/>
        <pt x="277" y="371" on="0"/>
        <pt x="209" y="160" on="0"/>
        <pt x="132" y="36" on="0"/>
        <pt x="47" y="-15" on="0"/>
        <pt x="2" y="-15" on="1"/>
        <pt x="-17" y="-15" on="0"/>
        <pt x="-45" y="-10" on="0"/>
        <pt x="-56" y="-6" on="1"/>
        <pt x="-51" y="25" on="1"/>
        <pt x="-18" y="32" on="0"/>
        <pt x="47" y="77" on="0"/>
        <pt x="109" y="186" on="0"/>
        <pt x="169" y="376" on="0"/>
      </contour>
    </TTGlyph>
    <TTGlyph name="afii10030" xMin="26" yMin="-45" xMax="842" yMax="660">
      <component glyphName="M" x="0" y="0" flags="0x200"/>
    </TTGlyph>
    <TTGlyph name="afii10031" xMin="48" yMin="0" xMax="694" yMax="660">
      <component glyphName="H" x="0" y="0" flags="0x200"/>
    </TTGlyph>
    <TTGlyph name="afii10032" xMin="40" yMin="-20" xMax="713" yMax="680">
      <component glyphName="O" x="0" y="0" flags="0x200"/>
    </TTGlyph>
    <TTGlyph name="afii10033" xMin="48" yMin="0" xMax="684" yMax="660">
      <contour>
        <pt x="48" y="0" on="1"/>
        <pt x="72" y="136" on="0"/>
        <pt x="105" y="326" on="0"/>
        <pt x="127" y="452" on="0"/>
        <pt x="139" y="523" on="0"/>
        <pt x="145" y="560" on="0"/>
        <pt x="146" y="572" on="0"/>
        <pt x="146" y="575" on="1"/>
        <pt x="146" y="601" on="0"/>
        <pt x="121" y="630" on="0"/>
        <pt x="89" y="630" on="1"/>
        <pt x="79" y="630" on="1"/>
        <pt x="84" y="660" on="1"/>
        <pt x="684" y="660" on="1"/>
        <pt x="568" y="0" on="1"/>
        <pt x="438" y="0" on="1"/>
        <pt x="546" y="615" on="1"/>
        <pt x="286" y="615" on="1"/>
        <pt x="178" y="0" on="1"/>
      </contour>
    </TTGlyph>
    <TTGlyph name="afii10034" xMin="48" yMin="0" xMax="598" yMax="660">
      <component glyphName="P" x="0" y="0" flags="0x200"/>
    </TTGlyph>
    <TTGlyph name="afii10035" xMin="38" yMin="-20" xMax="672" yMax="680">
      <component glyphName="C" x="0" y="0" flags="0x200"/>
    </TTGlyph>
    <TTGlyph name="afii10036" xMin="53" yMin="0" xMax="637" yMax="660">
      <component glyphName="T" x="0" y="0" flags="0x200"/>
    </TTGlyph>
    <TTGlyph name="afii10037" xMin="29" yMin="-10" xMax="676" yMax="660">
      <contour>
        <pt x="134" y="530" on="1"/>
        <pt x="119" y="578" on="0"/>
        <pt x="68" y="636" on="0"/>
        <pt x="29" y="640" on="1"/>
        <pt x="33" y="660" on="1"/>
        <pt x="133" y="660" on="1"/>
        <pt x="190" y="660" on="0"/>
        <pt x="261" y="597" on="0"/>
        <pt x="276" y="550" on="1"/>
        <pt x="365" y="268" on="1"/>
        <pt x="611" y="660" on="1"/>
        <pt x="676" y="660" on="1"/>
        <pt x="320" y="95" on="1"/>
        <pt x="290" y="47" on="0"/>
        <pt x="198" y="-10" on="0"/>
        <pt x="138" y="-10" on="1"/>
        <pt x="88" y="-10" on="1"/>
        <pt x="94" y="26" on="1"/>
        <pt x="116" y="26" on="0"/>
        <pt x="161" y="31" on="0"/>
        <pt x="203" y="46" on="0"/>
        <pt x="240" y="73" on="0"/>
        <pt x="255" y="95" on="1"/>
        <pt x="265" y="110" on="1"/>
      </contour>
    </TTGlyph>
    <TTGlyph name="afii10038" xMin="28" yMin="-40" xMax="809" yMax="700">
      <contour>
        <pt x="395" y="550" on="1"/>
        <pt x="339" y="549" on="0"/>
        <pt x="254" y="493" on="0"/>
        <pt x="197" y="407" on="0"/>
        <pt x="168" y="301" on="0"/>
        <pt x="168" y="249" on="1"/>
        <pt x="168" y="212" on="0"/>
        <pt x="185" y="150" on="0"/>
        <pt x="221" y="105" on="0"/>
        <pt x="276" y="80" on="0"/>
        <pt x="313" y="80" on="1"/>
      </contour>
      <contour>
        <pt x="443" y="80" on="1"/>
        <pt x="499" y="81" on="0"/>
        <pt x="584" y="136" on="0"/>
        <pt x="641" y="222" on="0"/>
        <pt x="670" y="328" on="0"/>
        <pt x="670" y="380" on="1"/>
        <pt x="670" y="417" on="0"/>
        <pt x="653" y="480" on="0"/>
        <pt x="617" y="525" on="0"/>
        <pt x="562" y="550" on="0"/>
        <pt x="525" y="550" on="1"/>
      </contour>
      <contour>
        <pt x="533" y="595" on="1"/>
        <pt x="671" y="595" on="0"/>
        <pt x="809" y="477" on="0"/>
        <pt x="809" y="375" on="1"/>
        <pt x="809" y="299" on="0"/>
        <pt x="757" y="174" on="0"/>
        <pt x="659" y="84" on="0"/>
        <pt x="521" y="35" on="0"/>
        <pt x="435" y="35" on="1"/>
        <pt x="421" y="-40" on="1"/>
        <pt x="291" y="-40" on="1"/>
        <pt x="305" y="35" on="1"/>
        <pt x="166" y="35" on="0"/>
        <pt x="28" y="152" on="0"/>
        <pt x="28" y="254" on="1"/>
        <pt x="28" y="330" on="0"/>
        <pt x="81" y="456" on="0"/>
        <pt x="178" y="546" on="0"/>
        <pt x="317" y="595" on="0"/>
        <pt x="403" y="595" on="1"/>
        <pt x="404" y="601" on="0"/>
        <pt x="406" y="613" on="0"/>
        <pt x="406" y="619" on="1"/>
        <pt x="406" y="639" on="0"/>
        <pt x="382" y="670" on="0"/>
        <pt x="347" y="670" on="1"/>
        <pt x="337" y="670" on="1"/>
        <pt x="342" y="700" on="1"/>
        <pt x="462" y="700" on="1"/>
        <pt x="503" y="700" on="0"/>
        <pt x="538" y="671" on="0"/>
        <pt x="538" y="638" on="1"/>
        <pt x="538" y="629" on="0"/>
        <pt x="535" y="608" on="0"/>
      </contour>
    </TTGlyph>
    <TTGlyph name="afii10039" xMin="-32" yMin="0" xMax="672" yMax="660">
      <component glyphName="X" x="0" y="0" flags="0x200"/>
    </TTGlyph>
    <TTGlyph name="afii10040" xMin="48" yMin="-185" xMax="684" yMax="660">
      <contour>
        <pt x="48" y="0" on="1"/>
        <pt x="72" y="136" on="0"/>
        <pt x="105" y="326" on="0"/>
        <pt x="127" y="452" on="0"/>
        <pt x="139" y="523" on="0"/>
        <pt x="145" y="560" on="0"/>
        <pt x="146" y="572" on="0"/>
        <pt x="146" y="575" on="1"/>
        <pt x="146" y="601" on="0"/>
        <pt x="121" y="630" on="0"/>
        <pt x="89" y="630" on="1"/>
        <pt x="79" y="630" on="1"/>
        <pt x="84" y="660" on="1"/>
        <pt x="204" y="660" on="1"/>
        <pt x="243" y="660" on="0"/>
        <pt x="278" y="631" on="0"/>
        <pt x="278" y="593" on="1"/>
        <pt x="278" y="589" on="0"/>
        <pt x="277" y="575" on="0"/>
        <pt x="271" y="538" on="0"/>
        <pt x="259" y="469" on="0"/>
        <pt x="239" y="350" on="0"/>
        <pt x="207" y="172" on="0"/>
        <pt x="185" y="45" on="1"/>
        <pt x="445" y="45" on="1"/>
        <pt x="554" y="660" on="1"/>
        <pt x="684" y="660" on="1"/>
        <pt x="575" y="45" on="1"/>
        <pt x="610" y="45" on="1"/>
        <pt x="623" y="45" on="0"/>
        <pt x="640" y="29" on="0"/>
        <pt x="640" y="17" on="1"/>
        <pt x="640" y="16" on="0"/>
        <pt x="639" y="8" on="0"/>
        <pt x="632" y="-30" on="0"/>
        <pt x="618" y="-111" on="0"/>
        <pt x="605" y="-185" on="1"/>
        <pt x="555" y="-185" on="1"/>
        <pt x="556" y="-171" on="0"/>
        <pt x="557" y="-148" on="0"/>
        <pt x="557" y="-137" on="1"/>
        <pt x="557" y="-97" on="0"/>
        <pt x="545" y="-45" on="0"/>
        <pt x="521" y="-13" on="0"/>
        <pt x="486" y="0" on="0"/>
        <pt x="463" y="0" on="1"/>
      </contour>
    </TTGlyph>
    <TTGlyph name="afii10041" xMin="57" yMin="0" xMax="652" yMax="660">
      <contour>
        <pt x="102" y="405" on="1"/>
        <pt x="102" y="447" on="0"/>
        <pt x="124" y="531" on="0"/>
        <pt x="124" y="575" on="1"/>
        <pt x="124" y="601" on="0"/>
        <pt x="99" y="630" on="0"/>
        <pt x="67" y="630" on="1"/>
        <pt x="57" y="630" on="1"/>
        <pt x="62" y="660" on="1"/>
        <pt x="182" y="660" on="1"/>
        <pt x="221" y="660" on="0"/>
        <pt x="256" y="631" on="0"/>
        <pt x="256" y="593" on="1"/>
        <pt x="256" y="570" on="0"/>
        <pt x="248" y="524" on="0"/>
        <pt x="239" y="477" on="0"/>
        <pt x="231" y="430" on="0"/>
        <pt x="231" y="405" on="1"/>
        <pt x="231" y="345" on="0"/>
        <pt x="295" y="285" on="0"/>
        <pt x="346" y="285" on="1"/>
        <pt x="377" y="285" on="0"/>
        <pt x="435" y="296" on="0"/>
        <pt x="459" y="305" on="1"/>
        <pt x="522" y="660" on="1"/>
        <pt x="652" y="660" on="1"/>
        <pt x="536" y="0" on="1"/>
        <pt x="406" y="0" on="1"/>
        <pt x="451" y="260" on="1"/>
        <pt x="427" y="250" on="0"/>
        <pt x="356" y="240" on="0"/>
        <pt x="319" y="240" on="1"/>
        <pt x="213" y="240" on="0"/>
        <pt x="102" y="320" on="0"/>
      </contour>
    </TTGlyph>
    <TTGlyph name="afii10042" xMin="48" yMin="0" xMax="944" yMax="660">
      <contour>
        <pt x="48" y="0" on="1"/>
        <pt x="72" y="136" on="0"/>
        <pt x="105" y="326" on="0"/>
        <pt x="127" y="452" on="0"/>
        <pt x="139" y="523" on="0"/>
        <pt x="145" y="560" on="0"/>
        <pt x="146" y="572" on="0"/>
        <pt x="146" y="575" on="1"/>
        <pt x="146" y="601" on="0"/>
        <pt x="121" y="630" on="0"/>
        <pt x="89" y="630" on="1"/>
        <pt x="79" y="630" on="1"/>
        <pt x="84" y="660" on="1"/>
        <pt x="204" y="660" on="1"/>
        <pt x="243" y="660" on="0"/>
        <pt x="278" y="631" on="0"/>
        <pt x="278" y="593" on="1"/>
        <pt x="278" y="589" on="0"/>
        <pt x="277" y="575" on="0"/>
        <pt x="271" y="538" on="0"/>
        <pt x="259" y="469" on="0"/>
        <pt x="239" y="350" on="0"/>
        <pt x="207" y="172" on="0"/>
        <pt x="185" y="45" on="1"/>
        <pt x="380" y="45" on="1"/>
        <pt x="489" y="660" on="1"/>
        <pt x="619" y="660" on="1"/>
        <pt x="510" y="45" on="1"/>
        <pt x="705" y="45" on="1"/>
        <pt x="814" y="660" on="1"/>
        <pt x="944" y="660" on="1"/>
        <pt x="828" y="0" on="1"/>
      </contour>
    </TTGlyph>
    <TTGlyph name="afii10043" xMin="48" yMin="-185" xMax="944" yMax="660">
      <contour>
        <pt x="48" y="0" on="1"/>
        <pt x="72" y="136" on="0"/>
        <pt x="105" y="326" on="0"/>
        <pt x="127" y="452" on="0"/>
        <pt x="139" y="523" on="0"/>
        <pt x="145" y="560" on="0"/>
        <pt x="146" y="572" on="0"/>
        <pt x="146" y="575" on="1"/>
        <pt x="146" y="601" on="0"/>
        <pt x="121" y="630" on="0"/>
        <pt x="89" y="630" on="1"/>
        <pt x="79" y="630" on="1"/>
        <pt x="84" y="660" on="1"/>
        <pt x="204" y="660" on="1"/>
        <pt x="243" y="660" on="0"/>
        <pt x="278" y="631" on="0"/>
        <pt x="278" y="593" on="1"/>
        <pt x="278" y="589" on="0"/>
        <pt x="277" y="575" on="0"/>
        <pt x="271" y="538" on="0"/>
        <pt x="259" y="469" on="0"/>
        <pt x="239" y="350" on="0"/>
        <pt x="207" y="172" on="0"/>
        <pt x="185" y="45" on="1"/>
        <pt x="380" y="45" on="1"/>
        <pt x="489" y="660" on="1"/>
        <pt x="619" y="660" on="1"/>
        <pt x="510" y="45" on="1"/>
        <pt x="705" y="45" on="1"/>
        <pt x="814" y="660" on="1"/>
        <pt x="944" y="660" on="1"/>
        <pt x="835" y="45" on="1"/>
        <pt x="870" y="45" on="1"/>
        <pt x="883" y="45" on="0"/>
        <pt x="900" y="29" on="0"/>
        <pt x="900" y="17" on="1"/>
        <pt x="900" y="16" on="0"/>
        <pt x="899" y="8" on="0"/>
        <pt x="892" y="-30" on="0"/>
        <pt x="878" y="-111" on="0"/>
        <pt x="865" y="-185" on="1"/>
        <pt x="815" y="-185" on="1"/>
        <pt x="816" y="-171" on="0"/>
        <pt x="817" y="-148" on="0"/>
        <pt x="817" y="-137" on="1"/>
        <pt x="817" y="-97" on="0"/>
        <pt x="805" y="-45" on="0"/>
        <pt x="781" y="-13" on="0"/>
        <pt x="746" y="0" on="0"/>
        <pt x="723" y="0" on="1"/>
      </contour>
    </TTGlyph>
    <TTGlyph name="afii10044" xMin="55" yMin="0" xMax="692" yMax="660">
      <contour>
        <pt x="338" y="390" on="1"/>
        <pt x="428" y="390" on="1"/>
        <pt x="477" y="390" on="0"/>
        <pt x="572" y="375" on="0"/>
        <pt x="647" y="339" on="0"/>
        <pt x="692" y="278" on="0"/>
        <pt x="692" y="231" on="1"/>
        <pt x="692" y="162" on="0"/>
        <pt x="630" y="72" on="0"/>
        <pt x="534" y="20" on="0"/>
        <pt x="416" y="0" on="0"/>
        <pt x="360" y="0" on="1"/>
        <pt x="271" y="0" on="1"/>
        <pt x="140" y="0" on="1"/>
        <pt x="248" y="615" on="1"/>
        <pt x="237" y="615" on="1"/>
        <pt x="180" y="615" on="0"/>
        <pt x="113" y="543" on="0"/>
        <pt x="95" y="460" on="1"/>
        <pt x="55" y="460" on="1"/>
        <pt x="84" y="625" on="1"/>
        <pt x="86" y="640" on="0"/>
        <pt x="109" y="660" on="0"/>
        <pt x="125" y="660" on="1"/>
        <pt x="386" y="660" on="1"/>
      </contour>
      <contour>
        <pt x="401" y="350" on="1"/>
        <pt x="386" y="350" on="0"/>
        <pt x="360" y="347" on="0"/>
        <pt x="350" y="345" on="1"/>
        <pt x="339" y="342" on="0"/>
        <pt x="329" y="340" on="1"/>
        <pt x="278" y="50" on="1"/>
        <pt x="286" y="47" on="0"/>
        <pt x="297" y="45" on="1"/>
        <pt x="317" y="40" on="0"/>
        <pt x="347" y="40" on="1"/>
        <pt x="352" y="40" on="1"/>
        <pt x="449" y="40" on="0"/>
        <pt x="553" y="142" on="0"/>
        <pt x="553" y="236" on="1"/>
        <pt x="553" y="292" on="0"/>
        <pt x="482" y="350" on="0"/>
        <pt x="406" y="350" on="1"/>
      </contour>
    </TTGlyph>
    <TTGlyph name="afii10045" xMin="48" yMin="0" xMax="868" yMax="660">
      <contour>
        <pt x="304" y="350" on="1"/>
        <pt x="290" y="350" on="0"/>
        <pt x="266" y="347" on="0"/>
        <pt x="257" y="345" on="1"/>
        <pt x="237" y="340" on="1"/>
        <pt x="186" y="50" on="1"/>
        <pt x="193" y="47" on="0"/>
        <pt x="204" y="45" on="1"/>
        <pt x="222" y="40" on="0"/>
        <pt x="250" y="40" on="1"/>
        <pt x="347" y="40" on="0"/>
        <pt x="451" y="142" on="0"/>
        <pt x="451" y="236" on="1"/>
        <pt x="451" y="292" on="0"/>
        <pt x="380" y="350" on="0"/>
      </contour>
      <contour>
        <pt x="326" y="390" on="1"/>
        <pt x="375" y="390" on="0"/>
        <pt x="470" y="375" on="0"/>
        <pt x="545" y="339" on="0"/>
        <pt x="590" y="278" on="0"/>
        <pt x="590" y="231" on="1"/>
        <pt x="590" y="162" on="0"/>
        <pt x="528" y="72" on="0"/>
        <pt x="432" y="20" on="0"/>
        <pt x="314" y="0" on="0"/>
        <pt x="258" y="0" on="1"/>
        <pt x="175" y="0" on="1"/>
        <pt x="48" y="0" on="1"/>
        <pt x="72" y="136" on="0"/>
        <pt x="105" y="326" on="0"/>
        <pt x="127" y="452" on="0"/>
        <pt x="139" y="523" on="0"/>
        <pt x="145" y="560" on="0"/>
        <pt x="146" y="572" on="0"/>
        <pt x="146" y="575" on="1"/>
        <pt x="146" y="601" on="0"/>
        <pt x="121" y="630" on="0"/>
        <pt x="89" y="630" on="1"/>
        <pt x="79" y="630" on="1"/>
        <pt x="84" y="660" on="1"/>
        <pt x="204" y="660" on="1"/>
        <pt x="243" y="660" on="0"/>
        <pt x="278" y="631" on="0"/>
        <pt x="278" y="593" on="1"/>
        <pt x="278" y="587" on="0"/>
        <pt x="276" y="568" on="0"/>
        <pt x="270" y="526" on="0"/>
        <pt x="257" y="452" on="0"/>
        <pt x="246" y="390" on="1"/>
      </contour>
      <contour>
        <pt x="868" y="660" on="1"/>
        <pt x="844" y="523" on="0"/>
        <pt x="810" y="334" on="0"/>
        <pt x="788" y="209" on="0"/>
        <pt x="776" y="138" on="0"/>
        <pt x="770" y="101" on="0"/>
        <pt x="769" y="90" on="0"/>
        <pt x="769" y="87" on="1"/>
        <pt x="769" y="60" on="0"/>
        <pt x="794" y="30" on="0"/>
        <pt x="827" y="30" on="1"/>
        <pt x="837" y="30" on="1"/>
        <pt x="832" y="0" on="1"/>
        <pt x="712" y="0" on="1"/>
        <pt x="672" y="0" on="0"/>
        <pt x="637" y="30" on="0"/>
        <pt x="637" y="69" on="1"/>
        <pt x="637" y="73" on="0"/>
        <pt x="638" y="87" on="0"/>
        <pt x="644" y="125" on="0"/>
        <pt x="657" y="199" on="0"/>
        <pt x="679" y="328" on="0"/>
        <pt x="713" y="521" on="0"/>
        <pt x="738" y="660" on="1"/>
      </contour>
    </TTGlyph>
    <TTGlyph name="afii10046" xMin="48" yMin="0" xMax="600" yMax="660">
      <contour>
        <pt x="309" y="350" on="1"/>
        <pt x="294" y="350" on="0"/>
        <pt x="268" y="347" on="0"/>
        <pt x="258" y="345" on="1"/>
        <pt x="247" y="342" on="0"/>
        <pt x="237" y="340" on="1"/>
        <pt x="186" y="50" on="1"/>
        <pt x="194" y="47" on="0"/>
        <pt x="205" y="45" on="1"/>
        <pt x="225" y="40" on="0"/>
        <pt x="255" y="40" on="1"/>
        <pt x="260" y="40" on="1"/>
        <pt x="357" y="40" on="0"/>
        <pt x="461" y="142" on="0"/>
        <pt x="461" y="236" on="1"/>
        <pt x="461" y="292" on="0"/>
        <pt x="390" y="350" on="0"/>
        <pt x="314" y="350" on="1"/>
      </contour>
      <contour>
        <pt x="336" y="390" on="1"/>
        <pt x="385" y="390" on="0"/>
        <pt x="480" y="375" on="0"/>
        <pt x="555" y="339" on="0"/>
        <pt x="600" y="278" on="0"/>
        <pt x="600" y="231" on="1"/>
        <pt x="600" y="162" on="0"/>
        <pt x="538" y="72" on="0"/>
        <pt x="442" y="20" on="0"/>
        <pt x="324" y="0" on="0"/>
        <pt x="268" y="0" on="1"/>
        <pt x="174" y="0" on="1"/>
        <pt x="48" y="0" on="1"/>
        <pt x="72" y="136" on="0"/>
        <pt x="105" y="326" on="0"/>
        <pt x="127" y="452" on="0"/>
        <pt x="139" y="523" on="0"/>
        <pt x="145" y="560" on="0"/>
        <pt x="146" y="572" on="0"/>
        <pt x="146" y="575" on="1"/>
        <pt x="146" y="601" on="0"/>
        <pt x="121" y="630" on="0"/>
        <pt x="89" y="630" on="1"/>
        <pt x="79" y="630" on="1"/>
        <pt x="84" y="660" on="1"/>
        <pt x="204" y="660" on="1"/>
        <pt x="243" y="660" on="0"/>
        <pt x="278" y="631" on="0"/>
        <pt x="278" y="593" on="1"/>
        <pt x="278" y="587" on="0"/>
        <pt x="276" y="568" on="0"/>
        <pt x="270" y="526" on="0"/>
        <pt x="257" y="452" on="0"/>
        <pt x="246" y="390" on="1"/>
      </contour>
    </TTGlyph>
    <TTGlyph name="afii10047" xMin="0" yMin="-20" xMax="656" yMax="680">
      <contour>
        <pt x="79" y="447" on="1"/>
        <pt x="86" y="489" on="0"/>
        <pt x="109" y="574" on="0"/>
        <pt x="132" y="599" on="1"/>
        <pt x="166" y="631" on="0"/>
        <pt x="289" y="680" on="0"/>
        <pt x="383" y="680" on="1"/>
        <pt x="445" y="680" on="0"/>
        <pt x="546" y="637" on="0"/>
        <pt x="617" y="560" on="0"/>
        <pt x="656" y="455" on="0"/>
        <pt x="656" y="393" on="1"/>
        <pt x="656" y="308" on="0"/>
        <pt x="597" y="158" on="0"/>
        <pt x="492" y="45" on="0"/>
        <pt x="347" y="-20" on="0"/>
        <pt x="260" y="-20" on="1"/>
        <pt x="155" y="-20" on="0"/>
        <pt x="33" y="58" on="0"/>
        <pt x="0" y="141" on="1"/>
        <pt x="40" y="168" on="1"/>
        <pt x="64" y="98" on="0"/>
        <pt x="169" y="25" on="0"/>
        <pt x="238" y="25" on="1"/>
        <pt x="296" y="25" on="0"/>
        <pt x="387" y="72" on="0"/>
        <pt x="454" y="151" on="0"/>
        <pt x="497" y="254" on="0"/>
        <pt x="508" y="310" on="1"/>
        <pt x="198" y="310" on="1"/>
        <pt x="206" y="355" on="1"/>
        <pt x="515" y="355" on="1"/>
        <pt x="521" y="398" on="0"/>
        <pt x="521" y="434" on="1"/>
        <pt x="521" y="491" on="0"/>
        <pt x="494" y="568" on="0"/>
        <pt x="447" y="615" on="0"/>
        <pt x="382" y="635" on="0"/>
        <pt x="345" y="635" on="1"/>
        <pt x="262" y="635" on="0"/>
        <pt x="144" y="538" on="0"/>
        <pt x="109" y="447" on="1"/>
      </contour>
    </TTGlyph>
    <TTGlyph name="afii10048" xMin="48" yMin="-20" xMax="897" yMax="680">
      <contour>
        <pt x="529" y="-20" on="1"/>
        <pt x="474" y="-20" on="0"/>
        <pt x="384" y="18" on="0"/>
        <pt x="319" y="89" on="0"/>
        <pt x="283" y="188" on="0"/>
        <pt x="283" y="250" on="1"/>
        <pt x="283" y="284" on="0"/>
        <pt x="289" y="320" on="1"/>
        <pt x="234" y="320" on="1"/>
        <pt x="178" y="0" on="1"/>
        <pt x="48" y="0" on="1"/>
        <pt x="72" y="136" on="0"/>
        <pt x="105" y="326" on="0"/>
        <pt x="127" y="452" on="0"/>
        <pt x="139" y="523" on="0"/>
        <pt x="145" y="560" on="0"/>
        <pt x="146" y="572" on="0"/>
        <pt x="146" y="575" on="1"/>
        <pt x="146" y="601" on="0"/>
        <pt x="121" y="630" on="0"/>
        <pt x="89" y="630" on="1"/>
        <pt x="79" y="630" on="1"/>
        <pt x="84" y="660" on="1"/>
        <pt x="204" y="660" on="1"/>
        <pt x="243" y="660" on="0"/>
        <pt x="278" y="631" on="0"/>
        <pt x="278" y="593" on="1"/>
        <pt x="278" y="587" on="0"/>
        <pt x="276" y="567" on="0"/>
        <pt x="269" y="521" on="0"/>
        <pt x="254" y="436" on="0"/>
        <pt x="242" y="365" on="1"/>
        <pt x="298" y="365" on="1"/>
        <pt x="316" y="436" on="0"/>
        <pt x="386" y="552" on="0"/>
        <pt x="480" y="635" on="0"/>
        <pt x="592" y="680" on="0"/>
        <pt x="652" y="680" on="1"/>
        <pt x="707" y="680" on="0"/>
        <pt x="797" y="641" on="0"/>
        <pt x="861" y="571" on="0"/>
        <pt x="897" y="470" on="0"/>
        <pt x="897" y="409" on="1"/>
        <pt x="897" y="315" on="0"/>
        <pt x="834" y="158" on="0"/>
        <pt x="731" y="44" on="0"/>
        <pt x="598" y="-20" on="0"/>
      </contour>
      <contour>
        <pt x="537" y="25" on="1"/>
        <pt x="583" y="25" on="0"/>
        <pt x="665" y="100" on="0"/>
        <pt x="727" y="221" on="0"/>
        <pt x="763" y="371" on="0"/>
        <pt x="763" y="446" on="1"/>
        <pt x="763" y="541" on="0"/>
        <pt x="698" y="635" on="0"/>
        <pt x="644" y="635" on="1"/>
        <pt x="598" y="635" on="0"/>
        <pt x="516" y="558" on="0"/>
        <pt x="455" y="437" on="0"/>
        <pt x="419" y="286" on="0"/>
        <pt x="419" y="211" on="1"/>
        <pt x="419" y="117" on="0"/>
        <pt x="483" y="25" on="0"/>
      </contour>
    </TTGlyph>
    <TTGlyph name="afii10049" xMin="-37" yMin="-16" xMax="683" yMax="660">
      <contour>
        <pt x="400" y="620" on="1"/>
        <pt x="376" y="620" on="0"/>
        <pt x="320" y="597" on="0"/>
        <pt x="272" y="549" on="0"/>
        <pt x="239" y="478" on="0"/>
        <pt x="239" y="430" on="1"/>
        <pt x="239" y="400" on="0"/>
        <pt x="259" y="355" on="0"/>
        <pt x="290" y="326" on="0"/>
        <pt x="330" y="312" on="0"/>
        <pt x="351" y="312" on="1"/>
        <pt x="411" y="312" on="1"/>
        <pt x="464" y="613" on="1"/>
        <pt x="455" y="614" on="0"/>
        <pt x="444" y="616" on="1"/>
        <pt x="435" y="618" on="0"/>
        <pt x="412" y="620" on="0"/>
      </contour>
      <contour>
        <pt x="244" y="129" on="1"/>
        <pt x="211" y="88" on="0"/>
        <pt x="154" y="33" on="0"/>
        <pt x="102" y="-1" on="0"/>
        <pt x="53" y="-16" on="0"/>
        <pt x="29" y="-16" on="1"/>
        <pt x="10" y="-16" on="0"/>
        <pt x="-30" y="-10" on="0"/>
        <pt x="-37" y="-6" on="1"/>
        <pt x="-33" y="19" on="1"/>
        <pt x="-10" y="22" on="0"/>
        <pt x="60" y="67" on="0"/>
        <pt x="110" y="129" on="1"/>
        <pt x="232" y="280" on="1"/>
        <pt x="208" y="285" on="0"/>
        <pt x="160" y="308" on="0"/>
        <pt x="123" y="346" on="0"/>
        <pt x="99" y="397" on="0"/>
        <pt x="99" y="429" on="1"/>
        <pt x="99" y="477" on="0"/>
        <pt x="130" y="548" on="0"/>
        <pt x="181" y="599" on="0"/>
        <pt x="246" y="633" on="0"/>
        <pt x="315" y="652" on="0"/>
        <pt x="381" y="660" on="0"/>
        <pt x="407" y="660" on="1"/>
        <pt x="683" y="660" on="1"/>
        <pt x="678" y="630" on="1"/>
        <pt x="668" y="630" on="1"/>
        <pt x="623" y="630" on="0"/>
        <pt x="587" y="575" on="0"/>
        <pt x="580" y="530" on="1"/>
        <pt x="487" y="0" on="1"/>
        <pt x="356" y="0" on="1"/>
        <pt x="403" y="272" on="1"/>
        <pt x="359" y="272" on="1"/>
      </contour>
    </TTGlyph>
    <TTGlyph name="afii10050" xMin="48" yMin="0" xMax="619" yMax="780">
      <contour>
        <pt x="286" y="615" on="1"/>
        <pt x="178" y="0" on="1"/>
        <pt x="48" y="0" on="1"/>
        <pt x="72" y="136" on="0"/>
        <pt x="105" y="326" on="0"/>
        <pt x="127" y="452" on="0"/>
        <pt x="139" y="523" on="0"/>
        <pt x="145" y="560" on="0"/>
        <pt x="146" y="572" on="0"/>
        <pt x="146" y="575" on="1"/>
        <pt x="146" y="601" on="0"/>
        <pt x="121" y="630" on="0"/>
        <pt x="89" y="630" on="1"/>
        <pt x="79" y="630" on="1"/>
        <pt x="84" y="660" on="1"/>
        <pt x="443" y="660" on="1"/>
        <pt x="503" y="660" on="0"/>
        <pt x="578" y="715" on="0"/>
        <pt x="589" y="780" on="1"/>
        <pt x="619" y="780" on="1"/>
        <pt x="604" y="695" on="1"/>
        <pt x="601" y="680" on="0"/>
        <pt x="589" y="651" on="0"/>
        <pt x="567" y="629" on="0"/>
        <pt x="531" y="615" on="0"/>
        <pt x="505" y="615" on="1"/>
      </contour>
    </TTGlyph>
    <TTGlyph name="afii10051" xMin="51" yMin="-40" xMax="605" yMax="660">
      <contour>
        <pt x="345" y="-15" on="1"/>
        <pt x="368" y="-15" on="0"/>
        <pt x="406" y="17" on="0"/>
        <pt x="435" y="67" on="0"/>
        <pt x="455" y="130" on="0"/>
        <pt x="468" y="192" on="0"/>
        <pt x="474" y="248" on="0"/>
        <pt x="474" y="267" on="1"/>
        <pt x="474" y="331" on="0"/>
        <pt x="424" y="380" on="0"/>
        <pt x="390" y="380" on="1"/>
        <pt x="352" y="380" on="0"/>
        <pt x="279" y="360" on="0"/>
        <pt x="253" y="345" on="1"/>
        <pt x="193" y="0" on="1"/>
        <pt x="63" y="0" on="1"/>
        <pt x="171" y="615" on="1"/>
        <pt x="51" y="615" on="1"/>
        <pt x="59" y="660" on="1"/>
        <pt x="429" y="660" on="1"/>
        <pt x="421" y="615" on="1"/>
        <pt x="301" y="615" on="1"/>
        <pt x="261" y="390" on="1"/>
        <pt x="287" y="405" on="0"/>
        <pt x="372" y="430" on="0"/>
        <pt x="418" y="430" on="1"/>
        <pt x="458" y="430" on="0"/>
        <pt x="527" y="416" on="0"/>
        <pt x="577" y="380" on="0"/>
        <pt x="605" y="318" on="0"/>
        <pt x="605" y="270" on="1"/>
        <pt x="605" y="208" on="0"/>
        <pt x="575" y="97" on="0"/>
        <pt x="510" y="13" on="0"/>
        <pt x="410" y="-37" on="0"/>
        <pt x="340" y="-40" on="1"/>
      </contour>
    </TTGlyph>
    <TTGlyph name="afii10052" xMin="48" yMin="0" xMax="586" yMax="843">
      <component glyphName="afii10020" x="0" y="0" flags="0x204"/>
      <component glyphName="acute" x="162" y="3" flags="0x4"/>
    </TTGlyph>
    <TTGlyph name="afii10053" xMin="39" yMin="-20" xMax="673" yMax="680">
      <contour>
        <pt x="631" y="447" on="1"/>
        <pt x="629" y="538" on="0"/>
        <pt x="544" y="635" on="0"/>
        <pt x="461" y="635" on="1"/>
        <pt x="417" y="635" on="0"/>
        <pt x="336" y="608" on="0"/>
        <pt x="266" y="543" on="0"/>
        <pt x="211" y="436" on="0"/>
        <pt x="193" y="355" on="1"/>
        <pt x="502" y="355" on="1"/>
        <pt x="494" y="310" on="1"/>
        <pt x="184" y="310" on="1"/>
        <pt x="178" y="271" on="0"/>
        <pt x="178" y="234" on="1"/>
        <pt x="178" y="190" on="0"/>
        <pt x="197" y="114" on="0"/>
        <pt x="239" y="57" on="0"/>
        <pt x="306" y="25" on="0"/>
        <pt x="354" y="25" on="1"/>
        <pt x="423" y="25" on="0"/>
        <pt x="554" y="98" on="0"/>
        <pt x="602" y="168" on="1"/>
        <pt x="632" y="141" on="1"/>
        <pt x="601" y="99" on="0"/>
        <pt x="534" y="39" on="0"/>
        <pt x="457" y="-1" on="0"/>
        <pt x="368" y="-20" on="0"/>
        <pt x="316" y="-20" on="1"/>
        <pt x="248" y="-20" on="0"/>
        <pt x="144" y="19" on="0"/>
        <pt x="74" y="90" on="0"/>
        <pt x="39" y="187" on="0"/>
        <pt x="39" y="245" on="1"/>
        <pt x="39" y="333" on="0"/>
        <pt x="105" y="492" on="0"/>
        <pt x="216" y="610" on="0"/>
        <pt x="360" y="680" on="0"/>
        <pt x="439" y="680" on="1"/>
        <pt x="503" y="680" on="0"/>
        <pt x="592" y="658" on="0"/>
        <pt x="648" y="620" on="0"/>
        <pt x="673" y="572" on="0"/>
        <pt x="673" y="545" on="1"/>
        <pt x="673" y="522" on="0"/>
        <pt x="666" y="473" on="0"/>
        <pt x="661" y="447" on="1"/>
      </contour>
    </TTGlyph>
    <TTGlyph name="afii10054" xMin="16" yMin="-17" xMax="549" yMax="678">
      <component glyphName="S" x="0" y="0" flags="0x200"/>
    </TTGlyph>
    <TTGlyph name="afii10056" xMin="48" yMin="0" xMax="374" yMax="827">
      <component glyphName="I" x="0" y="0" flags="0x204"/>
      <component glyphName="dieresis" x="10" y="25" flags="0x4"/>
    </TTGlyph>
    <TTGlyph name="afii10057" xMin="-90" yMin="-137" xMax="273" yMax="660">
      <component glyphName="J" x="0" y="0" flags="0x200"/>
    </TTGlyph>
    <TTGlyph name="afii10058" xMin="-56" yMin="-15" xMax="961" yMax="660">
      <contour>
        <pt x="306" y="530" on="1"/>
        <pt x="278" y="371" on="0"/>
        <pt x="210" y="160" on="0"/>
        <pt x="132" y="36" on="0"/>
        <pt x="47" y="-15" on="0"/>
        <pt x="2" y="-15" on="1"/>
        <pt x="-17" y="-15" on="0"/>
        <pt x="-45" y="-10" on="0"/>
        <pt x="-56" y="-6" on="1"/>
        <pt x="-51" y="25" on="1"/>
        <pt x="-18" y="32" on="0"/>
        <pt x="47" y="77" on="0"/>
        <pt x="109" y="186" on="0"/>
        <pt x="169" y="376" on="0"/>
        <pt x="196" y="530" on="1"/>
        <pt x="198" y="543" on="0"/>
        <pt x="201" y="565" on="0"/>
        <pt x="201" y="576" on="1"/>
        <pt x="201" y="601" on="0"/>
        <pt x="177" y="630" on="0"/>
        <pt x="145" y="630" on="1"/>
        <pt x="135" y="630" on="1"/>
        <pt x="140" y="660" on="1"/>
        <pt x="665" y="660" on="1"/>
        <pt x="617" y="390" on="1"/>
        <pt x="707" y="390" on="1"/>
        <pt x="753" y="390" on="0"/>
        <pt x="844" y="375" on="0"/>
        <pt x="916" y="339" on="0"/>
        <pt x="961" y="278" on="0"/>
        <pt x="961" y="231" on="1"/>
        <pt x="961" y="162" on="0"/>
        <pt x="899" y="72" on="0"/>
        <pt x="804" y="20" on="0"/>
        <pt x="691" y="0" on="0"/>
        <pt x="639" y="0" on="1"/>
        <pt x="548" y="0" on="1"/>
        <pt x="419" y="0" on="1"/>
        <pt x="527" y="615" on="1"/>
        <pt x="321" y="615" on="1"/>
      </contour>
      <contour>
        <pt x="680" y="350" on="1"/>
        <pt x="665" y="350" on="0"/>
        <pt x="639" y="347" on="0"/>
        <pt x="629" y="345" on="1"/>
        <pt x="618" y="342" on="0"/>
        <pt x="608" y="340" on="1"/>
        <pt x="557" y="50" on="1"/>
        <pt x="565" y="47" on="0"/>
        <pt x="576" y="45" on="1"/>
        <pt x="596" y="40" on="0"/>
        <pt x="626" y="40" on="1"/>
        <pt x="631" y="40" on="1"/>
        <pt x="720" y="40" on="0"/>
        <pt x="822" y="142" on="0"/>
        <pt x="822" y="236" on="1"/>
        <pt x="822" y="292" on="0"/>
        <pt x="755" y="350" on="0"/>
        <pt x="685" y="350" on="1"/>
      </contour>
    </TTGlyph>
    <TTGlyph name="afii10059" xMin="48" yMin="0" xMax="978" yMax="660">
      <contour>
        <pt x="493" y="365" on="1"/>
        <pt x="545" y="660" on="1"/>
        <pt x="675" y="660" on="1"/>
        <pt x="624" y="370" on="1"/>
        <pt x="713" y="370" on="1"/>
        <pt x="762" y="370" on="0"/>
        <pt x="858" y="356" on="0"/>
        <pt x="932" y="321" on="0"/>
        <pt x="978" y="262" on="0"/>
        <pt x="978" y="218" on="1"/>
        <pt x="978" y="153" on="0"/>
        <pt x="917" y="69" on="0"/>
        <pt x="821" y="20" on="0"/>
        <pt x="704" y="0" on="0"/>
        <pt x="648" y="0" on="1"/>
        <pt x="429" y="0" on="1"/>
        <pt x="485" y="320" on="1"/>
        <pt x="234" y="320" on="1"/>
        <pt x="178" y="0" on="1"/>
        <pt x="48" y="0" on="1"/>
        <pt x="72" y="136" on="0"/>
        <pt x="105" y="326" on="0"/>
        <pt x="127" y="452" on="0"/>
        <pt x="139" y="523" on="0"/>
        <pt x="145" y="560" on="0"/>
        <pt x="146" y="572" on="0"/>
        <pt x="146" y="575" on="1"/>
        <pt x="146" y="601" on="0"/>
        <pt x="121" y="630" on="0"/>
        <pt x="89" y="630" on="1"/>
        <pt x="79" y="630" on="1"/>
        <pt x="84" y="660" on="1"/>
        <pt x="204" y="660" on="1"/>
        <pt x="243" y="660" on="0"/>
        <pt x="278" y="631" on="0"/>
        <pt x="278" y="593" on="1"/>
        <pt x="278" y="587" on="0"/>
        <pt x="276" y="567" on="0"/>
        <pt x="269" y="521" on="0"/>
        <pt x="254" y="436" on="0"/>
        <pt x="242" y="365" on="1"/>
      </contour>
      <contour>
        <pt x="686" y="330" on="1"/>
        <pt x="659" y="330" on="0"/>
        <pt x="618" y="322" on="0"/>
        <pt x="614" y="320" on="1"/>
        <pt x="566" y="50" on="1"/>
        <pt x="574" y="47" on="0"/>
        <pt x="585" y="45" on="1"/>
        <pt x="605" y="40" on="0"/>
        <pt x="635" y="40" on="1"/>
        <pt x="640" y="40" on="1"/>
        <pt x="738" y="40" on="0"/>
        <pt x="838" y="137" on="0"/>
        <pt x="838" y="220" on="1"/>
        <pt x="838" y="272" on="0"/>
        <pt x="769" y="330" on="0"/>
        <pt x="691" y="330" on="1"/>
      </contour>
    </TTGlyph>
    <TTGlyph name="afii10060" xMin="51" yMin="0" xMax="610" yMax="660">
      <contour>
        <pt x="193" y="0" on="1"/>
        <pt x="63" y="0" on="1"/>
        <pt x="171" y="615" on="1"/>
        <pt x="51" y="615" on="1"/>
        <pt x="59" y="660" on="1"/>
        <pt x="429" y="660" on="1"/>
        <pt x="421" y="615" on="1"/>
        <pt x="301" y="615" on="1"/>
        <pt x="261" y="390" on="1"/>
        <pt x="287" y="405" on="0"/>
        <pt x="372" y="430" on="0"/>
        <pt x="418" y="430" on="1"/>
        <pt x="454" y="430" on="0"/>
        <pt x="523" y="418" on="0"/>
        <pt x="577" y="386" on="0"/>
        <pt x="610" y="332" on="0"/>
        <pt x="610" y="290" on="1"/>
        <pt x="610" y="285" on="0"/>
        <pt x="608" y="268" on="0"/>
        <pt x="599" y="211" on="0"/>
        <pt x="580" y="99" on="0"/>
        <pt x="563" y="0" on="1"/>
        <pt x="433" y="0" on="1"/>
        <pt x="451" y="100" on="0"/>
        <pt x="470" y="213" on="0"/>
        <pt x="479" y="270" on="0"/>
        <pt x="481" y="287" on="0"/>
        <pt x="481" y="292" on="1"/>
        <pt x="481" y="342" on="0"/>
        <pt x="431" y="380" on="0"/>
        <pt x="390" y="380" on="1"/>
        <pt x="352" y="380" on="0"/>
        <pt x="279" y="360" on="0"/>
        <pt x="253" y="345" on="1"/>
      </contour>
    </TTGlyph>
    <TTGlyph name="afii10061" xMin="49" yMin="-10" xMax="715" yMax="816">
      <component glyphName="K" x="0" y="0" flags="0x204"/>
      <component glyphName="acute" x="215" y="-24" flags="0x4"/>
    </TTGlyph>
    <TTGlyph name="afii10062" xMin="29" yMin="-10" xMax="676" yMax="815">
      <component glyphName="afii10037" x="0" y="0" flags="0x204"/>
      <component glyphName="breve" x="204" y="190" flags="0x4"/>
    </TTGlyph>
    <TTGlyph name="afii10065" xMin="24" yMin="-10" xMax="522" yMax="480">
      <component glyphName="a" x="0" y="0" flags="0x200"/>
    </TTGlyph>
    <TTGlyph name="afii10066" xMin="36" yMin="-10" xMax="562" yMax="695">
      <contour>
        <pt x="299" y="395" on="1"/>
        <pt x="262" y="395" on="0"/>
        <pt x="211" y="339" on="0"/>
        <pt x="179" y="259" on="0"/>
        <pt x="165" y="174" on="0"/>
        <pt x="165" y="144" on="1"/>
        <pt x="165" y="112" on="0"/>
        <pt x="178" y="70" on="0"/>
        <pt x="198" y="45" on="0"/>
        <pt x="224" y="35" on="0"/>
        <pt x="236" y="35" on="1"/>
        <pt x="273" y="35" on="0"/>
        <pt x="324" y="91" on="0"/>
        <pt x="355" y="170" on="0"/>
        <pt x="369" y="255" on="0"/>
        <pt x="369" y="285" on="1"/>
        <pt x="369" y="316" on="0"/>
        <pt x="356" y="359" on="0"/>
        <pt x="336" y="384" on="0"/>
        <pt x="311" y="395" on="0"/>
      </contour>
      <contour>
        <pt x="306" y="513" on="1"/>
        <pt x="274" y="506" on="0"/>
        <pt x="216" y="476" on="0"/>
        <pt x="167" y="427" on="0"/>
        <pt x="129" y="357" on="0"/>
        <pt x="119" y="310" on="1"/>
        <pt x="124" y="310" on="1"/>
        <pt x="157" y="370" on="0"/>
        <pt x="255" y="440" on="0"/>
        <pt x="327" y="440" on="1"/>
        <pt x="366" y="440" on="0"/>
        <pt x="430" y="420" on="0"/>
        <pt x="477" y="379" on="0"/>
        <pt x="503" y="317" on="0"/>
        <pt x="503" y="274" on="1"/>
        <pt x="503" y="200" on="0"/>
        <pt x="459" y="93" on="0"/>
        <pt x="384" y="24" on="0"/>
        <pt x="284" y="-10" on="0"/>
        <pt x="228" y="-10" on="1"/>
        <pt x="137" y="-10" on="0"/>
        <pt x="36" y="86" on="0"/>
        <pt x="36" y="177" on="1"/>
        <pt x="36" y="273" on="0"/>
        <pt x="81" y="426" on="0"/>
        <pt x="153" y="537" on="0"/>
        <pt x="241" y="603" on="0"/>
        <pt x="284" y="613" on="1"/>
        <pt x="428" y="645" on="1"/>
        <pt x="472" y="655" on="0"/>
        <pt x="525" y="676" on="0"/>
        <pt x="532" y="695" on="1"/>
        <pt x="562" y="695" on="1"/>
        <pt x="548" y="615" on="1"/>
        <pt x="545" y="596" on="0"/>
        <pt x="514" y="558" on="0"/>
        <pt x="476" y="550" on="1"/>
      </contour>
    </TTGlyph>
    <TTGlyph name="afii10067" xMin="28" yMin="0" xMax="486" yMax="470">
      <contour>
        <pt x="278" y="430" on="1"/>
        <pt x="270" y="430" on="0"/>
        <pt x="244" y="427" on="0"/>
        <pt x="232" y="423" on="1"/>
        <pt x="205" y="270" on="1"/>
        <pt x="240" y="270" on="1"/>
        <pt x="261" y="270" on="0"/>
        <pt x="301" y="283" on="0"/>
        <pt x="331" y="308" on="0"/>
        <pt x="350" y="344" on="0"/>
        <pt x="350" y="366" on="1"/>
        <pt x="350" y="399" on="0"/>
        <pt x="305" y="430" on="0"/>
      </contour>
      <contour>
        <pt x="28" y="0" on="1"/>
        <pt x="43" y="89" on="0"/>
        <pt x="65" y="213" on="0"/>
        <pt x="79" y="297" on="0"/>
        <pt x="87" y="345" on="0"/>
        <pt x="91" y="372" on="0"/>
        <pt x="92" y="382" on="0"/>
        <pt x="92" y="385" on="1"/>
        <pt x="92" y="411" on="0"/>
        <pt x="67" y="440" on="0"/>
        <pt x="35" y="440" on="1"/>
        <pt x="30" y="440" on="1"/>
        <pt x="35" y="470" on="1"/>
        <pt x="303" y="470" on="1"/>
        <pt x="386" y="470" on="0"/>
        <pt x="486" y="419" on="0"/>
        <pt x="486" y="368" on="1"/>
        <pt x="486" y="314" on="0"/>
        <pt x="405" y="253" on="0"/>
        <pt x="339" y="245" on="1"/>
        <pt x="396" y="238" on="0"/>
        <pt x="467" y="189" on="0"/>
        <pt x="467" y="147" on="1"/>
        <pt x="467" y="109" on="0"/>
        <pt x="431" y="53" on="0"/>
        <pt x="365" y="17" on="0"/>
        <pt x="275" y="0" on="0"/>
        <pt x="221" y="0" on="1"/>
        <pt x="157" y="0" on="1"/>
      </contour>
      <contour>
        <pt x="210" y="40" on="1"/>
        <pt x="235" y="40" on="0"/>
        <pt x="279" y="54" on="0"/>
        <pt x="312" y="82" on="0"/>
        <pt x="332" y="123" on="0"/>
        <pt x="332" y="151" on="1"/>
        <pt x="332" y="188" on="0"/>
        <pt x="279" y="225" on="0"/>
        <pt x="232" y="225" on="1"/>
        <pt x="197" y="225" on="1"/>
        <pt x="166" y="47" on="1"/>
        <pt x="177" y="43" on="0"/>
        <pt x="202" y="40" on="0"/>
      </contour>
    </TTGlyph>
    <TTGlyph name="afii10068" xMin="-14" yMin="-10" xMax="425" yMax="480">
      <contour>
        <pt x="198" y="35" on="1"/>
        <pt x="258" y="35" on="0"/>
        <pt x="331" y="102" on="0"/>
        <pt x="348" y="150" on="1"/>
        <pt x="383" y="150" on="1"/>
        <pt x="375" y="105" on="0"/>
        <pt x="352" y="44" on="0"/>
        <pt x="306" y="6" on="0"/>
        <pt x="230" y="-10" on="0"/>
        <pt x="170" y="-10" on="1"/>
        <pt x="89" y="-10" on="0"/>
        <pt x="-14" y="46" on="0"/>
        <pt x="-14" y="101" on="1"/>
        <pt x="-14" y="132" on="0"/>
        <pt x="9" y="181" on="0"/>
        <pt x="52" y="220" on="0"/>
        <pt x="114" y="253" on="0"/>
        <pt x="153" y="268" on="1"/>
        <pt x="217" y="293" on="1"/>
        <pt x="257" y="309" on="0"/>
        <pt x="302" y="347" on="0"/>
        <pt x="302" y="381" on="1"/>
        <pt x="302" y="405" on="0"/>
        <pt x="267" y="435" on="0"/>
        <pt x="228" y="435" on="1"/>
        <pt x="168" y="435" on="0"/>
        <pt x="94" y="368" on="0"/>
        <pt x="78" y="320" on="1"/>
        <pt x="43" y="320" on="1"/>
        <pt x="51" y="365" on="0"/>
        <pt x="74" y="426" on="0"/>
        <pt x="120" y="464" on="0"/>
        <pt x="196" y="480" on="0"/>
        <pt x="256" y="480" on="1"/>
        <pt x="331" y="480" on="0"/>
        <pt x="425" y="424" on="0"/>
        <pt x="425" y="370" on="1"/>
        <pt x="425" y="312" on="0"/>
        <pt x="340" y="234" on="0"/>
        <pt x="270" y="206" on="1"/>
        <pt x="214" y="184" on="1"/>
        <pt x="167" y="166" on="0"/>
        <pt x="109" y="125" on="0"/>
        <pt x="109" y="89" on="1"/>
        <pt x="109" y="65" on="0"/>
        <pt x="148" y="35" on="0"/>
      </contour>
    </TTGlyph>
    <TTGlyph name="afii10069" xMin="25" yMin="-10" xMax="529" yMax="670">
      <contour>
        <pt x="438" y="390" on="1"/>
        <pt x="439" y="400" on="0"/>
        <pt x="440" y="419" on="0"/>
        <pt x="440" y="429" on="1"/>
        <pt x="440" y="468" on="0"/>
        <pt x="424" y="536" on="0"/>
        <pt x="388" y="586" on="0"/>
        <pt x="330" y="615" on="0"/>
        <pt x="288" y="615" on="1"/>
        <pt x="266" y="615" on="0"/>
        <pt x="223" y="606" on="0"/>
        <pt x="185" y="593" on="0"/>
        <pt x="155" y="580" on="0"/>
        <pt x="148" y="576" on="1"/>
        <pt x="131" y="618" on="1"/>
        <pt x="140" y="624" on="0"/>
        <pt x="177" y="642" on="0"/>
        <pt x="226" y="659" on="0"/>
        <pt x="286" y="670" on="0"/>
        <pt x="318" y="670" on="1"/>
        <pt x="375" y="670" on="0"/>
        <pt x="455" y="628" on="0"/>
        <pt x="506" y="555" on="0"/>
        <pt x="529" y="456" on="0"/>
        <pt x="529" y="399" on="1"/>
        <pt x="529" y="309" on="0"/>
        <pt x="491" y="159" on="0"/>
        <pt x="415" y="50" on="0"/>
        <pt x="302" y="-10" on="0"/>
        <pt x="228" y="-10" on="1"/>
        <pt x="176" y="-10" on="0"/>
        <pt x="100" y="17" on="0"/>
        <pt x="50" y="67" on="0"/>
        <pt x="25" y="134" on="0"/>
        <pt x="25" y="175" on="1"/>
        <pt x="25" y="235" on="0"/>
        <pt x="65" y="342" on="0"/>
        <pt x="138" y="423" on="0"/>
        <pt x="240" y="470" on="0"/>
        <pt x="302" y="470" on="1"/>
        <pt x="351" y="470" on="0"/>
        <pt x="426" y="428" on="0"/>
      </contour>
      <contour>
        <pt x="375" y="229" on="1"/>
        <pt x="381" y="265" on="0"/>
        <pt x="381" y="300" on="1"/>
        <pt x="381" y="325" on="0"/>
        <pt x="373" y="371" on="0"/>
        <pt x="354" y="405" on="0"/>
        <pt x="325" y="425" on="0"/>
        <pt x="304" y="425" on="1"/>
        <pt x="268" y="425" on="0"/>
        <pt x="214" y="370" on="0"/>
        <pt x="177" y="289" on="0"/>
        <pt x="158" y="194" on="0"/>
        <pt x="158" y="155" on="1"/>
        <pt x="158" y="92" on="0"/>
        <pt x="202" y="35" on="0"/>
        <pt x="236" y="35" on="1"/>
        <pt x="278" y="35" on="0"/>
        <pt x="357" y="128" on="0"/>
      </contour>
    </TTGlyph>
    <TTGlyph name="afii10070" xMin="25" yMin="-10" xMax="490" yMax="480">
      <component glyphName="e" x="0" y="0" flags="0x200"/>
    </TTGlyph>
    <TTGlyph name="afii10071" xMin="25" yMin="-10" xMax="490" yMax="647">
      <component glyphName="e" x="0" y="0" flags="0x204"/>
      <component glyphName="dieresis.alt1" x="119" y="0" flags="0x4"/>
    </TTGlyph>
    <TTGlyph name="afii10072" xMin="-47" yMin="-10" xMax="744" yMax="470">
      <contour>
        <pt x="339" y="470" on="1"/>
        <pt x="469" y="470" on="1"/>
        <pt x="430" y="245" on="1"/>
        <pt x="567" y="393" on="1"/>
        <pt x="585" y="412" on="0"/>
        <pt x="618" y="441" on="0"/>
        <pt x="655" y="460" on="0"/>
        <pt x="698" y="470" on="0"/>
        <pt x="724" y="470" on="1"/>
        <pt x="744" y="470" on="1"/>
        <pt x="740" y="444" on="1"/>
        <pt x="710" y="444" on="0"/>
        <pt x="656" y="421" on="0"/>
        <pt x="631" y="394" on="1"/>
        <pt x="522" y="276" on="1"/>
        <pt x="615" y="100" on="1"/>
        <pt x="634" y="65" on="0"/>
        <pt x="675" y="29" on="0"/>
        <pt x="695" y="24" on="1"/>
        <pt x="691" y="0" on="1"/>
        <pt x="683" y="-4" on="0"/>
        <pt x="639" y="-10" on="0"/>
        <pt x="620" y="-10" on="1"/>
        <pt x="578" y="-10" on="0"/>
        <pt x="514" y="29" on="0"/>
        <pt x="487" y="80" on="1"/>
        <pt x="422" y="203" on="1"/>
        <pt x="387" y="0" on="1"/>
        <pt x="257" y="0" on="1"/>
        <pt x="292" y="203" on="1"/>
        <pt x="185" y="80" on="1"/>
        <pt x="140" y="29" on="0"/>
        <pt x="62" y="-10" on="0"/>
        <pt x="20" y="-10" on="1"/>
        <pt x="1" y="-10" on="0"/>
        <pt x="-40" y="-4" on="0"/>
        <pt x="-47" y="0" on="1"/>
        <pt x="-43" y="24" on="1"/>
        <pt x="-21" y="29" on="0"/>
        <pt x="32" y="65" on="0"/>
        <pt x="63" y="100" on="1"/>
        <pt x="218" y="276" on="1"/>
        <pt x="151" y="394" on="1"/>
        <pt x="135" y="421" on="0"/>
        <pt x="90" y="444" on="0"/>
        <pt x="60" y="444" on="1"/>
        <pt x="64" y="470" on="1"/>
        <pt x="84" y="470" on="1"/>
        <pt x="137" y="470" on="0"/>
        <pt x="193" y="431" on="0"/>
        <pt x="215" y="393" on="1"/>
        <pt x="300" y="245" on="1"/>
      </contour>
    </TTGlyph>
    <TTGlyph name="afii10073" xMin="-6" yMin="-10" xMax="425" yMax="480">
      <contour>
        <pt x="118" y="265" on="1"/>
        <pt x="168" y="265" on="1"/>
        <pt x="231" y="265" on="0"/>
        <pt x="290" y="313" on="0"/>
        <pt x="290" y="369" on="1"/>
        <pt x="290" y="404" on="0"/>
        <pt x="244" y="435" on="0"/>
        <pt x="213" y="435" on="1"/>
        <pt x="168" y="435" on="0"/>
        <pt x="95" y="374" on="0"/>
        <pt x="84" y="325" on="1"/>
        <pt x="54" y="325" on="1"/>
        <pt x="62" y="367" on="0"/>
        <pt x="78" y="426" on="0"/>
        <pt x="100" y="445" on="1"/>
        <pt x="122" y="464" on="0"/>
        <pt x="201" y="480" on="0"/>
        <pt x="246" y="480" on="1"/>
        <pt x="328" y="480" on="0"/>
        <pt x="425" y="428" on="0"/>
        <pt x="425" y="373" on="1"/>
        <pt x="425" y="318" on="0"/>
        <pt x="347" y="248" on="0"/>
        <pt x="284" y="240" on="1"/>
        <pt x="338" y="233" on="0"/>
        <pt x="400" y="180" on="0"/>
        <pt x="400" y="141" on="1"/>
        <pt x="400" y="101" on="0"/>
        <pt x="362" y="44" on="0"/>
        <pt x="298" y="7" on="0"/>
        <pt x="213" y="-10" on="0"/>
        <pt x="165" y="-10" on="1"/>
        <pt x="94" y="-10" on="0"/>
        <pt x="14" y="36" on="0"/>
        <pt x="-6" y="70" on="1"/>
        <pt x="28" y="95" on="1"/>
        <pt x="34" y="86" on="0"/>
        <pt x="52" y="65" on="0"/>
        <pt x="79" y="47" on="0"/>
        <pt x="117" y="35" on="0"/>
        <pt x="143" y="35" on="1"/>
        <pt x="168" y="35" on="0"/>
        <pt x="212" y="48" on="0"/>
        <pt x="246" y="76" on="0"/>
        <pt x="266" y="120" on="0"/>
        <pt x="266" y="152" on="1"/>
        <pt x="266" y="186" on="0"/>
        <pt x="220" y="220" on="0"/>
        <pt x="160" y="220" on="1"/>
        <pt x="110" y="220" on="1"/>
      </contour>
    </TTGlyph>
    <TTGlyph name="afii10074" xMin="19" yMin="-10" xMax="539" yMax="470">
      <component glyphName="u" x="0" y="0" flags="0x200"/>
    </TTGlyph>
    <TTGlyph name="afii10075" xMin="19" yMin="-10" xMax="539" yMax="625">
      <component glyphName="u" x="0" y="0" flags="0x204"/>
      <component glyphName="breve" x="126" y="0" flags="0x4"/>
    </TTGlyph>
    <TTGlyph name="afii10076" xMin="30" yMin="-10" xMax="530" yMax="470">
      <contour>
        <pt x="197" y="196" on="1"/>
        <pt x="163" y="0" on="1"/>
        <pt x="33" y="0" on="1"/>
        <pt x="48" y="89" on="0"/>
        <pt x="70" y="213" on="0"/>
        <pt x="84" y="297" on="0"/>
        <pt x="92" y="345" on="0"/>
        <pt x="96" y="372" on="0"/>
        <pt x="97" y="382" on="0"/>
        <pt x="97" y="385" on="1"/>
        <pt x="97" y="411" on="0"/>
        <pt x="72" y="440" on="0"/>
        <pt x="40" y="440" on="1"/>
        <pt x="30" y="440" on="1"/>
        <pt x="35" y="470" on="1"/>
        <pt x="155" y="470" on="1"/>
        <pt x="194" y="470" on="0"/>
        <pt x="229" y="441" on="0"/>
        <pt x="229" y="403" on="1"/>
        <pt x="229" y="397" on="0"/>
        <pt x="227" y="379" on="0"/>
        <pt x="223" y="346" on="0"/>
        <pt x="213" y="290" on="0"/>
        <pt x="206" y="245" on="1"/>
        <pt x="353" y="393" on="1"/>
        <pt x="371" y="411" on="0"/>
        <pt x="405" y="440" on="0"/>
        <pt x="442" y="460" on="0"/>
        <pt x="484" y="470" on="0"/>
        <pt x="510" y="470" on="1"/>
        <pt x="530" y="470" on="1"/>
        <pt x="526" y="444" on="1"/>
        <pt x="496" y="444" on="0"/>
        <pt x="443" y="420" on="0"/>
        <pt x="417" y="394" on="1"/>
        <pt x="299" y="276" on="1"/>
        <pt x="401" y="100" on="1"/>
        <pt x="439" y="33" on="0"/>
        <pt x="481" y="24" on="1"/>
        <pt x="477" y="0" on="1"/>
        <pt x="469" y="-4" on="0"/>
        <pt x="425" y="-10" on="0"/>
        <pt x="406" y="-10" on="1"/>
        <pt x="364" y="-10" on="0"/>
        <pt x="296" y="25" on="0"/>
        <pt x="271" y="70" on="1"/>
      </contour>
    </TTGlyph>
    <TTGlyph name="afii10077" xMin="-43" yMin="-15" xMax="541" yMax="470">
      <contour>
        <pt x="249" y="350" on="1"/>
        <pt x="231" y="249" on="0"/>
        <pt x="182" y="109" on="0"/>
        <pt x="122" y="23" on="0"/>
        <pt x="52" y="-15" on="0"/>
        <pt x="15" y="-15" on="1"/>
        <pt x="-1" y="-15" on="0"/>
        <pt x="-35" y="-9" on="0"/>
        <pt x="-43" y="-6" on="1"/>
        <pt x="-38" y="23" on="1"/>
        <pt x="-11" y="27" on="0"/>
        <pt x="40" y="58" on="0"/>
        <pt x="86" y="129" on="0"/>
        <pt x="127" y="252" on="0"/>
        <pt x="145" y="350" on="1"/>
        <pt x="148" y="368" on="0"/>
        <pt x="148" y="384" on="1"/>
        <pt x="148" y="409" on="0"/>
        <pt x="122" y="440" on="0"/>
        <pt x="86" y="440" on="1"/>
        <pt x="91" y="470" on="1"/>
        <pt x="541" y="470" on="1"/>
        <pt x="459" y="0" on="1"/>
        <pt x="329" y="0" on="1"/>
        <pt x="403" y="425" on="1"/>
        <pt x="262" y="425" on="1"/>
      </contour>
    </TTGlyph>
    <TTGlyph name="afii10078" xMin="13" yMin="-25" xMax="628" yMax="480">
      <contour>
        <pt x="628" y="480" on="1"/>
        <pt x="605" y="351" on="0"/>
        <pt x="579" y="202" on="0"/>
        <pt x="567" y="122" on="0"/>
        <pt x="564" y="93" on="0"/>
        <pt x="564" y="84" on="1"/>
        <pt x="564" y="10" on="0"/>
        <pt x="617" y="0" on="1"/>
        <pt x="612" y="-25" on="1"/>
        <pt x="520" y="-25" on="0"/>
        <pt x="438" y="44" on="0"/>
        <pt x="438" y="114" on="1"/>
        <pt x="438" y="120" on="0"/>
        <pt x="439" y="139" on="0"/>
        <pt x="446" y="186" on="0"/>
        <pt x="461" y="271" on="0"/>
        <pt x="474" y="344" on="1"/>
        <pt x="270" y="0" on="1"/>
        <pt x="237" y="0" on="1"/>
        <pt x="125" y="354" on="1"/>
        <pt x="63" y="1" on="1"/>
        <pt x="13" y="1" on="1"/>
        <pt x="95" y="470" on="1"/>
        <pt x="217" y="470" on="1"/>
        <pt x="312" y="169" on="1"/>
        <pt x="497" y="480" on="1"/>
      </contour>
    </TTGlyph>
    <TTGlyph name="afii10079" xMin="30" yMin="0" xMax="538" yMax="470">
      <contour>
        <pt x="200" y="215" on="1"/>
        <pt x="163" y="0" on="1"/>
        <pt x="33" y="0" on="1"/>
        <pt x="48" y="89" on="0"/>
        <pt x="70" y="213" on="0"/>
        <pt x="84" y="297" on="0"/>
        <pt x="92" y="345" on="0"/>
        <pt x="96" y="372" on="0"/>
        <pt x="97" y="382" on="0"/>
        <pt x="97" y="385" on="1"/>
        <pt x="97" y="411" on="0"/>
        <pt x="72" y="440" on="0"/>
        <pt x="40" y="440" on="1"/>
        <pt x="30" y="440" on="1"/>
        <pt x="35" y="470" on="1"/>
        <pt x="155" y="470" on="1"/>
        <pt x="194" y="470" on="0"/>
        <pt x="229" y="441" on="0"/>
        <pt x="229" y="403" on="1"/>
        <pt x="229" y="397" on="0"/>
        <pt x="227" y="380" on="0"/>
        <pt x="223" y="349" on="0"/>
        <pt x="215" y="299" on="0"/>
        <pt x="208" y="260" on="1"/>
        <pt x="368" y="260" on="1"/>
        <pt x="405" y="470" on="1"/>
        <pt x="535" y="470" on="1"/>
        <pt x="519" y="381" on="0"/>
        <pt x="497" y="257" on="0"/>
        <pt x="483" y="174" on="0"/>
        <pt x="475" y="125" on="0"/>
        <pt x="471" y="100" on="0"/>
        <pt x="470" y="90" on="0"/>
        <pt x="470" y="87" on="1"/>
        <pt x="470" y="60" on="0"/>
        <pt x="495" y="30" on="0"/>
        <pt x="528" y="30" on="1"/>
        <pt x="538" y="30" on="1"/>
        <pt x="533" y="0" on="1"/>
        <pt x="413" y="0" on="1"/>
        <pt x="373" y="0" on="0"/>
        <pt x="338" y="30" on="0"/>
        <pt x="338" y="69" on="1"/>
        <pt x="338" y="75" on="0"/>
        <pt x="340" y="91" on="0"/>
        <pt x="344" y="122" on="0"/>
        <pt x="353" y="174" on="0"/>
        <pt x="360" y="215" on="1"/>
      </contour>
    </TTGlyph>
    <TTGlyph name="afii10080" xMin="24" yMin="-10" xMax="514" yMax="480">
      <component glyphName="o" x="0" y="0" flags="0x204"/>
    </TTGlyph>
    <TTGlyph name="afii10081" xMin="30" yMin="0" xMax="529" yMax="480">
      <component glyphName="n" x="0" y="0" flags="0x200"/>
    </TTGlyph>
    <TTGlyph name="afii10082" xMin="-2" yMin="-190" xMax="529" yMax="480">
      <component glyphName="p" x="0" y="0" flags="0x200"/>
    </TTGlyph>
    <TTGlyph name="afii10083" xMin="25" yMin="-10" xMax="475" yMax="480">
      <component glyphName="c" x="0" y="0" flags="0x200"/>
    </TTGlyph>
    <TTGlyph name="afii10084" xMin="30" yMin="0" xMax="779" yMax="480">
      <component glyphName="m" x="0" y="0" flags="0x200"/>
    </TTGlyph>
    <TTGlyph name="afii10085" xMin="4" yMin="-200" xMax="522" yMax="480">
      <component glyphName="y" x="0" y="0" flags="0x200"/>
    </TTGlyph>
    <TTGlyph name="afii10086" xMin="26" yMin="-190" xMax="665" yMax="660">
      <contour>
        <pt x="369" y="25" on="1"/>
        <pt x="394" y="29" on="0"/>
        <pt x="451" y="68" on="0"/>
        <pt x="500" y="137" on="0"/>
        <pt x="532" y="235" on="0"/>
        <pt x="532" y="299" on="1"/>
        <pt x="532" y="366" on="0"/>
        <pt x="479" y="438" on="0"/>
        <pt x="443" y="445" on="1"/>
      </contour>
      <contour>
        <pt x="323" y="445" on="1"/>
        <pt x="298" y="440" on="0"/>
        <pt x="241" y="402" on="0"/>
        <pt x="192" y="333" on="0"/>
        <pt x="160" y="235" on="0"/>
        <pt x="160" y="171" on="1"/>
        <pt x="160" y="104" on="0"/>
        <pt x="212" y="33" on="0"/>
        <pt x="249" y="25" on="1"/>
      </contour>
      <contour>
        <pt x="324" y="480" on="1"/>
        <pt x="328" y="505" on="0"/>
        <pt x="334" y="537" on="0"/>
        <pt x="337" y="558" on="0"/>
        <pt x="338" y="570" on="0"/>
        <pt x="338" y="575" on="1"/>
        <pt x="338" y="601" on="0"/>
        <pt x="313" y="630" on="0"/>
        <pt x="281" y="630" on="1"/>
        <pt x="271" y="630" on="1"/>
        <pt x="276" y="660" on="1"/>
        <pt x="396" y="660" on="1"/>
        <pt x="435" y="660" on="0"/>
        <pt x="470" y="631" on="0"/>
        <pt x="470" y="593" on="1"/>
        <pt x="470" y="587" on="0"/>
        <pt x="469" y="571" on="0"/>
        <pt x="465" y="546" on="0"/>
        <pt x="459" y="508" on="0"/>
        <pt x="454" y="480" on="1"/>
        <pt x="558" y="473" on="0"/>
        <pt x="665" y="366" on="0"/>
        <pt x="665" y="284" on="1"/>
        <pt x="665" y="224" on="0"/>
        <pt x="622" y="121" on="0"/>
        <pt x="544" y="42" on="0"/>
        <pt x="435" y="-6" on="0"/>
        <pt x="368" y="-10" on="1"/>
        <pt x="336" y="-190" on="1"/>
        <pt x="206" y="-190" on="1"/>
        <pt x="238" y="-10" on="1"/>
        <pt x="134" y="-3" on="0"/>
        <pt x="26" y="103" on="0"/>
        <pt x="26" y="186" on="1"/>
        <pt x="26" y="246" on="0"/>
        <pt x="69" y="349" on="0"/>
        <pt x="147" y="428" on="0"/>
        <pt x="257" y="476" on="0"/>
      </contour>
    </TTGlyph>
    <TTGlyph name="afii10087" xMin="-25" yMin="0" xMax="506" yMax="470">
      <component glyphName="x" x="0" y="0" flags="0x200"/>
    </TTGlyph>
    <TTGlyph name="afii10088" xMin="15" yMin="-160" xMax="535" yMax="470">
      <contour>
        <pt x="335" y="45" on="1"/>
        <pt x="316" y="26" on="0"/>
        <pt x="249" y="-10" on="0"/>
        <pt x="201" y="-10" on="1"/>
        <pt x="121" y="-10" on="0"/>
        <pt x="43" y="51" on="0"/>
        <pt x="43" y="119" on="1"/>
        <pt x="43" y="132" on="0"/>
        <pt x="45" y="159" on="0"/>
        <pt x="48" y="174" on="1"/>
        <pt x="77" y="340" on="1"/>
        <pt x="79" y="352" on="0"/>
        <pt x="82" y="375" on="0"/>
        <pt x="82" y="385" on="1"/>
        <pt x="82" y="411" on="0"/>
        <pt x="57" y="440" on="0"/>
        <pt x="25" y="440" on="1"/>
        <pt x="15" y="440" on="1"/>
        <pt x="20" y="470" on="1"/>
        <pt x="140" y="470" on="1"/>
        <pt x="179" y="470" on="0"/>
        <pt x="214" y="441" on="0"/>
        <pt x="214" y="403" on="1"/>
        <pt x="215" y="390" on="0"/>
        <pt x="210" y="359" on="0"/>
        <pt x="207" y="340" on="1"/>
        <pt x="178" y="173" on="1"/>
        <pt x="172" y="138" on="0"/>
        <pt x="172" y="114" on="1"/>
        <pt x="172" y="70" on="0"/>
        <pt x="207" y="35" on="0"/>
        <pt x="239" y="35" on="1"/>
        <pt x="257" y="35" on="0"/>
        <pt x="288" y="47" on="0"/>
        <pt x="313" y="67" on="0"/>
        <pt x="333" y="89" on="0"/>
        <pt x="340" y="100" on="1"/>
        <pt x="405" y="470" on="1"/>
        <pt x="535" y="470" on="1"/>
        <pt x="460" y="45" on="1"/>
        <pt x="490" y="45" on="1"/>
        <pt x="503" y="45" on="0"/>
        <pt x="520" y="29" on="0"/>
        <pt x="520" y="17" on="1"/>
        <pt x="520" y="15" on="0"/>
        <pt x="519" y="12" on="0"/>
        <pt x="519" y="10" on="1"/>
        <pt x="489" y="-160" on="1"/>
        <pt x="444" y="-160" on="1"/>
        <pt x="445" y="-147" on="0"/>
        <pt x="446" y="-124" on="0"/>
        <pt x="446" y="-114" on="1"/>
        <pt x="446" y="-78" on="0"/>
        <pt x="431" y="-35" on="0"/>
        <pt x="409" y="-12" on="0"/>
        <pt x="382" y="-1" on="0"/>
        <pt x="358" y="10" on="0"/>
        <pt x="341" y="27" on="0"/>
        <pt x="339" y="45" on="1"/>
      </contour>
    </TTGlyph>
    <TTGlyph name="afii10089" xMin="30" yMin="0" xMax="525" yMax="470">
      <contour>
        <pt x="84" y="278" on="1"/>
        <pt x="84" y="304" on="0"/>
        <pt x="97" y="356" on="0"/>
        <pt x="97" y="385" on="1"/>
        <pt x="97" y="411" on="0"/>
        <pt x="72" y="440" on="0"/>
        <pt x="40" y="440" on="1"/>
        <pt x="30" y="440" on="1"/>
        <pt x="35" y="470" on="1"/>
        <pt x="155" y="470" on="1"/>
        <pt x="194" y="470" on="0"/>
        <pt x="229" y="441" on="0"/>
        <pt x="229" y="403" on="1"/>
        <pt x="229" y="371" on="0"/>
        <pt x="214" y="310" on="0"/>
        <pt x="214" y="276" on="1"/>
        <pt x="214" y="238" on="0"/>
        <pt x="250" y="205" on="0"/>
        <pt x="282" y="205" on="1"/>
        <pt x="305" y="205" on="0"/>
        <pt x="335" y="213" on="0"/>
        <pt x="351" y="221" on="1"/>
        <pt x="395" y="470" on="1"/>
        <pt x="525" y="470" on="1"/>
        <pt x="443" y="0" on="1"/>
        <pt x="313" y="0" on="1"/>
        <pt x="344" y="178" on="1"/>
        <pt x="327" y="171" on="0"/>
        <pt x="277" y="160" on="0"/>
        <pt x="251" y="160" on="1"/>
        <pt x="216" y="160" on="0"/>
        <pt x="155" y="173" on="0"/>
        <pt x="110" y="201" on="0"/>
        <pt x="84" y="246" on="0"/>
      </contour>
    </TTGlyph>
    <TTGlyph name="afii10090" xMin="15" yMin="-10" xMax="790" yMax="470">
      <contour>
        <pt x="508" y="35" on="1"/>
        <pt x="527" y="35" on="0"/>
        <pt x="579" y="72" on="0"/>
        <pt x="595" y="100" on="1"/>
        <pt x="660" y="470" on="1"/>
        <pt x="790" y="470" on="1"/>
        <pt x="708" y="0" on="1"/>
        <pt x="623" y="0" on="1"/>
        <pt x="595" y="45" on="1"/>
        <pt x="590" y="45" on="1"/>
        <pt x="566" y="23" on="0"/>
        <pt x="510" y="-10" on="0"/>
        <pt x="465" y="-10" on="1"/>
        <pt x="439" y="-10" on="0"/>
        <pt x="397" y="3" on="0"/>
        <pt x="367" y="21" on="0"/>
        <pt x="347" y="40" on="0"/>
        <pt x="343" y="47" on="1"/>
        <pt x="319" y="25" on="0"/>
        <pt x="249" y="-10" on="0"/>
        <pt x="191" y="-10" on="1"/>
        <pt x="120" y="-10" on="0"/>
        <pt x="43" y="52" on="0"/>
        <pt x="43" y="121" on="1"/>
        <pt x="43" y="133" on="0"/>
        <pt x="45" y="159" on="0"/>
        <pt x="48" y="174" on="1"/>
        <pt x="77" y="340" on="1"/>
        <pt x="79" y="352" on="0"/>
        <pt x="82" y="375" on="0"/>
        <pt x="82" y="385" on="1"/>
        <pt x="82" y="411" on="0"/>
        <pt x="57" y="440" on="0"/>
        <pt x="25" y="440" on="1"/>
        <pt x="15" y="440" on="1"/>
        <pt x="20" y="470" on="1"/>
        <pt x="140" y="470" on="1"/>
        <pt x="179" y="470" on="0"/>
        <pt x="214" y="441" on="0"/>
        <pt x="214" y="403" on="1"/>
        <pt x="214" y="390" on="0"/>
        <pt x="210" y="359" on="0"/>
        <pt x="207" y="340" on="1"/>
        <pt x="178" y="173" on="1"/>
        <pt x="176" y="159" on="0"/>
        <pt x="173" y="133" on="0"/>
        <pt x="173" y="122" on="1"/>
        <pt x="173" y="77" on="0"/>
        <pt x="208" y="40" on="0"/>
        <pt x="235" y="40" on="1"/>
        <pt x="263" y="40" on="0"/>
        <pt x="312" y="62" on="0"/>
        <pt x="327" y="78" on="1"/>
        <pt x="322" y="91" on="0"/>
        <pt x="322" y="115" on="1"/>
        <pt x="322" y="136" on="0"/>
        <pt x="328" y="174" on="1"/>
        <pt x="380" y="470" on="1"/>
        <pt x="510" y="470" on="1"/>
        <pt x="458" y="173" on="1"/>
        <pt x="452" y="140" on="0"/>
        <pt x="452" y="116" on="1"/>
        <pt x="452" y="71" on="0"/>
        <pt x="484" y="35" on="0"/>
      </contour>
    </TTGlyph>
    <TTGlyph name="afii10091" xMin="15" yMin="-160" xMax="790" yMax="470">
      <contour>
        <pt x="590" y="45" on="1"/>
        <pt x="566" y="23" on="0"/>
        <pt x="510" y="-10" on="0"/>
        <pt x="465" y="-10" on="1"/>
        <pt x="439" y="-10" on="0"/>
        <pt x="397" y="3" on="0"/>
        <pt x="367" y="21" on="0"/>
        <pt x="347" y="40" on="0"/>
        <pt x="343" y="47" on="1"/>
        <pt x="319" y="25" on="0"/>
        <pt x="249" y="-10" on="0"/>
        <pt x="191" y="-10" on="1"/>
        <pt x="120" y="-10" on="0"/>
        <pt x="43" y="52" on="0"/>
        <pt x="43" y="121" on="1"/>
        <pt x="43" y="133" on="0"/>
        <pt x="45" y="159" on="0"/>
        <pt x="48" y="174" on="1"/>
        <pt x="77" y="340" on="1"/>
        <pt x="79" y="352" on="0"/>
        <pt x="82" y="375" on="0"/>
        <pt x="82" y="385" on="1"/>
        <pt x="82" y="411" on="0"/>
        <pt x="57" y="440" on="0"/>
        <pt x="25" y="440" on="1"/>
        <pt x="15" y="440" on="1"/>
        <pt x="20" y="470" on="1"/>
        <pt x="140" y="470" on="1"/>
        <pt x="179" y="470" on="0"/>
        <pt x="214" y="441" on="0"/>
        <pt x="214" y="403" on="1"/>
        <pt x="214" y="390" on="0"/>
        <pt x="210" y="359" on="0"/>
        <pt x="207" y="340" on="1"/>
        <pt x="178" y="173" on="1"/>
        <pt x="176" y="159" on="0"/>
        <pt x="173" y="133" on="0"/>
        <pt x="173" y="122" on="1"/>
        <pt x="173" y="77" on="0"/>
        <pt x="208" y="40" on="0"/>
        <pt x="235" y="40" on="1"/>
        <pt x="263" y="40" on="0"/>
        <pt x="312" y="62" on="0"/>
        <pt x="327" y="78" on="1"/>
        <pt x="322" y="91" on="0"/>
        <pt x="322" y="115" on="1"/>
        <pt x="322" y="136" on="0"/>
        <pt x="328" y="174" on="1"/>
        <pt x="380" y="470" on="1"/>
        <pt x="510" y="470" on="1"/>
        <pt x="458" y="173" on="1"/>
        <pt x="452" y="140" on="0"/>
        <pt x="452" y="116" on="1"/>
        <pt x="452" y="71" on="0"/>
        <pt x="484" y="35" on="0"/>
        <pt x="508" y="35" on="1"/>
        <pt x="527" y="35" on="0"/>
        <pt x="579" y="72" on="0"/>
        <pt x="595" y="100" on="1"/>
        <pt x="660" y="470" on="1"/>
        <pt x="790" y="470" on="1"/>
        <pt x="715" y="45" on="1"/>
        <pt x="745" y="45" on="1"/>
        <pt x="758" y="45" on="0"/>
        <pt x="775" y="29" on="0"/>
        <pt x="775" y="17" on="1"/>
        <pt x="775" y="15" on="0"/>
        <pt x="774" y="12" on="0"/>
        <pt x="774" y="10" on="1"/>
        <pt x="744" y="-160" on="1"/>
        <pt x="699" y="-160" on="1"/>
        <pt x="700" y="-147" on="0"/>
        <pt x="701" y="-124" on="0"/>
        <pt x="701" y="-114" on="1"/>
        <pt x="701" y="-78" on="0"/>
        <pt x="686" y="-35" on="0"/>
        <pt x="664" y="-12" on="0"/>
        <pt x="637" y="-1" on="0"/>
        <pt x="613" y="10" on="0"/>
        <pt x="596" y="27" on="0"/>
        <pt x="594" y="45" on="1"/>
      </contour>
    </TTGlyph>
    <TTGlyph name="afii10092" xMin="30" yMin="0" xMax="555" yMax="470">
      <contour>
        <pt x="193" y="425" on="1"/>
        <pt x="140" y="421" on="0"/>
        <pt x="85" y="355" on="0"/>
        <pt x="70" y="290" on="1"/>
        <pt x="30" y="290" on="1"/>
        <pt x="55" y="435" on="1"/>
        <pt x="57" y="450" on="0"/>
        <pt x="81" y="470" on="0"/>
        <pt x="96" y="470" on="1"/>
        <pt x="331" y="470" on="1"/>
        <pt x="298" y="280" on="1"/>
        <pt x="373" y="280" on="1"/>
        <pt x="458" y="280" on="0"/>
        <pt x="555" y="221" on="0"/>
        <pt x="555" y="164" on="1"/>
        <pt x="555" y="125" on="0"/>
        <pt x="520" y="64" on="0"/>
        <pt x="459" y="22" on="0"/>
        <pt x="374" y="0" on="0"/>
        <pt x="324" y="0" on="1"/>
        <pt x="250" y="0" on="1"/>
        <pt x="119" y="0" on="1"/>
      </contour>
      <contour>
        <pt x="257" y="47" on="1"/>
        <pt x="268" y="43" on="0"/>
        <pt x="293" y="40" on="0"/>
        <pt x="301" y="40" on="1"/>
        <pt x="322" y="40" on="0"/>
        <pt x="365" y="52" on="0"/>
        <pt x="400" y="82" on="0"/>
        <pt x="421" y="131" on="0"/>
        <pt x="421" y="168" on="1"/>
        <pt x="421" y="209" on="0"/>
        <pt x="372" y="240" on="0"/>
        <pt x="336" y="240" on="1"/>
        <pt x="328" y="240" on="0"/>
        <pt x="301" y="237" on="0"/>
        <pt x="290" y="233" on="1"/>
      </contour>
    </TTGlyph>
    <TTGlyph name="afii10093" xMin="30" yMin="0" xMax="698" yMax="470">
      <contour>
        <pt x="171" y="47" on="1"/>
        <pt x="182" y="43" on="0"/>
        <pt x="207" y="40" on="0"/>
        <pt x="215" y="40" on="1"/>
        <pt x="233" y="40" on="0"/>
        <pt x="271" y="52" on="0"/>
        <pt x="304" y="82" on="0"/>
        <pt x="325" y="131" on="0"/>
        <pt x="325" y="168" on="1"/>
        <pt x="325" y="209" on="0"/>
        <pt x="279" y="240" on="0"/>
        <pt x="250" y="240" on="1"/>
        <pt x="242" y="240" on="0"/>
        <pt x="215" y="237" on="0"/>
        <pt x="204" y="233" on="1"/>
      </contour>
      <contour>
        <pt x="33" y="0" on="1"/>
        <pt x="48" y="89" on="0"/>
        <pt x="70" y="213" on="0"/>
        <pt x="84" y="297" on="0"/>
        <pt x="92" y="345" on="0"/>
        <pt x="96" y="372" on="0"/>
        <pt x="97" y="382" on="0"/>
        <pt x="97" y="385" on="1"/>
        <pt x="97" y="411" on="0"/>
        <pt x="72" y="440" on="0"/>
        <pt x="40" y="440" on="1"/>
        <pt x="30" y="440" on="1"/>
        <pt x="35" y="470" on="1"/>
        <pt x="155" y="470" on="1"/>
        <pt x="194" y="470" on="0"/>
        <pt x="229" y="441" on="0"/>
        <pt x="229" y="403" on="1"/>
        <pt x="229" y="397" on="0"/>
        <pt x="228" y="380" on="0"/>
        <pt x="224" y="353" on="0"/>
        <pt x="217" y="312" on="0"/>
        <pt x="212" y="280" on="1"/>
        <pt x="277" y="280" on="1"/>
        <pt x="362" y="280" on="0"/>
        <pt x="459" y="221" on="0"/>
        <pt x="459" y="164" on="1"/>
        <pt x="459" y="125" on="0"/>
        <pt x="424" y="64" on="0"/>
        <pt x="363" y="22" on="0"/>
        <pt x="278" y="0" on="0"/>
        <pt x="228" y="0" on="1"/>
        <pt x="165" y="0" on="1"/>
      </contour>
      <contour>
        <pt x="695" y="470" on="1"/>
        <pt x="679" y="381" on="0"/>
        <pt x="657" y="257" on="0"/>
        <pt x="643" y="174" on="0"/>
        <pt x="635" y="125" on="0"/>
        <pt x="631" y="100" on="0"/>
        <pt x="630" y="90" on="0"/>
        <pt x="630" y="87" on="1"/>
        <pt x="630" y="60" on="0"/>
        <pt x="655" y="30" on="0"/>
        <pt x="688" y="30" on="1"/>
        <pt x="698" y="30" on="1"/>
        <pt x="693" y="0" on="1"/>
        <pt x="573" y="0" on="1"/>
        <pt x="533" y="0" on="0"/>
        <pt x="498" y="30" on="0"/>
        <pt x="498" y="69" on="1"/>
        <pt x="498" y="73" on="0"/>
        <pt x="499" y="85" on="0"/>
        <pt x="503" y="113" on="0"/>
        <pt x="512" y="164" on="0"/>
        <pt x="527" y="251" on="0"/>
        <pt x="549" y="379" on="0"/>
        <pt x="565" y="470" on="1"/>
      </contour>
    </TTGlyph>
    <TTGlyph name="afii10094" xMin="30" yMin="0" xMax="469" yMax="470">
      <contour>
        <pt x="171" y="47" on="1"/>
        <pt x="182" y="43" on="0"/>
        <pt x="207" y="40" on="0"/>
        <pt x="215" y="40" on="1"/>
        <pt x="236" y="40" on="0"/>
        <pt x="279" y="52" on="0"/>
        <pt x="314" y="82" on="0"/>
        <pt x="335" y="131" on="0"/>
        <pt x="335" y="168" on="1"/>
        <pt x="335" y="209" on="0"/>
        <pt x="286" y="240" on="0"/>
        <pt x="250" y="240" on="1"/>
        <pt x="242" y="240" on="0"/>
        <pt x="215" y="237" on="0"/>
        <pt x="204" y="233" on="1"/>
      </contour>
      <contour>
        <pt x="33" y="0" on="1"/>
        <pt x="48" y="89" on="0"/>
        <pt x="70" y="213" on="0"/>
        <pt x="84" y="297" on="0"/>
        <pt x="92" y="345" on="0"/>
        <pt x="96" y="372" on="0"/>
        <pt x="97" y="382" on="0"/>
        <pt x="97" y="385" on="1"/>
        <pt x="97" y="411" on="0"/>
        <pt x="72" y="440" on="0"/>
        <pt x="40" y="440" on="1"/>
        <pt x="30" y="440" on="1"/>
        <pt x="35" y="470" on="1"/>
        <pt x="155" y="470" on="1"/>
        <pt x="194" y="470" on="0"/>
        <pt x="229" y="441" on="0"/>
        <pt x="229" y="403" on="1"/>
        <pt x="229" y="397" on="0"/>
        <pt x="228" y="380" on="0"/>
        <pt x="224" y="353" on="0"/>
        <pt x="217" y="312" on="0"/>
        <pt x="212" y="280" on="1"/>
        <pt x="287" y="280" on="1"/>
        <pt x="372" y="280" on="0"/>
        <pt x="469" y="221" on="0"/>
        <pt x="469" y="164" on="1"/>
        <pt x="469" y="125" on="0"/>
        <pt x="434" y="64" on="0"/>
        <pt x="373" y="22" on="0"/>
        <pt x="288" y="0" on="0"/>
        <pt x="238" y="0" on="1"/>
        <pt x="165" y="0" on="1"/>
      </contour>
    </TTGlyph>
    <TTGlyph name="afii10095" xMin="0" yMin="-10" xMax="464" yMax="480">
      <contour>
        <pt x="239" y="435" on="1"/>
        <pt x="179" y="435" on="0"/>
        <pt x="96" y="369" on="0"/>
        <pt x="81" y="305" on="1"/>
        <pt x="51" y="305" on="1"/>
        <pt x="56" y="333" on="0"/>
        <pt x="65" y="377" on="0"/>
        <pt x="76" y="411" on="0"/>
        <pt x="90" y="436" on="0"/>
        <pt x="101" y="445" on="1"/>
        <pt x="123" y="464" on="0"/>
        <pt x="205" y="480" on="0"/>
        <pt x="262" y="480" on="1"/>
        <pt x="314" y="480" on="0"/>
        <pt x="390" y="451" on="0"/>
        <pt x="440" y="400" on="0"/>
        <pt x="464" y="330" on="0"/>
        <pt x="464" y="289" on="1"/>
        <pt x="464" y="230" on="0"/>
        <pt x="424" y="122" on="0"/>
        <pt x="349" y="40" on="0"/>
        <pt x="243" y="-10" on="0"/>
        <pt x="176" y="-10" on="1"/>
        <pt x="133" y="-10" on="0"/>
        <pt x="73" y="10" on="0"/>
        <pt x="32" y="41" on="0"/>
        <pt x="8" y="78" on="0"/>
        <pt x="0" y="95" on="1"/>
        <pt x="35" y="118" on="1"/>
        <pt x="45" y="101" on="0"/>
        <pt x="68" y="70" on="0"/>
        <pt x="98" y="48" on="0"/>
        <pt x="138" y="35" on="0"/>
        <pt x="164" y="35" on="1"/>
        <pt x="280" y="35" on="0"/>
        <pt x="319" y="210" on="1"/>
        <pt x="130" y="210" on="1"/>
        <pt x="137" y="255" on="1"/>
        <pt x="326" y="255" on="1"/>
        <pt x="328" y="269" on="0"/>
        <pt x="330" y="296" on="0"/>
        <pt x="330" y="308" on="1"/>
        <pt x="330" y="372" on="0"/>
        <pt x="281" y="435" on="0"/>
      </contour>
    </TTGlyph>
    <TTGlyph name="afii10096" xMin="30" yMin="-10" xMax="698" yMax="480">
      <contour>
        <pt x="426" y="-10" on="1"/>
        <pt x="381" y="-10" on="0"/>
        <pt x="311" y="19" on="0"/>
        <pt x="263" y="71" on="0"/>
        <pt x="238" y="143" on="0"/>
        <pt x="238" y="185" on="1"/>
        <pt x="238" y="193" on="0"/>
        <pt x="239" y="207" on="0"/>
        <pt x="240" y="215" on="1"/>
        <pt x="200" y="215" on="1"/>
        <pt x="163" y="0" on="1"/>
        <pt x="33" y="0" on="1"/>
        <pt x="48" y="89" on="0"/>
        <pt x="70" y="213" on="0"/>
        <pt x="84" y="297" on="0"/>
        <pt x="92" y="345" on="0"/>
        <pt x="96" y="372" on="0"/>
        <pt x="97" y="382" on="0"/>
        <pt x="97" y="385" on="1"/>
        <pt x="97" y="411" on="0"/>
        <pt x="72" y="440" on="0"/>
        <pt x="40" y="440" on="1"/>
        <pt x="30" y="440" on="1"/>
        <pt x="35" y="470" on="1"/>
        <pt x="155" y="470" on="1"/>
        <pt x="194" y="470" on="0"/>
        <pt x="229" y="441" on="0"/>
        <pt x="229" y="403" on="1"/>
        <pt x="229" y="397" on="0"/>
        <pt x="227" y="380" on="0"/>
        <pt x="223" y="349" on="0"/>
        <pt x="215" y="299" on="0"/>
        <pt x="208" y="260" on="1"/>
        <pt x="249" y="260" on="1"/>
        <pt x="261" y="307" on="0"/>
        <pt x="310" y="387" on="0"/>
        <pt x="379" y="446" on="0"/>
        <pt x="464" y="480" on="0"/>
        <pt x="512" y="480" on="1"/>
        <pt x="556" y="480" on="0"/>
        <pt x="625" y="451" on="0"/>
        <pt x="673" y="399" on="0"/>
        <pt x="698" y="328" on="0"/>
        <pt x="698" y="286" on="1"/>
        <pt x="698" y="226" on="0"/>
        <pt x="655" y="118" on="0"/>
        <pt x="581" y="37" on="0"/>
        <pt x="482" y="-10" on="0"/>
      </contour>
      <contour>
        <pt x="434" y="35" on="1"/>
        <pt x="465" y="35" on="0"/>
        <pt x="514" y="94" on="0"/>
        <pt x="549" y="181" on="0"/>
        <pt x="567" y="281" on="0"/>
        <pt x="567" y="322" on="1"/>
        <pt x="567" y="373" on="0"/>
        <pt x="536" y="435" on="0"/>
        <pt x="504" y="435" on="1"/>
        <pt x="478" y="435" on="0"/>
        <pt x="430" y="389" on="0"/>
        <pt x="393" y="310" on="0"/>
        <pt x="371" y="206" on="0"/>
        <pt x="371" y="148" on="1"/>
        <pt x="371" y="96" on="0"/>
        <pt x="401" y="35" on="0"/>
      </contour>
    </TTGlyph>
    <TTGlyph name="afii10097" xMin="-32" yMin="-15" xMax="560" yMax="470">
      <contour>
        <pt x="269" y="235" on="1"/>
        <pt x="287" y="235" on="0"/>
        <pt x="314" y="242" on="0"/>
        <pt x="315" y="242" on="1"/>
        <pt x="347" y="423" on="1"/>
        <pt x="346" y="422" on="0"/>
        <pt x="321" y="430" on="0"/>
        <pt x="303" y="430" on="1"/>
        <pt x="283" y="430" on="0"/>
        <pt x="243" y="418" on="0"/>
        <pt x="210" y="389" on="0"/>
        <pt x="189" y="343" on="0"/>
        <pt x="189" y="309" on="1"/>
        <pt x="189" y="270" on="0"/>
        <pt x="236" y="235" on="0"/>
      </contour>
      <contour>
        <pt x="403" y="0" on="1"/>
        <pt x="273" y="0" on="1"/>
        <pt x="307" y="194" on="1"/>
        <pt x="263" y="194" on="1"/>
        <pt x="182" y="75" on="1"/>
        <pt x="151" y="30" on="0"/>
        <pt x="84" y="-15" on="0"/>
        <pt x="30" y="-15" on="1"/>
        <pt x="11" y="-15" on="0"/>
        <pt x="-22" y="-9" on="0"/>
        <pt x="-32" y="-5" on="1"/>
        <pt x="-29" y="21" on="1"/>
        <pt x="-1" y="25" on="0"/>
        <pt x="49" y="68" on="0"/>
        <pt x="69" y="95" on="1"/>
        <pt x="148" y="199" on="1"/>
        <pt x="103" y="206" on="0"/>
        <pt x="53" y="261" on="0"/>
        <pt x="53" y="301" on="1"/>
        <pt x="53" y="347" on="0"/>
        <pt x="92" y="411" on="0"/>
        <pt x="160" y="452" on="0"/>
        <pt x="250" y="470" on="0"/>
        <pt x="300" y="470" on="1"/>
        <pt x="560" y="470" on="1"/>
        <pt x="555" y="440" on="1"/>
        <pt x="550" y="440" on="1"/>
        <pt x="505" y="440" on="0"/>
        <pt x="469" y="385" on="0"/>
        <pt x="462" y="340" on="1"/>
      </contour>
    </TTGlyph>
    <TTGlyph name="afii10098" xMin="28" yMin="0" xMax="474" yMax="575">
      <contour>
        <pt x="232" y="425" on="1"/>
        <pt x="158" y="0" on="1"/>
        <pt x="28" y="0" on="1"/>
        <pt x="43" y="89" on="0"/>
        <pt x="65" y="213" on="0"/>
        <pt x="79" y="297" on="0"/>
        <pt x="87" y="345" on="0"/>
        <pt x="91" y="372" on="0"/>
        <pt x="92" y="382" on="0"/>
        <pt x="92" y="385" on="1"/>
        <pt x="92" y="411" on="0"/>
        <pt x="67" y="440" on="0"/>
        <pt x="35" y="440" on="1"/>
        <pt x="30" y="440" on="1"/>
        <pt x="35" y="470" on="1"/>
        <pt x="330" y="470" on="1"/>
        <pt x="375" y="470" on="0"/>
        <pt x="434" y="518" on="0"/>
        <pt x="444" y="575" on="1"/>
        <pt x="474" y="575" on="1"/>
        <pt x="462" y="505" on="1"/>
        <pt x="457" y="475" on="0"/>
        <pt x="416" y="425" on="0"/>
        <pt x="372" y="425" on="1"/>
      </contour>
    </TTGlyph>
    <TTGlyph name="afii10099" xMin="12" yMin="-140" xMax="491" yMax="660">
      <contour>
        <pt x="451" y="55" on="1"/>
        <pt x="434" y="-43" on="0"/>
        <pt x="313" y="-140" on="0"/>
        <pt x="204" y="-140" on="1"/>
        <pt x="208" y="-115" on="1"/>
        <pt x="251" y="-107" on="0"/>
        <pt x="306" y="-28" on="0"/>
        <pt x="321" y="55" on="1"/>
        <pt x="335" y="136" on="0"/>
        <pt x="351" y="229" on="0"/>
        <pt x="359" y="278" on="0"/>
        <pt x="361" y="296" on="0"/>
        <pt x="361" y="301" on="1"/>
        <pt x="361" y="346" on="0"/>
        <pt x="326" y="380" on="0"/>
        <pt x="299" y="380" on="1"/>
        <pt x="276" y="380" on="0"/>
        <pt x="223" y="353" on="0"/>
        <pt x="200" y="332" on="1"/>
        <pt x="142" y="0" on="1"/>
        <pt x="12" y="0" on="1"/>
        <pt x="99" y="495" on="1"/>
        <pt x="29" y="495" on="1"/>
        <pt x="37" y="540" on="1"/>
        <pt x="107" y="540" on="1"/>
        <pt x="117" y="600" on="1"/>
        <pt x="178" y="660" on="1"/>
        <pt x="258" y="660" on="1"/>
        <pt x="237" y="540" on="1"/>
        <pt x="337" y="540" on="1"/>
        <pt x="329" y="495" on="1"/>
        <pt x="229" y="495" on="1"/>
        <pt x="209" y="380" on="1"/>
        <pt x="235" y="403" on="0"/>
        <pt x="303" y="430" on="0"/>
        <pt x="337" y="430" on="1"/>
        <pt x="368" y="430" on="0"/>
        <pt x="424" y="418" on="0"/>
        <pt x="466" y="389" on="0"/>
        <pt x="491" y="339" on="0"/>
        <pt x="491" y="300" on="1"/>
        <pt x="491" y="294" on="0"/>
        <pt x="489" y="276" on="0"/>
        <pt x="481" y="227" on="0"/>
        <pt x="465" y="135" on="0"/>
      </contour>
    </TTGlyph>
    <TTGlyph name="afii10100" xMin="-14" yMin="-10" xMax="425" yMax="653">
      <component glyphName="afii10068" x="0" y="0" flags="0x204"/>
      <component glyphName="acute" x="103" y="-187" flags="0x4"/>
    </TTGlyph>
    <TTGlyph name="afii10101" xMin="25" yMin="-10" xMax="475" yMax="480">
      <contour>
        <pt x="320" y="435" on="1"/>
        <pt x="270" y="435" on="0"/>
        <pt x="189" y="346" on="0"/>
        <pt x="169" y="255" on="1"/>
        <pt x="358" y="255" on="1"/>
        <pt x="351" y="210" on="1"/>
        <pt x="162" y="210" on="1"/>
        <pt x="160" y="195" on="0"/>
        <pt x="158" y="169" on="0"/>
        <pt x="158" y="156" on="1"/>
        <pt x="158" y="35" on="0"/>
        <pt x="255" y="35" on="1"/>
        <pt x="307" y="35" on="0"/>
        <pt x="380" y="83" on="0"/>
        <pt x="412" y="118" on="1"/>
        <pt x="439" y="95" on="1"/>
        <pt x="425" y="78" on="0"/>
        <pt x="388" y="41" on="0"/>
        <pt x="337" y="10" on="0"/>
        <pt x="270" y="-10" on="0"/>
        <pt x="227" y="-10" on="1"/>
        <pt x="175" y="-10" on="0"/>
        <pt x="99" y="19" on="0"/>
        <pt x="49" y="70" on="0"/>
        <pt x="25" y="139" on="0"/>
        <pt x="25" y="180" on="1"/>
        <pt x="25" y="239" on="0"/>
        <pt x="65" y="347" on="0"/>
        <pt x="139" y="430" on="0"/>
        <pt x="246" y="480" on="0"/>
        <pt x="313" y="480" on="1"/>
        <pt x="396" y="480" on="0"/>
        <pt x="475" y="447" on="0"/>
        <pt x="475" y="400" on="1"/>
        <pt x="475" y="383" on="0"/>
        <pt x="468" y="336" on="0"/>
        <pt x="462" y="305" on="1"/>
        <pt x="432" y="305" on="1"/>
        <pt x="433" y="311" on="0"/>
        <pt x="433" y="323" on="0"/>
        <pt x="433" y="329" on="1"/>
        <pt x="433" y="381" on="0"/>
        <pt x="374" y="435" on="0"/>
      </contour>
    </TTGlyph>
    <TTGlyph name="afii10102" xMin="13" yMin="-10" xMax="431" yMax="480">
      <component glyphName="s" x="0" y="0" flags="0x200"/>
    </TTGlyph>
    <TTGlyph name="afii10103" xMin="30" yMin="0" xMax="256" yMax="656">
      <component glyphName="i" x="0" y="0" flags="0x200"/>
    </TTGlyph>
    <TTGlyph name="afii10104" xMin="30" yMin="0" xMax="363" yMax="666">
      <contour>
        <pt x="178" y="606" on="1"/>
        <pt x="178" y="579" on="0"/>
        <pt x="143" y="534" on="0"/>
        <pt x="112" y="534" on="1"/>
        <pt x="80" y="534" on="0"/>
        <pt x="49" y="569" on="0"/>
        <pt x="49" y="594" on="1"/>
        <pt x="49" y="621" on="0"/>
        <pt x="84" y="666" on="0"/>
        <pt x="115" y="666" on="1"/>
        <pt x="147" y="666" on="0"/>
        <pt x="178" y="631" on="0"/>
      </contour>
      <contour>
        <pt x="363" y="606" on="1"/>
        <pt x="363" y="579" on="0"/>
        <pt x="328" y="534" on="0"/>
        <pt x="297" y="534" on="1"/>
        <pt x="265" y="534" on="0"/>
        <pt x="234" y="569" on="0"/>
        <pt x="234" y="594" on="1"/>
        <pt x="234" y="621" on="0"/>
        <pt x="269" y="666" on="0"/>
        <pt x="300" y="666" on="1"/>
        <pt x="332" y="666" on="0"/>
        <pt x="363" y="631" on="0"/>
      </contour>
      <contour>
        <pt x="33" y="0" on="1"/>
        <pt x="48" y="89" on="0"/>
        <pt x="70" y="214" on="0"/>
        <pt x="84" y="297" on="0"/>
        <pt x="92" y="346" on="0"/>
        <pt x="96" y="372" on="0"/>
        <pt x="97" y="382" on="0"/>
        <pt x="97" y="385" on="1"/>
        <pt x="97" y="411" on="0"/>
        <pt x="72" y="440" on="0"/>
        <pt x="40" y="440" on="1"/>
        <pt x="30" y="440" on="1"/>
        <pt x="35" y="470" on="1"/>
        <pt x="155" y="470" on="1"/>
        <pt x="194" y="470" on="0"/>
        <pt x="229" y="441" on="0"/>
        <pt x="229" y="403" on="1"/>
        <pt x="229" y="399" on="0"/>
        <pt x="228" y="386" on="0"/>
        <pt x="224" y="358" on="0"/>
        <pt x="215" y="306" on="0"/>
        <pt x="201" y="220" on="0"/>
        <pt x="179" y="91" on="0"/>
        <pt x="163" y="0" on="1"/>
      </contour>
    </TTGlyph>
    <TTGlyph name="afii10105" xMin="-88" yMin="-190" xMax="256" yMax="656">
      <component glyphName="j" x="0" y="0" flags="0x200"/>
    </TTGlyph>
    <TTGlyph name="afii10106" xMin="-43" yMin="-15" xMax="753" yMax="470">
      <contour>
        <pt x="455" y="47" on="1"/>
        <pt x="466" y="43" on="0"/>
        <pt x="491" y="40" on="0"/>
        <pt x="499" y="40" on="1"/>
        <pt x="520" y="40" on="0"/>
        <pt x="563" y="52" on="0"/>
        <pt x="598" y="82" on="0"/>
        <pt x="619" y="131" on="0"/>
        <pt x="619" y="168" on="1"/>
        <pt x="619" y="209" on="0"/>
        <pt x="570" y="240" on="0"/>
        <pt x="534" y="240" on="1"/>
        <pt x="526" y="240" on="0"/>
        <pt x="499" y="237" on="0"/>
        <pt x="488" y="233" on="1"/>
      </contour>
      <contour>
        <pt x="145" y="350" on="1"/>
        <pt x="148" y="368" on="0"/>
        <pt x="148" y="384" on="1"/>
        <pt x="148" y="409" on="0"/>
        <pt x="122" y="440" on="0"/>
        <pt x="86" y="440" on="1"/>
        <pt x="91" y="470" on="1"/>
        <pt x="529" y="470" on="1"/>
        <pt x="496" y="280" on="1"/>
        <pt x="571" y="280" on="1"/>
        <pt x="656" y="280" on="0"/>
        <pt x="753" y="221" on="0"/>
        <pt x="753" y="164" on="1"/>
        <pt x="753" y="125" on="0"/>
        <pt x="718" y="64" on="0"/>
        <pt x="657" y="22" on="0"/>
        <pt x="572" y="0" on="0"/>
        <pt x="522" y="0" on="1"/>
        <pt x="445" y="0" on="1"/>
        <pt x="317" y="0" on="1"/>
        <pt x="391" y="425" on="1"/>
        <pt x="262" y="425" on="1"/>
        <pt x="249" y="350" on="1"/>
        <pt x="231" y="249" on="0"/>
        <pt x="182" y="109" on="0"/>
        <pt x="122" y="23" on="0"/>
        <pt x="52" y="-15" on="0"/>
        <pt x="15" y="-15" on="1"/>
        <pt x="-1" y="-15" on="0"/>
        <pt x="-35" y="-9" on="0"/>
        <pt x="-43" y="-6" on="1"/>
        <pt x="-38" y="23" on="1"/>
        <pt x="-11" y="27" on="0"/>
        <pt x="40" y="58" on="0"/>
        <pt x="86" y="129" on="0"/>
        <pt x="127" y="252" on="0"/>
      </contour>
    </TTGlyph>
    <TTGlyph name="afii10107" xMin="30" yMin="0" xMax="748" yMax="470">
      <contour>
        <pt x="352" y="225" on="1"/>
        <pt x="202" y="225" on="1"/>
        <pt x="163" y="0" on="1"/>
        <pt x="33" y="0" on="1"/>
        <pt x="48" y="89" on="0"/>
        <pt x="70" y="213" on="0"/>
        <pt x="84" y="297" on="0"/>
        <pt x="92" y="345" on="0"/>
        <pt x="96" y="372" on="0"/>
        <pt x="97" y="382" on="0"/>
        <pt x="97" y="385" on="1"/>
        <pt x="97" y="411" on="0"/>
        <pt x="72" y="440" on="0"/>
        <pt x="40" y="440" on="1"/>
        <pt x="30" y="440" on="1"/>
        <pt x="35" y="470" on="1"/>
        <pt x="155" y="470" on="1"/>
        <pt x="194" y="470" on="0"/>
        <pt x="229" y="441" on="0"/>
        <pt x="229" y="403" on="1"/>
        <pt x="229" y="397" on="0"/>
        <pt x="228" y="380" on="0"/>
        <pt x="223" y="351" on="0"/>
        <pt x="216" y="306" on="0"/>
        <pt x="210" y="270" on="1"/>
        <pt x="360" y="270" on="1"/>
        <pt x="395" y="470" on="1"/>
        <pt x="525" y="470" on="1"/>
        <pt x="490" y="270" on="1"/>
        <pt x="565" y="270" on="1"/>
        <pt x="651" y="270" on="0"/>
        <pt x="748" y="211" on="0"/>
        <pt x="748" y="157" on="1"/>
        <pt x="748" y="120" on="0"/>
        <pt x="714" y="62" on="0"/>
        <pt x="652" y="21" on="0"/>
        <pt x="568" y="0" on="0"/>
        <pt x="518" y="0" on="1"/>
        <pt x="313" y="0" on="1"/>
      </contour>
      <contour>
        <pt x="451" y="47" on="1"/>
        <pt x="462" y="43" on="0"/>
        <pt x="487" y="40" on="0"/>
        <pt x="495" y="40" on="1"/>
        <pt x="517" y="40" on="0"/>
        <pt x="559" y="52" on="0"/>
        <pt x="592" y="80" on="0"/>
        <pt x="613" y="126" on="0"/>
        <pt x="613" y="160" on="1"/>
        <pt x="613" y="199" on="0"/>
        <pt x="564" y="230" on="0"/>
        <pt x="528" y="230" on="1"/>
        <pt x="520" y="230" on="0"/>
        <pt x="494" y="227" on="0"/>
        <pt x="482" y="223" on="1"/>
      </contour>
    </TTGlyph>
    <TTGlyph name="afii10108" xMin="12" yMin="0" xMax="491" yMax="660">
      <contour>
        <pt x="229" y="495" on="1"/>
        <pt x="209" y="380" on="1"/>
        <pt x="235" y="403" on="0"/>
        <pt x="303" y="430" on="0"/>
        <pt x="337" y="430" on="1"/>
        <pt x="368" y="430" on="0"/>
        <pt x="424" y="418" on="0"/>
        <pt x="466" y="389" on="0"/>
        <pt x="491" y="339" on="0"/>
        <pt x="491" y="300" on="1"/>
        <pt x="491" y="294" on="0"/>
        <pt x="489" y="275" on="0"/>
        <pt x="479" y="215" on="0"/>
        <pt x="460" y="100" on="0"/>
        <pt x="442" y="0" on="1"/>
        <pt x="312" y="0" on="1"/>
        <pt x="330" y="101" on="0"/>
        <pt x="349" y="217" on="0"/>
        <pt x="359" y="276" on="0"/>
        <pt x="361" y="296" on="0"/>
        <pt x="361" y="301" on="1"/>
        <pt x="361" y="346" on="0"/>
        <pt x="326" y="380" on="0"/>
        <pt x="299" y="380" on="1"/>
        <pt x="276" y="380" on="0"/>
        <pt x="223" y="353" on="0"/>
        <pt x="200" y="332" on="1"/>
        <pt x="142" y="0" on="1"/>
        <pt x="12" y="0" on="1"/>
        <pt x="99" y="495" on="1"/>
        <pt x="29" y="495" on="1"/>
        <pt x="37" y="540" on="1"/>
        <pt x="107" y="540" on="1"/>
        <pt x="117" y="600" on="1"/>
        <pt x="178" y="660" on="1"/>
        <pt x="258" y="660" on="1"/>
        <pt x="237" y="540" on="1"/>
        <pt x="337" y="540" on="1"/>
        <pt x="329" y="495" on="1"/>
      </contour>
    </TTGlyph>
    <TTGlyph name="afii10109" xMin="30" yMin="-10" xMax="530" yMax="623">
      <component glyphName="afii10076" x="0" y="0" flags="0x204"/>
      <component glyphName="acute" x="170" y="-217" flags="0x4"/>
    </TTGlyph>
    <TTGlyph name="afii10110" xMin="4" yMin="-200" xMax="522" yMax="625">
      <component glyphName="y" x="0" y="0" flags="0x204"/>
      <component glyphName="breve" x="132" y="0" flags="0x4"/>
    </TTGlyph>
    <TTGlyph name="afii10145" xMin="48" yMin="-175" xMax="684" yMax="660">
      <contour>
        <pt x="48" y="0" on="1"/>
        <pt x="72" y="136" on="0"/>
        <pt x="105" y="326" on="0"/>
        <pt x="127" y="452" on="0"/>
        <pt x="139" y="523" on="0"/>
        <pt x="145" y="560" on="0"/>
        <pt x="146" y="572" on="0"/>
        <pt x="146" y="575" on="1"/>
        <pt x="146" y="601" on="0"/>
        <pt x="121" y="630" on="0"/>
        <pt x="89" y="630" on="1"/>
        <pt x="79" y="630" on="1"/>
        <pt x="84" y="660" on="1"/>
        <pt x="204" y="660" on="1"/>
        <pt x="243" y="660" on="0"/>
        <pt x="278" y="631" on="0"/>
        <pt x="278" y="593" on="1"/>
        <pt x="278" y="589" on="0"/>
        <pt x="277" y="575" on="0"/>
        <pt x="271" y="538" on="0"/>
        <pt x="259" y="469" on="0"/>
        <pt x="239" y="350" on="0"/>
        <pt x="207" y="172" on="0"/>
        <pt x="185" y="45" on="1"/>
        <pt x="445" y="45" on="1"/>
        <pt x="554" y="660" on="1"/>
        <pt x="684" y="660" on="1"/>
        <pt x="568" y="0" on="1"/>
        <pt x="358" y="0" on="1"/>
        <pt x="312" y="-175" on="1"/>
        <pt x="242" y="-175" on="1"/>
        <pt x="258" y="0" on="1"/>
      </contour>
    </TTGlyph>
    <TTGlyph name="afii10193" xMin="30" yMin="-150" xMax="535" yMax="470">
      <contour>
        <pt x="33" y="0" on="1"/>
        <pt x="48" y="89" on="0"/>
        <pt x="70" y="213" on="0"/>
        <pt x="84" y="297" on="0"/>
        <pt x="92" y="345" on="0"/>
        <pt x="96" y="372" on="0"/>
        <pt x="97" y="382" on="0"/>
        <pt x="97" y="385" on="1"/>
        <pt x="97" y="411" on="0"/>
        <pt x="72" y="440" on="0"/>
        <pt x="40" y="440" on="1"/>
        <pt x="30" y="440" on="1"/>
        <pt x="35" y="470" on="1"/>
        <pt x="155" y="470" on="1"/>
        <pt x="194" y="470" on="0"/>
        <pt x="229" y="441" on="0"/>
        <pt x="229" y="403" on="1"/>
        <pt x="229" y="397" on="0"/>
        <pt x="226" y="373" on="0"/>
        <pt x="215" y="302" on="0"/>
        <pt x="191" y="165" on="0"/>
        <pt x="170" y="45" on="1"/>
        <pt x="330" y="45" on="1"/>
        <pt x="405" y="470" on="1"/>
        <pt x="535" y="470" on="1"/>
        <pt x="453" y="0" on="1"/>
        <pt x="288" y="0" on="1"/>
        <pt x="246" y="-150" on="1"/>
        <pt x="186" y="-150" on="1"/>
        <pt x="198" y="0" on="1"/>
      </contour>
    </TTGlyph>
    <TTGlyph name="afii61352" xMin="53" yMin="-3" xMax="1047" yMax="680">
      <contour>
        <pt x="558" y="200" on="1"/>
        <pt x="639" y="660" on="1"/>
        <pt x="689" y="660" on="1"/>
        <pt x="572" y="-3" on="1"/>
        <pt x="526" y="-3" on="1"/>
        <pt x="190" y="495" on="1"/>
        <pt x="103" y="0" on="1"/>
        <pt x="53" y="0" on="1"/>
        <pt x="77" y="137" on="0"/>
        <pt x="110" y="327" on="0"/>
        <pt x="132" y="451" on="0"/>
        <pt x="143" y="520" on="0"/>
        <pt x="149" y="554" on="0"/>
        <pt x="150" y="564" on="0"/>
        <pt x="150" y="566" on="1"/>
        <pt x="150" y="594" on="0"/>
        <pt x="117" y="630" on="0"/>
        <pt x="74" y="630" on="1"/>
        <pt x="69" y="630" on="1"/>
        <pt x="74" y="660" on="1"/>
        <pt x="144" y="660" on="1"/>
        <pt x="201" y="660" on="0"/>
        <pt x="266" y="630" on="0"/>
        <pt x="284" y="600" on="1"/>
      </contour>
      <contour>
        <pt x="894" y="630" on="1"/>
        <pt x="874" y="630" on="0"/>
        <pt x="833" y="611" on="0"/>
        <pt x="801" y="576" on="0"/>
        <pt x="781" y="525" on="0"/>
        <pt x="781" y="492" on="1"/>
        <pt x="781" y="452" on="0"/>
        <pt x="823" y="410" on="0"/>
        <pt x="855" y="410" on="1"/>
        <pt x="876" y="410" on="0"/>
        <pt x="916" y="429" on="0"/>
        <pt x="947" y="464" on="0"/>
        <pt x="967" y="516" on="0"/>
        <pt x="967" y="549" on="1"/>
        <pt x="967" y="588" on="0"/>
        <pt x="926" y="630" on="0"/>
      </contour>
      <contour>
        <pt x="902" y="680" on="1"/>
        <pt x="974" y="680" on="0"/>
        <pt x="1047" y="608" on="0"/>
        <pt x="1047" y="553" on="1"/>
        <pt x="1047" y="514" on="0"/>
        <pt x="1018" y="443" on="0"/>
        <pt x="966" y="391" on="0"/>
        <pt x="891" y="360" on="0"/>
        <pt x="846" y="360" on="1"/>
        <pt x="774" y="360" on="0"/>
        <pt x="701" y="431" on="0"/>
        <pt x="701" y="487" on="1"/>
        <pt x="701" y="526" on="0"/>
        <pt x="730" y="597" on="0"/>
        <pt x="782" y="649" on="0"/>
        <pt x="857" y="680" on="0"/>
      </contour>
      <contour>
        <pt x="986" y="247" on="1"/>
        <pt x="666" y="247" on="1"/>
        <pt x="678" y="312" on="1"/>
        <pt x="998" y="312" on="1"/>
      </contour>
    </TTGlyph>
    <TTGlyph name="agrave" xMin="24" yMin="-10" xMax="522" yMax="665">
      <component glyphName="a" x="0" y="0" flags="0x204"/>
      <component glyphName="grave.alt1" x="172" y="0" flags="0x4"/>
    </TTGlyph>
    <TTGlyph name="ampersand" xMin="5" yMin="-20" xMax="609" yMax="680">
      <contour>
        <pt x="5" y="108" on="1"/>
        <pt x="5" y="148" on="0"/>
        <pt x="39" y="214" on="0"/>
        <pt x="95" y="266" on="0"/>
        <pt x="164" y="308" on="0"/>
        <pt x="199" y="326" on="1"/>
        <pt x="194" y="331" on="0"/>
        <pt x="168" y="362" on="0"/>
        <pt x="141" y="408" on="0"/>
        <pt x="121" y="465" on="0"/>
        <pt x="121" y="496" on="1"/>
        <pt x="121" y="540" on="0"/>
        <pt x="160" y="609" on="0"/>
        <pt x="224" y="656" on="0"/>
        <pt x="306" y="680" on="0"/>
        <pt x="350" y="680" on="1"/>
        <pt x="431" y="680" on="0"/>
        <pt x="513" y="616" on="0"/>
        <pt x="513" y="564" on="1"/>
        <pt x="513" y="525" on="0"/>
        <pt x="477" y="460" on="0"/>
        <pt x="420" y="405" on="0"/>
        <pt x="352" y="359" on="0"/>
        <pt x="320" y="340" on="1"/>
        <pt x="470" y="140" on="1"/>
        <pt x="492" y="160" on="0"/>
        <pt x="531" y="204" on="0"/>
        <pt x="545" y="221" on="1"/>
        <pt x="562" y="241" on="0"/>
        <pt x="576" y="261" on="1"/>
        <pt x="609" y="236" on="1"/>
        <pt x="596" y="215" on="0"/>
        <pt x="579" y="193" on="1"/>
        <pt x="565" y="174" on="0"/>
        <pt x="524" y="127" on="0"/>
        <pt x="498" y="103" on="1"/>
        <pt x="577" y="0" on="1"/>
        <pt x="441" y="0" on="1"/>
        <pt x="409" y="38" on="1"/>
        <pt x="409" y="38" on="0"/>
        <pt x="381" y="20" on="0"/>
        <pt x="331" y="-2" on="0"/>
        <pt x="264" y="-20" on="0"/>
        <pt x="227" y="-20" on="1"/>
        <pt x="165" y="-20" on="0"/>
        <pt x="80" y="0" on="0"/>
        <pt x="28" y="34" on="0"/>
        <pt x="5" y="81" on="0"/>
      </contour>
      <contour>
        <pt x="243" y="20" on="1"/>
        <pt x="273" y="20" on="0"/>
        <pt x="325" y="36" on="0"/>
        <pt x="344" y="46" on="1"/>
        <pt x="366" y="57" on="0"/>
        <pt x="385" y="72" on="1"/>
        <pt x="344" y="128" on="0"/>
        <pt x="271" y="222" on="0"/>
        <pt x="231" y="278" on="1"/>
        <pt x="194" y="249" on="0"/>
        <pt x="136" y="167" on="0"/>
        <pt x="136" y="115" on="1"/>
        <pt x="136" y="71" on="0"/>
        <pt x="189" y="20" on="0"/>
      </contour>
      <contour>
        <pt x="343" y="640" on="1"/>
        <pt x="317" y="640" on="0"/>
        <pt x="281" y="611" on="0"/>
        <pt x="259" y="566" on="0"/>
        <pt x="250" y="513" on="0"/>
        <pt x="250" y="490" on="1"/>
        <pt x="250" y="450" on="0"/>
        <pt x="278" y="395" on="0"/>
        <pt x="291" y="381" on="1"/>
        <pt x="334" y="415" on="0"/>
        <pt x="393" y="509" on="0"/>
        <pt x="393" y="569" on="1"/>
        <pt x="393" y="608" on="0"/>
        <pt x="362" y="640" on="0"/>
      </contour>
    </TTGlyph>
    <TTGlyph name="aring" xMin="24" yMin="-10" xMax="522" yMax="710">
      <component glyphName="a" x="0" y="0" flags="0x204"/>
      <component glyphName="ring" x="192" y="0" flags="0x4"/>
    </TTGlyph>
    <TTGlyph name="asciicircum" xMin="28" yMin="330" xMax="502" yMax="680">
      <contour>
        <pt x="348" y="680" on="1"/>
        <pt x="502" y="330" on="1"/>
        <pt x="404" y="330" on="1"/>
        <pt x="305" y="557" on="1"/>
        <pt x="126" y="330" on="1"/>
        <pt x="28" y="330" on="1"/>
        <pt x="304" y="680" on="1"/>
      </contour>
    </TTGlyph>
    <TTGlyph name="asciitilde" xMin="36" yMin="167" xMax="570" yMax="343">
      <contour>
        <pt x="184" y="343" on="1"/>
        <pt x="221" y="343" on="0"/>
        <pt x="289" y="318" on="0"/>
        <pt x="352" y="288" on="0"/>
        <pt x="411" y="263" on="0"/>
        <pt x="440" y="263" on="1"/>
        <pt x="482" y="263" on="0"/>
        <pt x="525" y="293" on="0"/>
        <pt x="530" y="323" on="1"/>
        <pt x="570" y="323" on="1"/>
        <pt x="556" y="245" on="0"/>
        <pt x="485" y="167" on="0"/>
        <pt x="423" y="167" on="1"/>
        <pt x="385" y="167" on="0"/>
        <pt x="318" y="192" on="0"/>
        <pt x="255" y="222" on="0"/>
        <pt x="196" y="247" on="0"/>
        <pt x="167" y="247" on="1"/>
        <pt x="125" y="247" on="0"/>
        <pt x="82" y="217" on="0"/>
        <pt x="76" y="187" on="1"/>
        <pt x="36" y="187" on="1"/>
        <pt x="50" y="265" on="0"/>
        <pt x="122" y="343" on="0"/>
      </contour>
    </TTGlyph>
    <TTGlyph name="asterisk" xMin="67" yMin="324" xMax="443" yMax="660">
      <contour>
        <pt x="229" y="660" on="1"/>
        <pt x="341" y="660" on="1"/>
        <pt x="296" y="539" on="1"/>
        <pt x="409" y="628" on="1"/>
        <pt x="443" y="542" on="1"/>
        <pt x="290" y="492" on="1"/>
        <pt x="425" y="442" on="1"/>
        <pt x="361" y="356" on="1"/>
        <pt x="278" y="446" on="1"/>
        <pt x="282" y="324" on="1"/>
        <pt x="170" y="324" on="1"/>
        <pt x="215" y="445" on="1"/>
        <pt x="101" y="356" on="1"/>
        <pt x="67" y="442" on="1"/>
        <pt x="220" y="492" on="1"/>
        <pt x="85" y="542" on="1"/>
        <pt x="149" y="628" on="1"/>
        <pt x="232" y="539" on="1"/>
      </contour>
    </TTGlyph>
    <TTGlyph name="at" xMin="20" yMin="-180" xMax="854" yMax="680">
      <contour>
        <pt x="434" y="495" on="1"/>
        <pt x="464" y="495" on="0"/>
        <pt x="504" y="478" on="0"/>
        <pt x="516" y="467" on="1"/>
        <pt x="530" y="455" on="0"/>
        <pt x="539" y="440" on="1"/>
        <pt x="544" y="440" on="1"/>
        <pt x="587" y="485" on="1"/>
        <pt x="672" y="485" on="1"/>
        <pt x="604" y="102" on="1"/>
        <pt x="603" y="97" on="0"/>
        <pt x="603" y="87" on="1"/>
        <pt x="603" y="71" on="0"/>
        <pt x="618" y="51" on="0"/>
        <pt x="635" y="51" on="1"/>
        <pt x="665" y="51" on="0"/>
        <pt x="710" y="84" on="0"/>
        <pt x="743" y="138" on="0"/>
        <pt x="765" y="206" on="0"/>
        <pt x="778" y="275" on="0"/>
        <pt x="784" y="340" on="0"/>
        <pt x="784" y="363" on="1"/>
        <pt x="784" y="430" on="0"/>
        <pt x="745" y="531" on="0"/>
        <pt x="672" y="600" on="0"/>
        <pt x="568" y="635" on="0"/>
        <pt x="503" y="635" on="1"/>
        <pt x="402" y="635" on="0"/>
        <pt x="248" y="552" on="0"/>
        <pt x="143" y="415" on="0"/>
        <pt x="90" y="238" on="0"/>
        <pt x="90" y="143" on="1"/>
        <pt x="90" y="73" on="0"/>
        <pt x="129" y="-31" on="0"/>
        <pt x="201" y="-100" on="0"/>
        <pt x="304" y="-135" on="0"/>
        <pt x="368" y="-135" on="1"/>
        <pt x="463" y="-135" on="0"/>
        <pt x="627" y="-86" on="0"/>
        <pt x="701" y="-40" on="1"/>
        <pt x="720" y="-80" on="1"/>
        <pt x="649" y="-124" on="0"/>
        <pt x="473" y="-180" on="0"/>
        <pt x="360" y="-180" on="1"/>
        <pt x="282" y="-180" on="0"/>
        <pt x="157" y="-139" on="0"/>
        <pt x="68" y="-57" on="0"/>
        <pt x="20" y="63" on="0"/>
        <pt x="20" y="143" on="1"/>
        <pt x="20" y="245" on="0"/>
        <pt x="86" y="439" on="0"/>
        <pt x="211" y="589" on="0"/>
        <pt x="394" y="680" on="0"/>
        <pt x="511" y="680" on="1"/>
        <pt x="589" y="680" on="0"/>
        <pt x="716" y="638" on="0"/>
        <pt x="806" y="558" on="0"/>
        <pt x="854" y="440" on="0"/>
        <pt x="854" y="364" on="1"/>
        <pt x="854" y="306" on="0"/>
        <pt x="825" y="179" on="0"/>
        <pt x="762" y="74" on="0"/>
        <pt x="660" y="5" on="0"/>
        <pt x="587" y="5" on="1"/>
        <pt x="574" y="5" on="0"/>
        <pt x="540" y="7" on="0"/>
        <pt x="507" y="18" on="0"/>
        <pt x="479" y="40" on="0"/>
        <pt x="472" y="60" on="1"/>
        <pt x="457" y="44" on="0"/>
        <pt x="439" y="32" on="1"/>
        <pt x="423" y="21" on="0"/>
        <pt x="377" y="5" on="0"/>
        <pt x="347" y="5" on="1"/>
        <pt x="302" y="5" on="0"/>
        <pt x="237" y="32" on="0"/>
        <pt x="195" y="80" on="0"/>
        <pt x="174" y="145" on="0"/>
        <pt x="174" y="183" on="1"/>
        <pt x="174" y="235" on="0"/>
        <pt x="208" y="346" on="0"/>
        <pt x="274" y="437" on="0"/>
        <pt x="371" y="495" on="0"/>
      </contour>
      <contour>
        <pt x="446" y="450" on="1"/>
        <pt x="420" y="450" on="0"/>
        <pt x="379" y="418" on="0"/>
        <pt x="347" y="367" on="0"/>
        <pt x="326" y="303" on="0"/>
        <pt x="312" y="238" on="0"/>
        <pt x="306" y="178" on="0"/>
        <pt x="306" y="157" on="1"/>
        <pt x="306" y="109" on="0"/>
        <pt x="337" y="50" on="0"/>
        <pt x="375" y="50" on="1"/>
        <pt x="398" y="50" on="0"/>
        <pt x="434" y="70" on="0"/>
        <pt x="448" y="82" on="1"/>
        <pt x="464" y="96" on="0"/>
        <pt x="477" y="115" on="1"/>
        <pt x="524" y="385" on="1"/>
        <pt x="518" y="403" on="0"/>
        <pt x="507" y="417" on="1"/>
        <pt x="498" y="429" on="0"/>
        <pt x="469" y="450" on="0"/>
      </contour>
    </TTGlyph>
    <TTGlyph name="atilde" xMin="24" yMin="-10" xMax="522" yMax="636">
      <component glyphName="a" x="0" y="0" flags="0x204"/>
      <component glyphName="tilde" x="129" y="-144" flags="0x4"/>
    </TTGlyph>
    <TTGlyph name="b" xMin="13" yMin="-10" xMax="510" yMax="660">
      <contour>
        <pt x="160" y="100" on="1"/>
        <pt x="166" y="81" on="0"/>
        <pt x="177" y="67" on="1"/>
        <pt x="186" y="55" on="0"/>
        <pt x="216" y="35" on="0"/>
        <pt x="239" y="35" on="1"/>
        <pt x="266" y="35" on="0"/>
        <pt x="308" y="66" on="0"/>
        <pt x="338" y="117" on="0"/>
        <pt x="360" y="180" on="0"/>
        <pt x="372" y="245" on="0"/>
        <pt x="378" y="304" on="0"/>
        <pt x="378" y="325" on="1"/>
        <pt x="378" y="376" on="0"/>
        <pt x="345" y="435" on="0"/>
        <pt x="304" y="435" on="1"/>
        <pt x="285" y="435" on="0"/>
        <pt x="252" y="425" on="0"/>
        <pt x="240" y="420" on="1"/>
        <pt x="226" y="413" on="0"/>
        <pt x="214" y="405" on="1"/>
      </contour>
      <contour>
        <pt x="13" y="0" on="1"/>
        <pt x="37" y="137" on="0"/>
        <pt x="70" y="326" on="0"/>
        <pt x="92" y="452" on="0"/>
        <pt x="104" y="523" on="0"/>
        <pt x="110" y="560" on="0"/>
        <pt x="111" y="572" on="0"/>
        <pt x="111" y="575" on="1"/>
        <pt x="111" y="601" on="0"/>
        <pt x="86" y="630" on="0"/>
        <pt x="54" y="630" on="1"/>
        <pt x="44" y="630" on="1"/>
        <pt x="49" y="660" on="1"/>
        <pt x="169" y="660" on="1"/>
        <pt x="208" y="660" on="0"/>
        <pt x="243" y="631" on="0"/>
        <pt x="243" y="593" on="1"/>
        <pt x="243" y="587" on="0"/>
        <pt x="242" y="570" on="0"/>
        <pt x="237" y="539" on="0"/>
        <pt x="229" y="489" on="0"/>
        <pt x="222" y="450" on="1"/>
        <pt x="236" y="458" on="0"/>
        <pt x="253" y="465" on="1"/>
        <pt x="267" y="470" on="0"/>
        <pt x="307" y="480" on="0"/>
        <pt x="332" y="480" on="1"/>
        <pt x="378" y="480" on="0"/>
        <pt x="445" y="453" on="0"/>
        <pt x="489" y="404" on="0"/>
        <pt x="510" y="337" on="0"/>
        <pt x="510" y="297" on="1"/>
        <pt x="510" y="244" on="0"/>
        <pt x="476" y="135" on="0"/>
        <pt x="411" y="46" on="0"/>
        <pt x="314" y="-10" on="0"/>
        <pt x="251" y="-10" on="1"/>
        <pt x="221" y="-10" on="0"/>
        <pt x="180" y="6" on="0"/>
        <pt x="168" y="17" on="1"/>
        <pt x="153" y="29" on="0"/>
        <pt x="145" y="45" on="1"/>
        <pt x="140" y="45" on="1"/>
        <pt x="98" y="0" on="1"/>
      </contour>
    </TTGlyph>
    <TTGlyph name="backslash" xMin="88" yMin="0" xMax="405" yMax="660">
      <contour>
        <pt x="293" y="0" on="1"/>
        <pt x="88" y="660" on="1"/>
        <pt x="200" y="660" on="1"/>
        <pt x="405" y="0" on="1"/>
      </contour>
    </TTGlyph>
    <TTGlyph name="bar" xMin="-15" yMin="-190" xMax="268" yMax="680">
      <contour>
        <pt x="268" y="680" on="1"/>
        <pt x="115" y="-190" on="1"/>
        <pt x="-15" y="-190" on="1"/>
        <pt x="138" y="680" on="1"/>
      </contour>
    </TTGlyph>
    <TTGlyph name="braceleft" xMin="-7" yMin="-211" xMax="365" yMax="691">
      <contour>
        <pt x="106" y="240" on="1"/>
        <pt x="204" y="212" on="0"/>
        <pt x="204" y="132" on="1"/>
        <pt x="204" y="100" on="0"/>
        <pt x="192" y="38" on="0"/>
        <pt x="179" y="-22" on="0"/>
        <pt x="167" y="-83" on="0"/>
        <pt x="167" y="-113" on="1"/>
        <pt x="167" y="-140" on="0"/>
        <pt x="188" y="-171" on="0"/>
        <pt x="212" y="-176" on="1"/>
        <pt x="206" y="-211" on="1"/>
        <pt x="162" y="-208" on="0"/>
        <pt x="100" y="-183" on="0"/>
        <pt x="61" y="-145" on="0"/>
        <pt x="44" y="-96" on="0"/>
        <pt x="44" y="-68" on="1"/>
        <pt x="44" y="-42" on="0"/>
        <pt x="54" y="9" on="0"/>
        <pt x="65" y="60" on="0"/>
        <pt x="75" y="110" on="0"/>
        <pt x="75" y="136" on="1"/>
        <pt x="75" y="168" on="0"/>
        <pt x="39" y="218" on="0"/>
        <pt x="-7" y="224" on="1"/>
        <pt x="-1" y="256" on="1"/>
        <pt x="56" y="264" on="0"/>
        <pt x="111" y="329" on="0"/>
        <pt x="119" y="370" on="1"/>
        <pt x="143" y="510" on="1"/>
        <pt x="149" y="544" on="0"/>
        <pt x="180" y="606" on="0"/>
        <pt x="234" y="655" on="0"/>
        <pt x="312" y="687" on="0"/>
        <pt x="365" y="691" on="1"/>
        <pt x="359" y="656" on="1"/>
        <pt x="324" y="650" on="0"/>
        <pt x="289" y="597" on="0"/>
        <pt x="281" y="552" on="1"/>
        <pt x="251" y="380" on="1"/>
        <pt x="241" y="323" on="0"/>
        <pt x="172" y="257" on="0"/>
      </contour>
    </TTGlyph>
    <TTGlyph name="braceright" xMin="-66" yMin="-211" xMax="306" yMax="691">
      <contour>
        <pt x="193" y="240" on="1"/>
        <pt x="95" y="268" on="0"/>
        <pt x="95" y="348" on="1"/>
        <pt x="95" y="378" on="0"/>
        <pt x="107" y="439" on="0"/>
        <pt x="120" y="499" on="0"/>
        <pt x="132" y="560" on="0"/>
        <pt x="132" y="592" on="1"/>
        <pt x="132" y="619" on="0"/>
        <pt x="111" y="651" on="0"/>
        <pt x="86" y="656" on="1"/>
        <pt x="92" y="691" on="1"/>
        <pt x="136" y="688" on="0"/>
        <pt x="198" y="663" on="0"/>
        <pt x="237" y="625" on="0"/>
        <pt x="254" y="576" on="0"/>
        <pt x="254" y="548" on="1"/>
        <pt x="254" y="522" on="0"/>
        <pt x="244" y="471" on="0"/>
        <pt x="233" y="420" on="0"/>
        <pt x="223" y="369" on="0"/>
        <pt x="223" y="342" on="1"/>
        <pt x="223" y="310" on="0"/>
        <pt x="260" y="262" on="0"/>
        <pt x="306" y="256" on="1"/>
        <pt x="300" y="224" on="1"/>
        <pt x="242" y="216" on="0"/>
        <pt x="187" y="151" on="0"/>
        <pt x="180" y="110" on="1"/>
        <pt x="155" y="-30" on="1"/>
        <pt x="149" y="-64" on="0"/>
        <pt x="118" y="-126" on="0"/>
        <pt x="65" y="-175" on="0"/>
        <pt x="-13" y="-207" on="0"/>
        <pt x="-66" y="-211" on="1"/>
        <pt x="-60" y="-176" on="1"/>
        <pt x="-25" y="-170" on="0"/>
        <pt x="10" y="-117" on="0"/>
        <pt x="18" y="-72" on="1"/>
        <pt x="48" y="100" on="1"/>
        <pt x="58" y="157" on="0"/>
        <pt x="127" y="223" on="0"/>
      </contour>
    </TTGlyph>
    <TTGlyph name="bracketleft" xMin="-17" yMin="-200" xMax="383" yMax="680">
      <contour>
        <pt x="228" y="-200" on="1"/>
        <pt x="-17" y="-200" on="1"/>
        <pt x="138" y="680" on="1"/>
        <pt x="383" y="680" on="1"/>
        <pt x="375" y="635" on="1"/>
        <pt x="250" y="635" on="1"/>
        <pt x="111" y="-155" on="1"/>
        <pt x="236" y="-155" on="1"/>
      </contour>
    </TTGlyph>
    <TTGlyph name="bracketright" xMin="-64" yMin="-200" xMax="335" yMax="680">
      <contour>
        <pt x="-56" y="-155" on="1"/>
        <pt x="68" y="-155" on="1"/>
        <pt x="207" y="635" on="1"/>
        <pt x="82" y="635" on="1"/>
        <pt x="90" y="680" on="1"/>
        <pt x="335" y="680" on="1"/>
        <pt x="180" y="-200" on="1"/>
        <pt x="-64" y="-200" on="1"/>
      </contour>
    </TTGlyph>
    <TTGlyph name="breve" xMin="68" yMin="510" xMax="350" yMax="625">
      <contour>
        <pt x="204" y="575" on="1"/>
        <pt x="246" y="575" on="0"/>
        <pt x="307" y="606" on="0"/>
        <pt x="326" y="625" on="1"/>
        <pt x="350" y="604" on="1"/>
        <pt x="324" y="562" on="0"/>
        <pt x="241" y="510" on="0"/>
        <pt x="192" y="510" on="1"/>
        <pt x="143" y="510" on="0"/>
        <pt x="79" y="562" on="0"/>
        <pt x="68" y="604" on="1"/>
        <pt x="100" y="625" on="1"/>
        <pt x="111" y="606" on="0"/>
        <pt x="162" y="575" on="0"/>
      </contour>
    </TTGlyph>
</ttFont>
